999
dxfrw 0.6.3
  0
SECTION
  2
HEADER
  9
$ACADVER
  1
AC1021
  9
$DWGCODEPAGE
  3
ANSI_1252
  9
$INSBASE
 10
0
 20
0
 30
0
  9
$EXTMIN
 10
-900
 20
-1233.25
 30
0
  9
$EXTMAX
 10
4376.75
 20
806
 30
0
  9
$LIMMIN
 10
0
 20
0
  9
$LIMMAX
 10
420
 20
297
  9
$ORTHOMODE
 70
    0
  9
$REGENMODE
 70
    1
  9
$FILLMODE
 70
    1
  9
$QTEXTMODE
 70
    0
  9
$MIRRTEXT
 70
    0
  9
$LTSCALE
 40
1
  9
$ATTMODE
 70
    0
  9
$TEXTSIZE
 40
2.5
  9
$TRACEWID
 40
15.68
  9
$TEXTSTYLE
  7
STANDARD
  9
$CLAYER
  8
0
  9
$CELTYPE
  6
BYLAYER
  9
$CECOLOR
 62
  256
  9
$CELTSCALE
 40
1
  9
$DISPSILH
 70
    0
  9
$DIMSCALE
 40
1
  9
$DIMASZ
 40
10
  9
$DIMEXO
 40
0.0625
  9
$DIMDLI
 40
3.75
  9
$DIMRND
 40
0
  9
$DIMDLE
 40
0
  9
$DIMEXE
 40
0.125
  9
$DIMTP
 40
0
  9
$DIMTM
 40
0
  9
$DIMTXT
 40
10
  9
$DIMCEN
 40
2.5
  9
$DIMTSZ
 40
0
  9
$DIMTOL
 70
    0
  9
$DIMLIM
 70
    0
  9
$DIMTIH
 70
    0
  9
$DIMTOH
 70
    0
  9
$DIMSE1
 70
    0
  9
$DIMSE2
 70
    0
  9
$DIMTAD
 70
    1
  9
$DIMZIN
 70
    8
  9
$DIMBLK
  1

  9
$DIMASO
 70
    1
  9
$DIMSHO
 70
    1
  9
$DIMPOST
  1

  9
$DIMAPOST
  1

  9
$DIMALT
 70
    0
  9
$DIMALTD
 70
    3
  9
$DIMALTF
 40
0.03937
  9
$DIMLFAC
 40
1
  9
$DIMTOFL
 70
    1
  9
$DIMTVP
 40
0
  9
$DIMTIX
 70
    0
  9
$DIMSOXD
 70
    0
  9
$DIMSAH
 70
    0
  9
$DIMBLK1
  1

  9
$DIMBLK2
  1

  9
$DIMSTYLE
  2
STANDARD
  9
$DIMCLRD
 70
    0
  9
$DIMCLRE
 70
    0
  9
$DIMCLRT
 70
    0
  9
$DIMTFAC
 40
1
  9
$DIMGAP
 40
2
  9
$DIMJUST
 70
    0
  9
$DIMSD1
 70
    0
  9
$DIMSD2
 70
    0
  9
$DIMTOLJ
 70
    0
  9
$DIMTZIN
 70
    8
  9
$DIMALTZ
 70
    0
  9
$DIMALTTZ
 70
    0
  9
$DIMUPT
 70
    0
  9
$DIMDEC
 70
    4
  9
$DIMTDEC
 70
    2
  9
$DIMALTU
 70
    2
  9
$DIMALTTD
 70
    3
  9
$DIMTXSTY
  7
standard
  9
$DIMAUNIT
 70
    0
  9
$DIMADEC
 70
    2
  9
$DIMALTRND
 40
0
  9
$DIMAZIN
 70
    0
  9
$DIMDSEP
 70
    0
  9
$DIMATFIT
 70
    3
  9
$DIMFRAC
 70
    0
  9
$DIMLDRBLK
  1
STANDARD
  9
$DIMLUNIT
 70
    2
  9
$DIMLWD
 70
   -2
  9
$DIMLWE
 70
   -2
  9
$DIMTMOVE
 70
    0
  9
$DIMFXL
 40
1
  9
$DIMFXLON
 70
    0
  9
$DIMJOGANG
 40
0.7854
  9
$DIMTFILL
 70
    0
  9
$DIMTFILLCLR
 70
    0
  9
$DIMARCSYM
 70
    0
  9
$DIMLTYPE
  6

  9
$DIMLTEX1
  6

  9
$DIMLTEX2
  6

  9
$LUNITS
 70
    2
  9
$LUPREC
 70
    4
  9
$SKETCHINC
 40
1
  9
$FILLETRAD
 40
0
  9
$AUNITS
 70
    0
  9
$AUPREC
 70
    2
  9
$MENU
  1
.
  9
$ELEVATION
 40
0
  9
$PELEVATION
 40
0
  9
$THICKNESS
 40
0
  9
$LIMCHECK
 70
    0
  9
$CHAMFERA
 40
0
  9
$CHAMFERB
 40
0
  9
$CHAMFERC
 40
0
  9
$CHAMFERD
 40
0
  9
$SKPOLY
 70
    0
  9
$USRTIMER
 70
    1
  9
$ANGBASE
 50
0
  9
$ANGDIR
 70
    0
  9
$PDMODE
 70
   34
  9
$PDSIZE
 40
0
  9
$PLINEWID
 40
0
  9
$SPLFRAME
 70
    0
  9
$SPLINETYPE
 70
    2
  9
$SPLINESEGS
 70
    8
  9
$HANDSEED
  5
20000
  9
$SURFTAB1
 70
    6
  9
$SURFTAB2
 70
    6
  9
$SURFTYPE
 70
    6
  9
$SURFU
 70
    6
  9
$SURFV
 70
    6
  9
$UCSBASE
  2

  9
$UCSNAME
  2

  9
$UCSORG
 10
0
 20
0
 30
0
  9
$UCSXDIR
 10
1
 20
0
 30
0
  9
$UCSYDIR
 10
0
 20
1
 30
0
  9
$UCSORTHOREF
  2

  9
$UCSORTHOVIEW
 70
    0
  9
$UCSORGTOP
 10
0
 20
0
 30
0
  9
$UCSORGBOTTOM
 10
0
 20
0
 30
0
  9
$UCSORGLEFT
 10
0
 20
0
 30
0
  9
$UCSORGRIGHT
 10
0
 20
0
 30
0
  9
$UCSORGFRONT
 10
0
 20
0
 30
0
  9
$UCSORGBACK
 10
0
 20
0
 30
0
  9
$PUCSBASE
  2

  9
$PUCSNAME
  2

  9
$PUCSORG
 10
0
 20
0
 30
0
  9
$PUCSXDIR
 10
1
 20
0
 30
0
  9
$PUCSYDIR
 10
0
 20
1
 30
0
  9
$PUCSORTHOREF
  2

  9
$PUCSORTHOVIEW
 70
    0
  9
$PUCSORGTOP
 10
0
 20
0
 30
0
  9
$PUCSORGBOTTOM
 10
0
 20
0
 30
0
  9
$PUCSORGLEFT
 10
0
 20
0
 30
0
  9
$PUCSORGRIGHT
 10
0
 20
0
 30
0
  9
$PUCSORGFRONT
 10
0
 20
0
 30
0
  9
$PUCSORGBACK
 10
0
 20
0
 30
0
  9
$USERI1
 70
    0
  9
$USERI2
 70
    0
  9
$USERI3
 70
    0
  9
$USERI4
 70
    0
  9
$USERI5
 70
    0
  9
$USERR1
 40
0
  9
$USERR2
 40
0
  9
$USERR3
 40
0
  9
$USERR4
 40
0
  9
$USERR5
 40
0
  9
$WORLDVIEW
 70
    1
  9
$SHADEDGE
 70
    3
  9
$SHADEDIF
 70
   70
  9
$TILEMODE
 70
    1
  9
$MAXACTVP
 70
   64
  9
$PINSBASE
 10
0
 20
0
 30
0
  9
$PLIMCHECK
 70
    0
  9
$PEXTMIN
 10
0
 20
0
 30
0
  9
$PEXTMAX
 10
0
 20
0
 30
0
  9
$GRIDMODE
 70
    1
  9
$SNAPSTYLE
 70
    0
  9
$GRIDUNIT
 10
0
 20
0
  9
$PLIMMIN
 10
0
 20
0
  9
$PLIMMAX
 10
297
 20
210
  9
$UNITMODE
 70
    0
  9
$VISRETAIN
 70
    1
  9
$PLINEGEN
 70
    0
  9
$PSLTSCALE
 70
    1
  9
$TREEDEPTH
 70
 3020
  9
$CMLSTYLE
  2
Standard
  9
$CMLJUST
 70
    0
  9
$CMLSCALE
 40
20
  9
$PROXYGRAPHICS
 70
    1
  9
$MEASUREMENT
 70
    1
  9
$CELWEIGHT
370
   -1
  9
$ENDCAPS
280
    0
  9
$JOINSTYLE
280
    0
  9
$LWDISPLAY
290
    0
  9
$INSUNITS
 70
    0
  9
$HYPERLINKBASE
  1

  9
$STYLESHEET
  1

  9
$XEDIT
290
    1
  9
$CEPSNTYPE
380
    0
  9
$PSTYLEMODE
290
    1
  9
$EXTNAMES
290
    1
  9
$PSVPSCALE
 40
0
  9
$OLESTARTUP
290
    0
  9
$SORTENTS
280
  127
  9
$INDEXCTL
280
    0
  9
$HIDETEXT
280
    1
  9
$XCLIPFRAME
290
    0
  9
$HALOGAP
280
    0
  9
$OBSCOLOR
 70
  257
  9
$OBSLTYPE
280
    0
  9
$INTERSECTIONDISPLAY
280
    0
  9
$INTERSECTIONCOLOR
 70
  257
  9
$DIMASSOC
280
    1
  9
$PROJECTNAME
  1

  9
$CAMERADISPLAY
290
    0
  9
$LENSLENGTH
 40
50
  9
$CAMERAHEIGHT
 40
0
  9
$STEPSPERSEC
 40
2
  9
$STEPSIZE
 40
50
  9
$3DDWFPREC
 40
2
  9
$PSOLWIDTH
 40
5
  9
$PSOLHEIGHT
 40
80
  9
$LOFTANG1
 40
1.570796326794897
  9
$LOFTANG2
 40
1.570796326794897
  9
$LOFTMAG1
 40
0
  9
$LOFTMAG2
 40
0
  9
$LOFTPARAM
 70
    7
  9
$LOFTNORMALS
280
    1
  9
$LATITUDE
 40
1
  9
$LONGITUDE
 40
1
  9
$NORTHDIRECTION
 40
0
  9
$TIMEZONE
 70
-8000
  9
$LIGHTGLYPHDISPLAY
280
    1
  9
$TILEMODELIGHTSYNCH
280
    1
  9
$SOLIDHIST
280
    1
  9
$SHOWHIST
280
    1
  9
$DWFFRAME
280
    2
  9
$DGNFRAME
280
    0
  9
$REALWORLDSCALE
290
    1
  9
$INTERFERECOLOR
 62
    1
  9
$CSHADOW
280
    0
  9
$SHADOWPLANELOCATION
 40
0
  0
ENDSEC
  0
SECTION
  2
CLASSES
  0
ENDSEC
  0
SECTION
  2
TABLES
  0
TABLE
  2
VPORT
  5
8
330
0
100
AcDbSymbolTable
 70
    1
  0
VPORT
  5
31
330
2
100
AcDbSymbolTableRecord
100
AcDbViewportTableRecord
  2
*ACTIVE
 70
    0
 10
0
 20
0
 11
1
 21
1
 12
1811.546636693813
 22
309.2501624165347
 13
0
 23
0
 14
10
 24
10
 15
10
 25
10
 16
0
 26
0
 36
1
 17
0
 27
0
 37
0
 40
2816.21721510286
 41
1.684503901895206
 42
50
 43
0
 44
0
 50
0
 51
0
 71
    0
 72
  100
 73
    1
 74
    3
 75
    0
 76
    1
 77
    0
 78
    0
281
    0
 65
    1
110
0
120
0
130
0
111
1
121
0
131
0
112
0
122
1
132
0
 79
    0
146
0
348
10020
 60
    7
 61
    5
292
1
282
    1
141
0
142
0
 63
  250
421
3358443
  0
ENDTAB
  0
TABLE
  2
LTYPE
  5
5
330
0
100
AcDbSymbolTable
 70
    4
  0
LTYPE
  5
14
330
5
100
AcDbSymbolTableRecord
100
AcDbLinetypeTableRecord
  2
ByBlock
 70
    0
  3

 72
   65
 73
    0
 40
0
  0
LTYPE
  5
15
330
5
100
AcDbSymbolTableRecord
100
AcDbLinetypeTableRecord
  2
ByLayer
 70
    0
  3

 72
   65
 73
    0
 40
0
  0
LTYPE
  5
16
330
5
100
AcDbSymbolTableRecord
100
AcDbLinetypeTableRecord
  2
Continuous
 70
    0
  3
Solid line
 72
   65
 73
    0
 40
0
  0
LTYPE
  5
32
330
5
100
AcDbSymbolTableRecord
100
AcDbLinetypeTableRecord
  2
DOT
 70
    0
  3
Dot . . . . . . . . . . . . . . . . . . . . . .
 72
   65
 73
    2
 40
6.35
 49
0
 74
    0
 49
-6.35
 74
    0
  0
LTYPE
  5
33
330
5
100
AcDbSymbolTableRecord
100
AcDbLinetypeTableRecord
  2
DOTTINY
 70
    0
  3
Dot (.15x) .....................................
 72
   65
 73
    2
 40
0.9525
 49
0
 74
    0
 49
-0.9525
 74
    0
  0
LTYPE
  5
34
330
5
100
AcDbSymbolTableRecord
100
AcDbLinetypeTableRecord
  2
DOT2
 70
    0
  3
Dot (.5x) .....................................
 72
   65
 73
    2
 40
3.175
 49
0
 74
    0
 49
-3.175
 74
    0
  0
LTYPE
  5
35
330
5
100
AcDbSymbolTableRecord
100
AcDbLinetypeTableRecord
  2
DOTX2
 70
    0
  3
Dot (2x) .  .  .  .  .  .  .  .  .  .  .  .  .
 72
   65
 73
    2
 40
12.7
 49
0
 74
    0
 49
-12.7
 74
    0
  0
LTYPE
  5
36
330
5
100
AcDbSymbolTableRecord
100
AcDbLinetypeTableRecord
  2
DASHED
 70
    0
  3
Dashed _ _ _ _ _ _ _ _ _ _ _ _ _ _ _ _ _
 72
   65
 73
    2
 40
19.05
 49
12.7
 74
    0
 49
-6.35
 74
    0
  0
LTYPE
  5
37
330
5
100
AcDbSymbolTableRecord
100
AcDbLinetypeTableRecord
  2
DASHEDTINY
 70
    0
  3
Dashed (.15x) _ _ _ _ _ _ _ _ _ _ _ _ _ _ _ _ _
 72
   65
 73
    2
 40
2.8575
 49
1.905
 74
    0
 49
-0.9525
 74
    0
  0
LTYPE
  5
38
330
5
100
AcDbSymbolTableRecord
100
AcDbLinetypeTableRecord
  2
DASHED2
 70
    0
  3
Dashed (.5x) _ _ _ _ _ _ _ _ _ _ _ _ _ _ _ _ _
 72
   65
 73
    2
 40
9.524999999999999
 49
6.35
 74
    0
 49
-3.175
 74
    0
  0
LTYPE
  5
39
330
5
100
AcDbSymbolTableRecord
100
AcDbLinetypeTableRecord
  2
DASHEDX2
 70
    0
  3
Dashed (2x) ____  ____  ____  ____  ____  ___
 72
   65
 73
    2
 40
38.09999999999999
 49
25.4
 74
    0
 49
-12.7
 74
    0
  0
LTYPE
  5
3A
330
5
100
AcDbSymbolTableRecord
100
AcDbLinetypeTableRecord
  2
DASHDOT
 70
    0
  3
Dash dot __ . __ . __ . __ . __ . __ . __ . __
 72
   65
 73
    4
 40
25.4
 49
12.7
 74
    0
 49
-6.35
 74
    0
 49
0
 74
    0
 49
-6.35
 74
    0
  0
LTYPE
  5
3B
330
5
100
AcDbSymbolTableRecord
100
AcDbLinetypeTableRecord
  2
DASHDOTTINY
 70
    0
  3
Dash dot (.15x) _._._._._._._._._._._._._._._.
 72
   65
 73
    4
 40
3.81
 49
1.905
 74
    0
 49
-0.9525
 74
    0
 49
0
 74
    0
 49
-0.9525
 74
    0
  0
LTYPE
  5
3C
330
5
100
AcDbSymbolTableRecord
100
AcDbLinetypeTableRecord
  2
DASHDOT2
 70
    0
  3
Dash dot (.5x) _._._._._._._._._._._._._._._.
 72
   65
 73
    4
 40
12.7
 49
6.35
 74
    0
 49
-3.175
 74
    0
 49
0
 74
    0
 49
-3.175
 74
    0
  0
LTYPE
  5
3D
330
5
100
AcDbSymbolTableRecord
100
AcDbLinetypeTableRecord
  2
DASHDOTX2
 70
    0
  3
Dash dot (2x) ____  .  ____  .  ____  .  ___
 72
   65
 73
    4
 40
50.8
 49
25.4
 74
    0
 49
-12.7
 74
    0
 49
0
 74
    0
 49
-12.7
 74
    0
  0
LTYPE
  5
3E
330
5
100
AcDbSymbolTableRecord
100
AcDbLinetypeTableRecord
  2
DIVIDE
 70
    0
  3
Divide ____ . . ____ . . ____ . . ____ . . ____
 72
   65
 73
    6
 40
31.75
 49
12.7
 74
    0
 49
-6.35
 74
    0
 49
0
 74
    0
 49
-6.35
 74
    0
 49
0
 74
    0
 49
-6.35
 74
    0
  0
LTYPE
  5
3F
330
5
100
AcDbSymbolTableRecord
100
AcDbLinetypeTableRecord
  2
DIVIDETINY
 70
    0
  3
Divide (.15x) __..__..__..__..__..__..__..__.._
 72
   65
 73
    6
 40
4.7625
 49
1.905
 74
    0
 49
-0.9525
 74
    0
 49
0
 74
    0
 49
-0.9525
 74
    0
 49
0
 74
    0
 49
-0.9525
 74
    0
  0
LTYPE
  5
40
330
5
100
AcDbSymbolTableRecord
100
AcDbLinetypeTableRecord
  2
DIVIDE2
 70
    0
  3
Divide (.5x) __..__..__..__..__..__..__..__.._
 72
   65
 73
    6
 40
15.875
 49
6.35
 74
    0
 49
-3.175
 74
    0
 49
0
 74
    0
 49
-3.175
 74
    0
 49
0
 74
    0
 49
-3.175
 74
    0
  0
LTYPE
  5
41
330
5
100
AcDbSymbolTableRecord
100
AcDbLinetypeTableRecord
  2
DIVIDEX2
 70
    0
  3
Divide (2x) ________  .  .  ________  .  .  _
 72
   65
 73
    6
 40
63.5
 49
25.4
 74
    0
 49
-12.7
 74
    0
 49
0
 74
    0
 49
-12.7
 74
    0
 49
0
 74
    0
 49
-12.7
 74
    0
  0
LTYPE
  5
42
330
5
100
AcDbSymbolTableRecord
100
AcDbLinetypeTableRecord
  2
BORDER
 70
    0
  3
Border __ __ . __ __ . __ __ . __ __ . __ __ .
 72
   65
 73
    6
 40
44.45
 49
12.7
 74
    0
 49
-6.35
 74
    0
 49
12.7
 74
    0
 49
-6.35
 74
    0
 49
0
 74
    0
 49
-6.35
 74
    0
  0
LTYPE
  5
43
330
5
100
AcDbSymbolTableRecord
100
AcDbLinetypeTableRecord
  2
BORDERTINY
 70
    0
  3
Border (.15x) __.__.__.__.__.__.__.__.__.__.__.
 72
   65
 73
    6
 40
6.6675
 49
1.905
 74
    0
 49
-0.9525
 74
    0
 49
1.905
 74
    0
 49
-0.9525
 74
    0
 49
0
 74
    0
 49
-0.9525
 74
    0
  0
LTYPE
  5
44
330
5
100
AcDbSymbolTableRecord
100
AcDbLinetypeTableRecord
  2
BORDER2
 70
    0
  3
Border (.5x) __.__.__.__.__.__.__.__.__.__.__.
 72
   65
 73
    6
 40
22.225
 49
6.35
 74
    0
 49
-3.175
 74
    0
 49
6.35
 74
    0
 49
-3.175
 74
    0
 49
0
 74
    0
 49
-3.175
 74
    0
  0
LTYPE
  5
45
330
5
100
AcDbSymbolTableRecord
100
AcDbLinetypeTableRecord
  2
BORDERX2
 70
    0
  3
Border (2x) ____  ____  .  ____  ____  .  ___
 72
   65
 73
    6
 40
88.89999999999999
 49
25.4
 74
    0
 49
-12.7
 74
    0
 49
25.4
 74
    0
 49
-12.7
 74
    0
 49
0
 74
    0
 49
-12.7
 74
    0
  0
LTYPE
  5
46
330
5
100
AcDbSymbolTableRecord
100
AcDbLinetypeTableRecord
  2
CENTER
 70
    0
  3
Center ____ _ ____ _ ____ _ ____ _ ____ _ ____
 72
   65
 73
    4
 40
50.8
 49
31.75
 74
    0
 49
-6.35
 74
    0
 49
6.35
 74
    0
 49
-6.35
 74
    0
  0
LTYPE
  5
47
330
5
100
AcDbSymbolTableRecord
100
AcDbLinetypeTableRecord
  2
CENTERTINY
 70
    0
  3
Center (.15x) ___ _ ___ _ ___ _ ___ _ ___ _ ___
 72
   65
 73
    4
 40
7.619999999999999
 49
4.7625
 74
    0
 49
-0.9525
 74
    0
 49
0.9525
 74
    0
 49
-0.9525
 74
    0
  0
LTYPE
  5
48
330
5
100
AcDbSymbolTableRecord
100
AcDbLinetypeTableRecord
  2
CENTER2
 70
    0
  3
Center (.5x) ___ _ ___ _ ___ _ ___ _ ___ _ ___
 72
   65
 73
    4
 40
28.575
 49
19.05
 74
    0
 49
-3.175
 74
    0
 49
3.175
 74
    0
 49
-3.175
 74
    0
  0
LTYPE
  5
49
330
5
100
AcDbSymbolTableRecord
100
AcDbLinetypeTableRecord
  2
CENTERX2
 70
    0
  3
Center (2x) ________  __  ________  __  _____
 72
   65
 73
    4
 40
101.6
 49
63.5
 74
    0
 49
-12.7
 74
    0
 49
12.7
 74
    0
 49
-12.7
 74
    0
  0
ENDTAB
  0
TABLE
  2
LAYER
  5
2
330
0
100
AcDbSymbolTable
 70
    1
  0
LAYER
  5
10
330
2
100
AcDbSymbolTableRecord
100
AcDbLayerTableRecord
  2
0
 70
    0
 62
    7
  6
CONTINUOUS
370
   35
390
F
  0
LAYER
  5
4A
330
2
100
AcDbSymbolTableRecord
100
AcDbLayerTableRecord
  2
wymniary
 70
    0
 62
    1
  6
CONTINUOUS
370
    0
390
F
  0
ENDTAB
  0
TABLE
  2
STYLE
  5
3
330
0
100
AcDbSymbolTable
 70
    3
  0
STYLE
  5
4B
330
2
100
AcDbSymbolTableRecord
100
AcDbTextStyleTableRecord
  2
standard
 70
    0
 40
0
 41
1
 50
0
 71
    0
 42
1
  3
standard
  4

  0
ENDTAB
  0
TABLE
  2
VIEW
  5
6
330
0
100
AcDbSymbolTable
 70
    0
  0
ENDTAB
  0
TABLE
  2
UCS
  5
7
330
0
100
AcDbSymbolTable
 70
    0
  0
ENDTAB
  0
TABLE
  2
APPID
  5
9
330
0
100
AcDbSymbolTable
 70
    1
  0
APPID
  5
12
330
9
100
AcDbSymbolTableRecord
100
AcDbRegAppTableRecord
  2
ACAD
 70
    0
  0
APPID
  5
4C
330
9
100
AcDbSymbolTableRecord
100
AcDbRegAppTableRecord
  2
LibreCad
 70
    0
  0
ENDTAB
  0
TABLE
  2
DIMSTYLE
  5
A
330
0
100
AcDbSymbolTable
 70
    1
100
AcDbDimStyleTable
 71
    1
  0
DIMSTYLE
105
4D
330
A
100
AcDbSymbolTableRecord
100
AcDbDimStyleTableRecord
  2
Standard
 70
    0
 40
1
 41
10
 42
0.0625
 43
0.38
 44
0.125
 45
0
 46
0
 47
0
 48
0
 49
1
140
10
141
0.09
142
0
143
25.4
144
1
145
0
146
1
147
2
148
0
 71
    0
 72
    0
 73
    0
 74
    1
 75
    0
 76
    0
 77
    0
 78
    8
 79
    0
170
    0
171
    2
172
    0
173
    0
174
    0
175
    0
176
    0
177
    0
178
    0
179
    2
271
    4
272
    4
273
    2
274
    2
275
    0
276
    0
277
    2
278
    0
279
    0
280
    0
281
    0
282
    0
283
    1
284
    0
285
    0
286
    0
288
    0
289
    3
340
standard
341

371
   -2
372
   -2
  0
ENDTAB
  0
TABLE
  2
BLOCK_RECORD
  5
1
330
0
100
AcDbSymbolTable
 70
    2
  0
BLOCK_RECORD
  5
1F
330
1
100
AcDbSymbolTableRecord
100
AcDbBlockTableRecord
  2
*Model_Space
 70
    0
280
    1
281
    0
  0
BLOCK_RECORD
  5
1E
330
1
100
AcDbSymbolTableRecord
100
AcDbBlockTableRecord
  2
*Paper_Space
 70
    0
280
    1
281
    0
  0
BLOCK_RECORD
  5
4E
330
1
100
AcDbSymbolTableRecord
100
AcDbBlockTableRecord
  2
*D10
 70
    0
280
    1
281
    0
  0
BLOCK_RECORD
  5
51
330
1
100
AcDbSymbolTableRecord
100
AcDbBlockTableRecord
  2
*D6
 70
    0
280
    1
281
    0
  0
BLOCK_RECORD
  5
54
330
1
100
AcDbSymbolTableRecord
100
AcDbBlockTableRecord
  2
*D7
 70
    0
280
    1
281
    0
  0
BLOCK_RECORD
  5
57
330
1
100
AcDbSymbolTableRecord
100
AcDbBlockTableRecord
  2
*D12
 70
    0
280
    1
281
    0
  0
BLOCK_RECORD
  5
5A
330
1
100
AcDbSymbolTableRecord
100
AcDbBlockTableRecord
  2
*D35
 70
    0
280
    1
281
    0
  0
BLOCK_RECORD
  5
5D
330
1
100
AcDbSymbolTableRecord
100
AcDbBlockTableRecord
  2
*D31
 70
    0
280
    1
281
    0
  0
BLOCK_RECORD
  5
60
330
1
100
AcDbSymbolTableRecord
100
AcDbBlockTableRecord
  2
*D21
 70
    0
280
    1
281
    0
  0
BLOCK_RECORD
  5
63
330
1
100
AcDbSymbolTableRecord
100
AcDbBlockTableRecord
  2
*D34
 70
    0
280
    1
281
    0
  0
BLOCK_RECORD
  5
66
330
1
100
AcDbSymbolTableRecord
100
AcDbBlockTableRecord
  2
*D44
 70
    0
280
    1
281
    0
  0
BLOCK_RECORD
  5
69
330
1
100
AcDbSymbolTableRecord
100
AcDbBlockTableRecord
  2
*D26
 70
    0
280
    1
281
    0
  0
BLOCK_RECORD
  5
6C
330
1
100
AcDbSymbolTableRecord
100
AcDbBlockTableRecord
  2
*D23
 70
    0
280
    1
281
    0
  0
BLOCK_RECORD
  5
6F
330
1
100
AcDbSymbolTableRecord
100
AcDbBlockTableRecord
  2
*D2
 70
    0
280
    1
281
    0
  0
BLOCK_RECORD
  5
72
330
1
100
AcDbSymbolTableRecord
100
AcDbBlockTableRecord
  2
*D11
 70
    0
280
    1
281
    0
  0
BLOCK_RECORD
  5
75
330
1
100
AcDbSymbolTableRecord
100
AcDbBlockTableRecord
  2
*D39
 70
    0
280
    1
281
    0
  0
BLOCK_RECORD
  5
78
330
1
100
AcDbSymbolTableRecord
100
AcDbBlockTableRecord
  2
*D4
 70
    0
280
    1
281
    0
  0
BLOCK_RECORD
  5
7B
330
1
100
AcDbSymbolTableRecord
100
AcDbBlockTableRecord
  2
*D20
 70
    0
280
    1
281
    0
  0
BLOCK_RECORD
  5
7E
330
1
100
AcDbSymbolTableRecord
100
AcDbBlockTableRecord
  2
*D3
 70
    0
280
    1
281
    0
  0
BLOCK_RECORD
  5
81
330
1
100
AcDbSymbolTableRecord
100
AcDbBlockTableRecord
  2
*D40
 70
    0
280
    1
281
    0
  0
BLOCK_RECORD
  5
84
330
1
100
AcDbSymbolTableRecord
100
AcDbBlockTableRecord
  2
*D16
 70
    0
280
    1
281
    0
  0
BLOCK_RECORD
  5
87
330
1
100
AcDbSymbolTableRecord
100
AcDbBlockTableRecord
  2
*D13
 70
    0
280
    1
281
    0
  0
BLOCK_RECORD
  5
8A
330
1
100
AcDbSymbolTableRecord
100
AcDbBlockTableRecord
  2
*D18
 70
    0
280
    1
281
    0
  0
BLOCK_RECORD
  5
8D
330
1
100
AcDbSymbolTableRecord
100
AcDbBlockTableRecord
  2
*D43
 70
    0
280
    1
281
    0
  0
BLOCK_RECORD
  5
90
330
1
100
AcDbSymbolTableRecord
100
AcDbBlockTableRecord
  2
*D45
 70
    0
280
    1
281
    0
  0
BLOCK_RECORD
  5
93
330
1
100
AcDbSymbolTableRecord
100
AcDbBlockTableRecord
  2
*D17
 70
    0
280
    1
281
    0
  0
BLOCK_RECORD
  5
96
330
1
100
AcDbSymbolTableRecord
100
AcDbBlockTableRecord
  2
*D30
 70
    0
280
    1
281
    0
  0
BLOCK_RECORD
  5
99
330
1
100
AcDbSymbolTableRecord
100
AcDbBlockTableRecord
  2
*D32
 70
    0
280
    1
281
    0
  0
BLOCK_RECORD
  5
9C
330
1
100
AcDbSymbolTableRecord
100
AcDbBlockTableRecord
  2
*D25
 70
    0
280
    1
281
    0
  0
BLOCK_RECORD
  5
9F
330
1
100
AcDbSymbolTableRecord
100
AcDbBlockTableRecord
  2
*D15
 70
    0
280
    1
281
    0
  0
BLOCK_RECORD
  5
A2
330
1
100
AcDbSymbolTableRecord
100
AcDbBlockTableRecord
  2
*D9
 70
    0
280
    1
281
    0
  0
BLOCK_RECORD
  5
A5
330
1
100
AcDbSymbolTableRecord
100
AcDbBlockTableRecord
  2
*D5
 70
    0
280
    1
281
    0
  0
BLOCK_RECORD
  5
A8
330
1
100
AcDbSymbolTableRecord
100
AcDbBlockTableRecord
  2
*D8
 70
    0
280
    1
281
    0
  0
BLOCK_RECORD
  5
AB
330
1
100
AcDbSymbolTableRecord
100
AcDbBlockTableRecord
  2
*D22
 70
    0
280
    1
281
    0
  0
BLOCK_RECORD
  5
AE
330
1
100
AcDbSymbolTableRecord
100
AcDbBlockTableRecord
  2
*D27
 70
    0
280
    1
281
    0
  0
BLOCK_RECORD
  5
B1
330
1
100
AcDbSymbolTableRecord
100
AcDbBlockTableRecord
  2
*D38
 70
    0
280
    1
281
    0
  0
BLOCK_RECORD
  5
B4
330
1
100
AcDbSymbolTableRecord
100
AcDbBlockTableRecord
  2
*D1
 70
    0
280
    1
281
    0
  0
BLOCK_RECORD
  5
B7
330
1
100
AcDbSymbolTableRecord
100
AcDbBlockTableRecord
  2
*D33
 70
    0
280
    1
281
    0
  0
BLOCK_RECORD
  5
BA
330
1
100
AcDbSymbolTableRecord
100
AcDbBlockTableRecord
  2
*D29
 70
    0
280
    1
281
    0
  0
BLOCK_RECORD
  5
BD
330
1
100
AcDbSymbolTableRecord
100
AcDbBlockTableRecord
  2
*D14
 70
    0
280
    1
281
    0
  0
BLOCK_RECORD
  5
C0
330
1
100
AcDbSymbolTableRecord
100
AcDbBlockTableRecord
  2
*D41
 70
    0
280
    1
281
    0
  0
BLOCK_RECORD
  5
C3
330
1
100
AcDbSymbolTableRecord
100
AcDbBlockTableRecord
  2
*D19
 70
    0
280
    1
281
    0
  0
BLOCK_RECORD
  5
C6
330
1
100
AcDbSymbolTableRecord
100
AcDbBlockTableRecord
  2
*D24
 70
    0
280
    1
281
    0
  0
BLOCK_RECORD
  5
C9
330
1
100
AcDbSymbolTableRecord
100
AcDbBlockTableRecord
  2
*D36
 70
    0
280
    1
281
    0
  0
BLOCK_RECORD
  5
CC
330
1
100
AcDbSymbolTableRecord
100
AcDbBlockTableRecord
  2
*D28
 70
    0
280
    1
281
    0
  0
BLOCK_RECORD
  5
CF
330
1
100
AcDbSymbolTableRecord
100
AcDbBlockTableRecord
  2
*D42
 70
    0
280
    1
281
    0
  0
BLOCK_RECORD
  5
D2
330
1
100
AcDbSymbolTableRecord
100
AcDbBlockTableRecord
  2
*D37
 70
    0
280
    1
281
    0
  0
ENDTAB
  0
ENDSEC
  0
SECTION
  2
BLOCKS
  0
BLOCK
  5
20
330
1F
100
AcDbEntity
  8
0
100
AcDbBlockBegin
  2
*Model_Space
 70
    0
 10
0
 20
0
 30
0
  3
*Model_Space
  1

  0
ENDBLK
  5
21
330
1F
100
AcDbEntity
  8
0
100
AcDbBlockEnd
  0
BLOCK
  5
1C
330
1B
100
AcDbEntity
  8
0
100
AcDbBlockBegin
  2
*Paper_Space
 70
    0
 10
0
 20
0
 30
0
  3
*Paper_Space
  1

  0
ENDBLK
  5
1D
330
1F
100
AcDbEntity
  8
0
100
AcDbBlockEnd
  0
BLOCK
  5
4F
330
4E
100
AcDbEntity
  8
0
100
AcDbBlockBegin
  2
*D10
 70
    1
 10
0
 20
0
  3
*D10
  1

  0
LINE
  5
D5
100
AcDbEntity
  8
0
  6
ByBlock
 62
    0
370
   -2
100
AcDbLine
 10
2170
 20
-472.5
 11
2170
 21
-400
  0
SOLID
  5
D6
100
AcDbEntity
  8
0
  6
ByBlock
 62
    0
370
   -2
100
AcDbTrace
 10
2170
 20
-472.5
 30
0
 11
2168.334861368909
 21
-462.5
 31
0
 12
2171.665138631091
 22
-462.5
 32
0
 13
2171.665138631091
 23
-462.5
 33
0
  0
SOLID
  5
D7
100
AcDbEntity
  8
0
  6
ByBlock
 62
    0
370
   -2
100
AcDbTrace
 10
2170
 20
-400
 30
0
 11
2171.665138631091
 21
-410
 31
0
 12
2168.334861368909
 22
-410
 32
0
 13
2168.334861368909
 23
-410
 33
0
  0
MTEXT
  5
D8
100
AcDbEntity
  8
0
  6
CONTINUOUS
 62
    0
370
   -2
100
AcDbMText
 10
2163
 20
-436.25
 30
0
 40
10
 41
23.33333333333395
 71
    5
 72
    1
  1
72.5
  7
standard
210
0
220
0
230
1
 50
90
 73
    2
 44
1
  0
LINE
  5
D9
100
AcDbEntity
  8
0
  6
ByBlock
 62
    0
370
   -2
100
AcDbLine
 10
2199.9375
 20
-472.5
 11
2169.875
 21
-472.5
  0
LINE
  5
DA
100
AcDbEntity
  8
0
  6
ByBlock
 62
    0
370
   -2
100
AcDbLine
 10
2199.9375
 20
-400
 11
2169.875
 21
-400
  0
ENDBLK
  5
50
330
4E
100
AcDbEntity
  8
0
100
AcDbBlockEnd
  0
BLOCK
  5
52
330
51
100
AcDbEntity
  8
0
100
AcDbBlockBegin
  2
*D6
 70
    1
 10
0
 20
0
  3
*D6
  1

  0
LINE
  5
DB
100
AcDbEntity
  8
0
  6
ByBlock
 62
    0
370
   -2
100
AcDbLine
 10
1673.75
 20
-323.2499999999999
 11
1572.250000000003
 21
-323.2499999999999
  0
SOLID
  5
DC
100
AcDbEntity
  8
0
  6
ByBlock
 62
    0
370
   -2
100
AcDbTrace
 10
1673.75
 20
-323.2499999999999
 30
0
 11
1663.75
 21
-324.9151386310912
 31
0
 12
1663.75
 22
-321.5848613689085
 32
0
 13
1663.75
 23
-321.5848613689085
 33
0
  0
SOLID
  5
DD
100
AcDbEntity
  8
0
  6
ByBlock
 62
    0
370
   -2
100
AcDbTrace
 10
1572.250000000003
 20
-323.2499999999999
 30
0
 11
1582.250000000003
 21
-321.5848613689085
 31
0
 12
1582.250000000003
 22
-324.9151386310912
 32
0
 13
1582.250000000003
 23
-324.9151386310912
 33
0
  0
MTEXT
  5
DE
100
AcDbEntity
  8
0
  6
CONTINUOUS
 62
    0
370
   -2
100
AcDbMText
 10
1623.000000000001
 20
-316.2499999999999
 30
0
 40
10
 41
26.66666666666729
 71
    5
 72
    1
  1
101.5
  7
standard
210
0
220
0
230
1
 50
360
 73
    2
 44
1
  0
LINE
  5
DF
100
AcDbEntity
  8
0
  6
ByBlock
 62
    0
370
   -2
100
AcDbLine
 10
1673.75
 20
-323.1875
 11
1673.75
 21
-323.1249999999999
  0
LINE
  5
E0
100
AcDbEntity
  8
0
  6
ByBlock
 62
    0
370
   -2
100
AcDbLine
 10
1572.250000000003
 20
-323.1874999999999
 11
1572.250000000003
 21
-323.1249999999999
  0
ENDBLK
  5
53
330
51
100
AcDbEntity
  8
0
100
AcDbBlockEnd
  0
BLOCK
  5
55
330
54
100
AcDbEntity
  8
0
100
AcDbBlockBegin
  2
*D7
 70
    1
 10
0
 20
0
  3
*D7
  1

  0
LINE
  5
E1
100
AcDbEntity
  8
0
  6
ByBlock
 62
    0
370
   -2
100
AcDbLine
 10
1673.75
 20
-323.25
 11
1673.75
 21
-244.749999999999
  0
SOLID
  5
E2
100
AcDbEntity
  8
0
  6
ByBlock
 62
    0
370
   -2
100
AcDbTrace
 10
1673.75
 20
-323.25
 30
0
 11
1672.084861368909
 21
-313.25
 31
0
 12
1675.415138631091
 22
-313.25
 32
0
 13
1675.415138631091
 23
-313.25
 33
0
  0
SOLID
  5
E3
100
AcDbEntity
  8
0
  6
ByBlock
 62
    0
370
   -2
100
AcDbTrace
 10
1673.75
 20
-244.749999999999
 30
0
 11
1675.415138631091
 21
-254.749999999999
 31
0
 12
1672.084861368909
 22
-254.749999999999
 32
0
 13
1672.084861368909
 23
-254.749999999999
 33
0
  0
MTEXT
  5
E4
100
AcDbEntity
  8
0
  6
CONTINUOUS
 62
    0
370
   -2
100
AcDbMText
 10
1666.75
 20
-283.9999999999995
 30
0
 40
10
 41
23.33333333333395
 71
    5
 72
    1
  1
78.5
  7
standard
210
0
220
0
230
1
 50
90
 73
    2
 44
1
  0
LINE
  5
E5
100
AcDbEntity
  8
0
  6
ByBlock
 62
    0
370
   -2
100
AcDbLine
 10
1673.6875
 20
-323.25
 11
1673.625
 21
-323.25
  0
LINE
  5
E6
100
AcDbEntity
  8
0
  6
ByBlock
 62
    0
370
   -2
100
AcDbLine
 10
1673.6875
 20
-244.749999999999
 11
1673.625
 21
-244.749999999999
  0
ENDBLK
  5
56
330
54
100
AcDbEntity
  8
0
100
AcDbBlockEnd
  0
BLOCK
  5
58
330
57
100
AcDbEntity
  8
0
100
AcDbBlockBegin
  2
*D12
 70
    1
 10
0
 20
0
  3
*D12
  1

  0
LINE
  5
E7
100
AcDbEntity
  8
0
  6
ByBlock
 62
    0
370
   -2
100
AcDbLine
 10
2380
 20
-780
 11
2380
 21
-400
  0
SOLID
  5
E8
100
AcDbEntity
  8
0
  6
ByBlock
 62
    0
370
   -2
100
AcDbTrace
 10
2380
 20
-780
 30
0
 11
2378.334861368909
 21
-770
 31
0
 12
2381.665138631091
 22
-770
 32
0
 13
2381.665138631091
 23
-770
 33
0
  0
SOLID
  5
E9
100
AcDbEntity
  8
0
  6
ByBlock
 62
    0
370
   -2
100
AcDbTrace
 10
2380
 20
-400
 30
0
 11
2381.665138631091
 21
-410
 31
0
 12
2378.334861368909
 22
-410
 32
0
 13
2378.334861368909
 23
-410
 33
0
  0
MTEXT
  5
EA
100
AcDbEntity
  8
0
  6
CONTINUOUS
 62
    0
370
   -2
100
AcDbMText
 10
2373
 20
-590
 30
0
 40
10
 41
20.00000000000062
 71
    5
 72
    1
  1
380
  7
standard
210
0
220
0
230
1
 50
90
 73
    2
 44
1
  0
LINE
  5
EB
100
AcDbEntity
  8
0
  6
ByBlock
 62
    0
370
   -2
100
AcDbLine
 10
2348.0625
 20
-780
 11
2380.125
 21
-780
  0
LINE
  5
EC
100
AcDbEntity
  8
0
  6
ByBlock
 62
    0
370
   -2
100
AcDbLine
 10
2348.0625
 20
-400
 11
2380.125
 21
-400
  0
ENDBLK
  5
59
330
57
100
AcDbEntity
  8
0
100
AcDbBlockEnd
  0
BLOCK
  5
5B
330
5A
100
AcDbEntity
  8
0
100
AcDbBlockBegin
  2
*D35
 70
    1
 10
0
 20
0
  3
*D35
  1

  0
LINE
  5
ED
100
AcDbEntity
  8
0
  6
ByBlock
 62
    0
370
   -2
100
AcDbLine
 10
1010
 20
-229.25
 11
1010
 21
-268.75
  0
SOLID
  5
EE
100
AcDbEntity
  8
0
  6
ByBlock
 62
    0
370
   -2
100
AcDbTrace
 10
1010
 20
-229.25
 30
0
 11
1011.665138631091
 21
-239.25
 31
0
 12
1008.334861368909
 22
-239.25
 32
0
 13
1008.334861368909
 23
-239.25
 33
0
  0
SOLID
  5
EF
100
AcDbEntity
  8
0
  6
ByBlock
 62
    0
370
   -2
100
AcDbTrace
 10
1010
 20
-268.75
 30
0
 11
1008.334861368909
 21
-258.75
 31
0
 12
1011.665138631091
 22
-258.75
 32
0
 13
1011.665138631091
 23
-258.75
 33
0
  0
MTEXT
  5
F0
100
AcDbEntity
  8
0
  6
CONTINUOUS
 62
    0
370
   -2
100
AcDbMText
 10
1003
 20
-249
 30
0
 40
10
 41
23.33333333333457
 71
    5
 72
    1
  1
39.5
  7
standard
210
0
220
0
230
1
 50
90
 73
    2
 44
1
  0
LINE
  5
F1
100
AcDbEntity
  8
0
  6
ByBlock
 62
    0
370
   -2
100
AcDbLine
 10
970.8125
 20
-229.25
 11
1010.125
 21
-229.25
  0
LINE
  5
F2
100
AcDbEntity
  8
0
  6
ByBlock
 62
    0
370
   -2
100
AcDbLine
 10
935.8125
 20
-268.75
 11
1010.125
 21
-268.75
  0
ENDBLK
  5
5C
330
5A
100
AcDbEntity
  8
0
100
AcDbBlockEnd
  0
BLOCK
  5
5E
330
5D
100
AcDbEntity
  8
0
100
AcDbBlockBegin
  2
*D31
 70
    1
 10
0
 20
0
  3
*D31
  1

  0
LINE
  5
F3
100
AcDbEntity
  8
0
  6
ByBlock
 62
    0
370
   -2
100
AcDbLine
 10
2036.17002448587
 20
186.75
 11
2036.17002448587
 21
-437.25
  0
SOLID
  5
F4
100
AcDbEntity
  8
0
  6
ByBlock
 62
    0
370
   -2
100
AcDbTrace
 10
2036.17002448587
 20
186.75
 30
0
 11
2037.835163116961
 21
176.75
 31
0
 12
2034.504885854779
 22
176.75
 32
0
 13
2034.504885854779
 23
176.75
 33
0
  0
SOLID
  5
F5
100
AcDbEntity
  8
0
  6
ByBlock
 62
    0
370
   -2
100
AcDbTrace
 10
2036.17002448587
 20
-437.25
 30
0
 11
2034.504885854779
 21
-427.25
 31
0
 12
2037.835163116961
 22
-427.25
 32
0
 13
2037.835163116961
 23
-427.25
 33
0
  0
MTEXT
  5
F6
100
AcDbEntity
  8
0
  6
CONTINUOUS
 62
    0
370
   -2
100
AcDbMText
 10
2029.17002448587
 20
-125.25
 30
0
 40
10
 41
21.11111111111173
 71
    5
 72
    1
  1
624
  7
standard
210
0
220
0
230
1
 50
90
 73
    2
 44
1
  0
LINE
  5
F7
100
AcDbEntity
  8
0
  6
ByBlock
 62
    0
370
   -2
100
AcDbLine
 10
1876.8125
 20
186.75
 11
2036.29502448587
 21
186.75
  0
LINE
  5
F8
100
AcDbEntity
  8
0
  6
ByBlock
 62
    0
370
   -2
100
AcDbLine
 10
1876.8125
 20
-437.25
 11
2036.29502448587
 21
-437.25
  0
ENDBLK
  5
5F
330
5D
100
AcDbEntity
  8
0
100
AcDbBlockEnd
  0
BLOCK
  5
61
330
60
100
AcDbEntity
  8
0
100
AcDbBlockBegin
  2
*D21
 70
    1
 10
0
 20
0
  3
*D21
  1

  0
LINE
  5
F9
100
AcDbEntity
  8
0
  6
ByBlock
 62
    0
370
   -2
100
AcDbLine
 10
2182
 20
40
 11
2292.500000000009
 21
40
  0
SOLID
  5
FA
100
AcDbEntity
  8
0
  6
ByBlock
 62
    0
370
   -2
100
AcDbTrace
 10
2182
 20
40
 30
0
 11
2192
 21
41.66513863109136
 31
0
 12
2192
 22
38.33486136890863
 32
0
 13
2192
 23
38.33486136890863
 33
0
  0
SOLID
  5
FB
100
AcDbEntity
  8
0
  6
ByBlock
 62
    0
370
   -2
100
AcDbTrace
 10
2292.500000000009
 20
40
 30
0
 11
2282.500000000009
 21
38.33486136890864
 31
0
 12
2282.500000000009
 22
41.66513863109136
 32
0
 13
2282.500000000009
 23
41.66513863109136
 33
0
  0
MTEXT
  5
FC
100
AcDbEntity
  8
0
  6
CONTINUOUS
 62
    0
370
   -2
100
AcDbMText
 10
2237.250000000005
 20
47
 30
0
 40
10
 41
26.66666666666729
 71
    5
 72
    1
  1
110.5
  7
standard
210
0
220
0
230
1
 50
0
 73
    2
 44
1
  0
LINE
  5
FD
100
AcDbEntity
  8
0
  6
ByBlock
 62
    0
370
   -2
100
AcDbLine
 10
2182
 20
18.0625
 11
2182
 21
40.125
  0
LINE
  5
FE
100
AcDbEntity
  8
0
  6
ByBlock
 62
    0
370
   -2
100
AcDbLine
 10
2292.500000000009
 20
18.0625
 11
2292.500000000009
 21
40.125
  0
ENDBLK
  5
62
330
60
100
AcDbEntity
  8
0
100
AcDbBlockEnd
  0
BLOCK
  5
64
330
63
100
AcDbEntity
  8
0
100
AcDbBlockBegin
  2
*D34
 70
    1
 10
0
 20
0
  3
*D34
  1

  0
LINE
  5
FF
100
AcDbEntity
  8
0
  6
ByBlock
 62
    0
370
   -2
100
AcDbLine
 10
900.75
 20
210
 11
1031.75
 21
210
  0
SOLID
  5
100
100
AcDbEntity
  8
0
  6
ByBlock
 62
    0
370
   -2
100
AcDbTrace
 10
900.75
 20
210
 30
0
 11
910.75
 21
211.6651386310914
 31
0
 12
910.75
 22
208.3348613689086
 32
0
 13
910.75
 23
208.3348613689086
 33
0
  0
SOLID
  5
101
100
AcDbEntity
  8
0
  6
ByBlock
 62
    0
370
   -2
100
AcDbTrace
 10
1031.75
 20
210
 30
0
 11
1021.75
 21
208.3348613689086
 31
0
 12
1021.75
 22
211.6651386310914
 32
0
 13
1021.75
 23
211.6651386310914
 33
0
  0
MTEXT
  5
102
100
AcDbEntity
  8
0
  6
CONTINUOUS
 62
    0
370
   -2
100
AcDbMText
 10
966.25
 20
217
 30
0
 40
10
 41
15.55555555555618
 71
    5
 72
    1
  1
131
  7
standard
210
0
220
0
230
1
 50
0
 73
    2
 44
1
  0
LINE
  5
103
100
AcDbEntity
  8
0
  6
ByBlock
 62
    0
370
   -2
100
AcDbLine
 10
900.75
 20
186.8125
 11
900.75
 21
210.125
  0
LINE
  5
104
100
AcDbEntity
  8
0
  6
ByBlock
 62
    0
370
   -2
100
AcDbLine
 10
1031.75
 20
186.8125
 11
1031.75
 21
210.125
  0
ENDBLK
  5
65
330
63
100
AcDbEntity
  8
0
100
AcDbBlockEnd
  0
BLOCK
  5
67
330
66
100
AcDbEntity
  8
0
100
AcDbBlockBegin
  2
*D44
 70
    1
 10
0
 20
0
  3
*D44
  1

  0
LINE
  5
105
100
AcDbEntity
  8
0
  6
ByBlock
 62
    0
370
   -2
100
AcDbLine
 10
740
 20
-1175.25
 11
740
 21
-924.51
  0
SOLID
  5
106
100
AcDbEntity
  8
0
  6
ByBlock
 62
    0
370
   -2
100
AcDbTrace
 10
740
 20
-1175.25
 30
0
 11
738.3348613689086
 21
-1165.25
 31
0
 12
741.6651386310914
 22
-1165.25
 32
0
 13
741.6651386310914
 23
-1165.25
 33
0
  0
SOLID
  5
107
100
AcDbEntity
  8
0
  6
ByBlock
 62
    0
370
   -2
100
AcDbTrace
 10
740
 20
-924.51
 30
0
 11
741.6651386310914
 21
-934.51
 31
0
 12
738.3348613689086
 22
-934.51
 32
0
 13
738.3348613689086
 23
-934.51
 33
0
  0
MTEXT
  5
108
100
AcDbEntity
  8
0
  6
CONTINUOUS
 62
    0
370
   -2
100
AcDbMText
 10
733
 20
-1049.88
 30
0
 40
10
 41
40.00000000000063
 71
    5
 72
    1
  1
250.74
  7
standard
210
0
220
0
230
1
 50
90
 73
    2
 44
1
  0
LINE
  5
109
100
AcDbEntity
  8
0
  6
ByBlock
 62
    0
370
   -2
100
AcDbLine
 10
900.6875
 20
-1175.25
 11
739.875
 21
-1175.25
  0
LINE
  5
10A
100
AcDbEntity
  8
0
  6
ByBlock
 62
    0
370
   -2
100
AcDbLine
 10
935.6875
 20
-924.51
 11
739.875
 21
-924.51
  0
ENDBLK
  5
68
330
66
100
AcDbEntity
  8
0
100
AcDbBlockEnd
  0
BLOCK
  5
6A
330
69
100
AcDbEntity
  8
0
100
AcDbBlockBegin
  2
*D26
 70
    1
 10
0
 20
0
  3
*D26
  1

  0
LINE
  5
10B
100
AcDbEntity
  8
0
  6
ByBlock
 62
    0
370
   -2
100
AcDbLine
 10
866.4633019786453
 20
-426.25
 11
866.4633019786453
 21
-451.25
  0
SOLID
  5
10C
100
AcDbEntity
  8
0
  6
ByBlock
 62
    0
370
   -2
100
AcDbTrace
 10
866.4633019786453
 20
-426.25
 30
0
 11
868.1284406097367
 21
-436.25
 31
0
 12
864.7981633475539
 22
-436.25
 32
0
 13
864.7981633475539
 23
-436.25
 33
0
  0
SOLID
  5
10D
100
AcDbEntity
  8
0
  6
ByBlock
 62
    0
370
   -2
100
AcDbTrace
 10
866.4633019786453
 20
-451.25
 30
0
 11
864.7981633475539
 21
-441.25
 31
0
 12
868.1284406097367
 22
-441.25
 32
0
 13
868.1284406097367
 23
-441.25
 33
0
  0
MTEXT
  5
10E
100
AcDbEntity
  8
0
  6
CONTINUOUS
 62
    0
370
   -2
100
AcDbMText
 10
859.4633019786453
 20
-438.75
 30
0
 40
10
 41
12.22222222222284
 71
    5
 72
    1
  1
25
  7
standard
210
0
220
0
230
1
 50
90
 73
    2
 44
1
  0
LINE
  5
10F
100
AcDbEntity
  8
0
  6
ByBlock
 62
    0
370
   -2
100
AcDbLine
 10
882.6875
 20
-426.25
 11
866.3383019786453
 21
-426.25
  0
LINE
  5
110
100
AcDbEntity
  8
0
  6
ByBlock
 62
    0
370
   -2
100
AcDbLine
 10
882.6875
 20
-451.25
 11
866.3383019786453
 21
-451.25
  0
ENDBLK
  5
6B
330
69
100
AcDbEntity
  8
0
100
AcDbBlockEnd
  0
BLOCK
  5
6D
330
6C
100
AcDbEntity
  8
0
100
AcDbBlockBegin
  2
*D23
 70
    1
 10
0
 20
0
  3
*D23
  1

  0
LINE
  5
111
100
AcDbEntity
  8
0
  6
ByBlock
 62
    0
370
   -2
100
AcDbLine
 10
850
 20
186.75
 11
850
 21
-220.25
  0
SOLID
  5
112
100
AcDbEntity
  8
0
  6
ByBlock
 62
    0
370
   -2
100
AcDbTrace
 10
850
 20
186.75
 30
0
 11
851.6651386310914
 21
176.75
 31
0
 12
848.3348613689086
 22
176.75
 32
0
 13
848.3348613689086
 23
176.75
 33
0
  0
SOLID
  5
113
100
AcDbEntity
  8
0
  6
ByBlock
 62
    0
370
   -2
100
AcDbTrace
 10
850
 20
-220.25
 30
0
 11
848.3348613689086
 21
-210.25
 31
0
 12
851.6651386310914
 22
-210.25
 32
0
 13
851.6651386310914
 23
-210.25
 33
0
  0
MTEXT
  5
114
100
AcDbEntity
  8
0
  6
CONTINUOUS
 62
    0
370
   -2
100
AcDbMText
 10
843
 20
-16.75
 30
0
 40
10
 41
21.11111111111111
 71
    5
 72
    1
  1
407
  7
standard
210
0
220
0
230
1
 50
90
 73
    2
 44
1
  0
LINE
  5
115
100
AcDbEntity
  8
0
  6
ByBlock
 62
    0
370
   -2
100
AcDbLine
 10
882.6875
 20
186.75
 11
849.875
 21
186.75
  0
LINE
  5
116
100
AcDbEntity
  8
0
  6
ByBlock
 62
    0
370
   -2
100
AcDbLine
 10
882.6875
 20
-220.25
 11
849.875
 21
-220.25
  0
ENDBLK
  5
6E
330
6C
100
AcDbEntity
  8
0
100
AcDbBlockEnd
  0
BLOCK
  5
70
330
6F
100
AcDbEntity
  8
0
100
AcDbBlockBegin
  2
*D2
 70
    1
 10
0
 20
0
  3
*D2
  1

  0
LINE
  5
117
100
AcDbEntity
  8
0
  6
ByBlock
 62
    0
370
   -2
100
AcDbLine
 10
1923.802073105099
 20
186.7500000000001
 11
1923.802073105099
 21
-39.25
  0
SOLID
  5
118
100
AcDbEntity
  8
0
  6
ByBlock
 62
    0
370
   -2
100
AcDbTrace
 10
1923.802073105099
 20
186.7500000000001
 30
0
 11
1925.46721173619
 21
176.7500000000001
 31
0
 12
1922.136934474008
 22
176.7500000000001
 32
0
 13
1922.136934474008
 23
176.7500000000001
 33
0
  0
SOLID
  5
119
100
AcDbEntity
  8
0
  6
ByBlock
 62
    0
370
   -2
100
AcDbTrace
 10
1923.802073105099
 20
-39.25
 30
0
 11
1922.136934474008
 21
-29.25
 31
0
 12
1925.46721173619
 22
-29.25
 32
0
 13
1925.46721173619
 23
-29.25
 33
0
  0
MTEXT
  5
11A
100
AcDbEntity
  8
0
  6
CONTINUOUS
 62
    0
370
   -2
100
AcDbMText
 10
1916.802073105099
 20
73.75000000000001
 30
0
 40
10
 41
20.00000000000063
 71
    5
 72
    1
  1
226
  7
standard
210
0
220
0
230
1
 50
90
 73
    2
 44
1
  0
LINE
  5
11B
100
AcDbEntity
  8
0
  6
ByBlock
 62
    0
370
   -2
100
AcDbLine
 10
1876.8125
 20
186.75
 11
1923.927073105099
 21
186.7500000000001
  0
LINE
  5
11C
100
AcDbEntity
  8
0
  6
ByBlock
 62
    0
370
   -2
100
AcDbLine
 10
1673.8125
 20
-39.25
 11
1923.927073105099
 21
-39.25
  0
ENDBLK
  5
71
330
6F
100
AcDbEntity
  8
0
100
AcDbBlockEnd
  0
BLOCK
  5
73
330
72
100
AcDbEntity
  8
0
100
AcDbBlockBegin
  2
*D11
 70
    1
 10
0
 20
0
  3
*D11
  1

  0
LINE
  5
11D
100
AcDbEntity
  8
0
  6
ByBlock
 62
    0
370
   -2
100
AcDbLine
 10
2140
 20
-590
 11
2140
 21
-400
  0
SOLID
  5
11E
100
AcDbEntity
  8
0
  6
ByBlock
 62
    0
370
   -2
100
AcDbTrace
 10
2140
 20
-590
 30
0
 11
2138.334861368909
 21
-580
 31
0
 12
2141.665138631091
 22
-580
 32
0
 13
2141.665138631091
 23
-580
 33
0
  0
SOLID
  5
11F
100
AcDbEntity
  8
0
  6
ByBlock
 62
    0
370
   -2
100
AcDbTrace
 10
2140
 20
-400
 30
0
 11
2141.665138631091
 21
-410
 31
0
 12
2138.334861368909
 22
-410
 32
0
 13
2138.334861368909
 23
-410
 33
0
  0
MTEXT
  5
120
100
AcDbEntity
  8
0
  6
CONTINUOUS
 62
    0
370
   -2
100
AcDbMText
 10
2133
 20
-495
 30
0
 40
10
 41
17.77777777777778
 71
    5
 72
    1
  1
190
  7
standard
210
0
220
0
230
1
 50
90
 73
    2
 44
1
  0
LINE
  5
121
100
AcDbEntity
  8
0
  6
ByBlock
 62
    0
370
   -2
100
AcDbLine
 10
2199.9375
 20
-590
 11
2139.875
 21
-590
  0
LINE
  5
122
100
AcDbEntity
  8
0
  6
ByBlock
 62
    0
370
   -2
100
AcDbLine
 10
2199.9375
 20
-400
 11
2139.875
 21
-400
  0
ENDBLK
  5
74
330
72
100
AcDbEntity
  8
0
100
AcDbBlockEnd
  0
BLOCK
  5
76
330
75
100
AcDbEntity
  8
0
100
AcDbBlockBegin
  2
*D39
 70
    1
 10
0
 20
0
  3
*D39
  1

  0
LINE
  5
123
100
AcDbEntity
  8
0
  6
ByBlock
 62
    0
370
   -2
100
AcDbLine
 10
900.75
 20
-844.3454538973073
 11
966.75
 21
-844.3454538973073
  0
SOLID
  5
124
100
AcDbEntity
  8
0
  6
ByBlock
 62
    0
370
   -2
100
AcDbTrace
 10
900.75
 20
-844.3454538973073
 30
0
 11
910.75
 21
-842.6803152662159
 31
0
 12
910.75
 22
-846.0105925283987
 32
0
 13
910.75
 23
-846.0105925283987
 33
0
  0
SOLID
  5
125
100
AcDbEntity
  8
0
  6
ByBlock
 62
    0
370
   -2
100
AcDbTrace
 10
966.75
 20
-844.3454538973073
 30
0
 11
956.75
 21
-846.0105925283987
 31
0
 12
956.75
 22
-842.6803152662159
 32
0
 13
956.75
 23
-842.6803152662159
 33
0
  0
MTEXT
  5
126
100
AcDbEntity
  8
0
  6
CONTINUOUS
 62
    0
370
   -2
100
AcDbMText
 10
933.75
 20
-837.3454538973073
 30
0
 40
10
 41
12.22222222222346
 71
    5
 72
    1
  1
66
  7
standard
210
0
220
0
230
1
 50
0
 73
    2
 44
1
  0
LINE
  5
127
100
AcDbEntity
  8
0
  6
ByBlock
 62
    0
370
   -2
100
AcDbLine
 10
900.75
 20
-844.3326304201801
 11
900.75
 21
-844.2204538973073
  0
LINE
  5
128
100
AcDbEntity
  8
0
  6
ByBlock
 62
    0
370
   -2
100
AcDbLine
 10
966.75
 20
-844.2829538973073
 11
966.75
 21
-844.2204538973073
  0
ENDBLK
  5
77
330
75
100
AcDbEntity
  8
0
100
AcDbBlockEnd
  0
BLOCK
  5
79
330
78
100
AcDbEntity
  8
0
100
AcDbBlockBegin
  2
*D4
 70
    1
 10
0
 20
0
  3
*D4
  1

  0
LINE
  5
129
100
AcDbEntity
  8
0
  6
ByBlock
 62
    0
370
   -2
100
AcDbLine
 10
1999.833803074174
 20
186.75
 11
1999.833803074174
 21
-607.25
  0
SOLID
  5
12A
100
AcDbEntity
  8
0
  6
ByBlock
 62
    0
370
   -2
100
AcDbTrace
 10
1999.833803074174
 20
186.75
 30
0
 11
2001.498941705265
 21
176.75
 31
0
 12
1998.168664443083
 22
176.75
 32
0
 13
1998.168664443083
 23
176.75
 33
0
  0
SOLID
  5
12B
100
AcDbEntity
  8
0
  6
ByBlock
 62
    0
370
   -2
100
AcDbTrace
 10
1999.833803074174
 20
-607.25
 30
0
 11
1998.168664443083
 21
-597.25
 31
0
 12
2001.498941705265
 22
-597.25
 32
0
 13
2001.498941705265
 23
-597.25
 33
0
  0
MTEXT
  5
12C
100
AcDbEntity
  8
0
  6
CONTINUOUS
 62
    0
370
   -2
100
AcDbMText
 10
1992.833803074174
 20
-210.25
 30
0
 40
10
 41
21.11111111111111
 71
    5
 72
    1
  1
794
  7
standard
210
0
220
0
230
1
 50
90
 73
    2
 44
1
  0
LINE
  5
12D
100
AcDbEntity
  8
0
  6
ByBlock
 62
    0
370
   -2
100
AcDbLine
 10
1876.8125
 20
186.75
 11
1999.958803074174
 21
186.75
  0
LINE
  5
12E
100
AcDbEntity
  8
0
  6
ByBlock
 62
    0
370
   -2
100
AcDbLine
 10
1673.8125
 20
-607.25
 11
1999.958803074174
 21
-607.25
  0
ENDBLK
  5
7A
330
78
100
AcDbEntity
  8
0
100
AcDbBlockEnd
  0
BLOCK
  5
7C
330
7B
100
AcDbEntity
  8
0
100
AcDbBlockBegin
  2
*D20
 70
    1
 10
0
 20
0
  3
*D20
  1

  0
LINE
  5
12F
100
AcDbEntity
  8
0
  6
ByBlock
 62
    0
370
   -2
100
AcDbLine
 10
800
 20
-1193.25
 11
800
 21
-949.25
  0
SOLID
  5
130
100
AcDbEntity
  8
0
  6
ByBlock
 62
    0
370
   -2
100
AcDbTrace
 10
800
 20
-1193.25
 30
0
 11
798.3348613689086
 21
-1183.25
 31
0
 12
801.6651386310914
 22
-1183.25
 32
0
 13
801.6651386310914
 23
-1183.25
 33
0
  0
SOLID
  5
131
100
AcDbEntity
  8
0
  6
ByBlock
 62
    0
370
   -2
100
AcDbTrace
 10
800
 20
-949.25
 30
0
 11
801.6651386310914
 21
-959.25
 31
0
 12
798.3348613689086
 22
-959.25
 32
0
 13
798.3348613689086
 23
-959.25
 33
0
  0
MTEXT
  5
132
100
AcDbEntity
  8
0
  6
CONTINUOUS
 62
    0
370
   -2
100
AcDbMText
 10
793
 20
-1071.25
 30
0
 40
10
 41
22.22222222222222
 71
    5
 72
    1
  1
244
  7
standard
210
0
220
0
230
1
 50
90
 73
    2
 44
1
  0
LINE
  5
133
100
AcDbEntity
  8
0
  6
ByBlock
 62
    0
370
   -2
100
AcDbLine
 10
882.6875
 20
-1193.25
 11
799.875
 21
-1193.25
  0
LINE
  5
134
100
AcDbEntity
  8
0
  6
ByBlock
 62
    0
370
   -2
100
AcDbLine
 10
882.6875
 20
-949.25
 11
799.875
 21
-949.25
  0
ENDBLK
  5
7D
330
7B
100
AcDbEntity
  8
0
100
AcDbBlockEnd
  0
BLOCK
  5
7F
330
7E
100
AcDbEntity
  8
0
100
AcDbBlockBegin
  2
*D3
 70
    1
 10
0
 20
0
  3
*D3
  1

  0
LINE
  5
135
100
AcDbEntity
  8
0
  6
ByBlock
 62
    0
370
   -2
100
AcDbLine
 10
1962.614276316888
 20
186.75
 11
1962.614276316888
 21
-323.25
  0
SOLID
  5
136
100
AcDbEntity
  8
0
  6
ByBlock
 62
    0
370
   -2
100
AcDbTrace
 10
1962.614276316888
 20
186.75
 30
0
 11
1964.279414947979
 21
176.75
 31
0
 12
1960.949137685797
 22
176.75
 32
0
 13
1960.949137685797
 23
176.75
 33
0
  0
SOLID
  5
137
100
AcDbEntity
  8
0
  6
ByBlock
 62
    0
370
   -2
100
AcDbTrace
 10
1962.614276316888
 20
-323.25
 30
0
 11
1960.949137685797
 21
-313.25
 31
0
 12
1964.279414947979
 22
-313.25
 32
0
 13
1964.279414947979
 23
-313.25
 33
0
  0
MTEXT
  5
138
100
AcDbEntity
  8
0
  6
CONTINUOUS
 62
    0
370
   -2
100
AcDbMText
 10
1955.614276316888
 20
-68.25
 30
0
 40
10
 41
17.7777777777784
 71
    5
 72
    1
  1
510
  7
standard
210
0
220
0
230
1
 50
90
 73
    2
 44
1
  0
LINE
  5
139
100
AcDbEntity
  8
0
  6
ByBlock
 62
    0
370
   -2
100
AcDbLine
 10
1876.8125
 20
186.75
 11
1962.739276316888
 21
186.75
  0
LINE
  5
13A
100
AcDbEntity
  8
0
  6
ByBlock
 62
    0
370
   -2
100
AcDbLine
 10
1673.8125
 20
-323.25
 11
1962.739276316888
 21
-323.25
  0
ENDBLK
  5
80
330
7E
100
AcDbEntity
  8
0
100
AcDbBlockEnd
  0
BLOCK
  5
82
330
81
100
AcDbEntity
  8
0
100
AcDbBlockBegin
  2
*D40
 70
    1
 10
0
 20
0
  3
*D40
  1

  0
LINE
  5
13B
100
AcDbEntity
  8
0
  6
ByBlock
 62
    0
370
   -2
100
AcDbLine
 10
860
 20
-1175.25
 11
860
 21
-1137.15
  0
SOLID
  5
13C
100
AcDbEntity
  8
0
  6
ByBlock
 62
    0
370
   -2
100
AcDbTrace
 10
860
 20
-1175.25
 30
0
 11
858.3348613689086
 21
-1165.25
 31
0
 12
861.6651386310914
 22
-1165.25
 32
0
 13
861.6651386310914
 23
-1165.25
 33
0
  0
SOLID
  5
13D
100
AcDbEntity
  8
0
  6
ByBlock
 62
    0
370
   -2
100
AcDbTrace
 10
860
 20
-1137.15
 30
0
 11
861.6651386310914
 21
-1147.15
 31
0
 12
858.3348613689086
 22
-1147.15
 32
0
 13
858.3348613689086
 23
-1147.15
 33
0
  0
MTEXT
  5
13E
100
AcDbEntity
  8
0
  6
CONTINUOUS
 62
    0
370
   -2
100
AcDbMText
 10
853
 20
-1156.2
 30
0
 40
10
 41
21.11111111111173
 71
    5
 72
    1
  1
38.1
  7
standard
210
0
220
0
230
1
 50
90
 73
    2
 44
1
  0
LINE
  5
13F
100
AcDbEntity
  8
0
  6
ByBlock
 62
    0
370
   -2
100
AcDbLine
 10
900.6875
 20
-1175.25
 11
859.875
 21
-1175.25
  0
LINE
  5
140
100
AcDbEntity
  8
0
  6
ByBlock
 62
    0
370
   -2
100
AcDbLine
 10
935.6875
 20
-1137.15
 11
859.875
 21
-1137.15
  0
ENDBLK
  5
83
330
81
100
AcDbEntity
  8
0
100
AcDbBlockEnd
  0
BLOCK
  5
85
330
84
100
AcDbEntity
  8
0
100
AcDbBlockBegin
  2
*D16
 70
    1
 10
0
 20
0
  3
*D16
  1

  0
LINE
  5
141
100
AcDbEntity
  8
0
  6
ByBlock
 62
    0
370
   -2
100
AcDbLine
 10
1170.645844586595
 20
-229.25
 11
1170.645844586595
 21
-417.25
  0
SOLID
  5
142
100
AcDbEntity
  8
0
  6
ByBlock
 62
    0
370
   -2
100
AcDbTrace
 10
1170.645844586595
 20
-229.25
 30
0
 11
1172.310983217686
 21
-239.25
 31
0
 12
1168.980705955504
 22
-239.25
 32
0
 13
1168.980705955504
 23
-239.25
 33
0
  0
SOLID
  5
143
100
AcDbEntity
  8
0
  6
ByBlock
 62
    0
370
   -2
100
AcDbTrace
 10
1170.645844586595
 20
-417.25
 30
0
 11
1168.980705955504
 21
-407.25
 31
0
 12
1172.310983217686
 22
-407.25
 32
0
 13
1172.310983217686
 23
-407.25
 33
0
  0
MTEXT
  5
144
100
AcDbEntity
  8
0
  6
CONTINUOUS
 62
    0
370
   -2
100
AcDbMText
 10
1163.645844586595
 20
-323.25
 30
0
 40
10
 41
17.77777777777778
 71
    5
 72
    1
  1
188
  7
standard
210
0
220
0
230
1
 50
90
 73
    2
 44
1
  0
LINE
  5
145
100
AcDbEntity
  8
0
  6
ByBlock
 62
    0
370
   -2
100
AcDbLine
 10
1188.218450969918
 20
-229.25
 11
1170.520844586595
 21
-229.25
  0
LINE
  5
146
100
AcDbEntity
  8
0
  6
ByBlock
 62
    0
370
   -2
100
AcDbLine
 10
1194.862423372856
 20
-417.25
 11
1170.520844586595
 21
-417.25
  0
ENDBLK
  5
86
330
84
100
AcDbEntity
  8
0
100
AcDbBlockEnd
  0
BLOCK
  5
88
330
87
100
AcDbEntity
  8
0
100
AcDbBlockBegin
  2
*D13
 70
    1
 10
0
 20
0
  3
*D13
  1

  0
LINE
  5
147
100
AcDbEntity
  8
0
  6
ByBlock
 62
    0
370
   -2
100
AcDbLine
 10
2200
 20
-370
 11
2348
 21
-370
  0
SOLID
  5
148
100
AcDbEntity
  8
0
  6
ByBlock
 62
    0
370
   -2
100
AcDbTrace
 10
2200
 20
-370
 30
0
 11
2210
 21
-368.3348613689087
 31
0
 12
2210
 22
-371.6651386310913
 32
0
 13
2210
 23
-371.6651386310913
 33
0
  0
SOLID
  5
149
100
AcDbEntity
  8
0
  6
ByBlock
 62
    0
370
   -2
100
AcDbTrace
 10
2348
 20
-370
 30
0
 11
2338
 21
-371.6651386310913
 31
0
 12
2338
 22
-368.3348613689087
 32
0
 13
2338
 23
-368.3348613689087
 33
0
  0
MTEXT
  5
14A
100
AcDbEntity
  8
0
  6
CONTINUOUS
 62
    0
370
   -2
100
AcDbMText
 10
2274
 20
-363
 30
0
 40
10
 41
18.88888888888889
 71
    5
 72
    1
  1
148
  7
standard
210
0
220
0
230
1
 50
0
 73
    2
 44
1
  0
LINE
  5
14B
100
AcDbEntity
  8
0
  6
ByBlock
 62
    0
370
   -2
100
AcDbLine
 10
2200
 20
-399.9375
 11
2200
 21
-369.875
  0
LINE
  5
14C
100
AcDbEntity
  8
0
  6
ByBlock
 62
    0
370
   -2
100
AcDbLine
 10
2348
 20
-399.9375
 11
2348
 21
-369.875
  0
ENDBLK
  5
89
330
87
100
AcDbEntity
  8
0
100
AcDbBlockEnd
  0
BLOCK
  5
8B
330
8A
100
AcDbEntity
  8
0
100
AcDbBlockBegin
  2
*D18
 70
    1
 10
0
 20
0
  3
*D18
  1

  0
LINE
  5
14D
100
AcDbEntity
  8
0
  6
ByBlock
 62
    0
370
   -2
100
AcDbLine
 10
1170.645844586595
 20
-833.25
 11
1170.645844586595
 21
-1175.25
  0
SOLID
  5
14E
100
AcDbEntity
  8
0
  6
ByBlock
 62
    0
370
   -2
100
AcDbTrace
 10
1170.645844586595
 20
-833.25
 30
0
 11
1172.310983217686
 21
-843.25
 31
0
 12
1168.980705955504
 22
-843.25
 32
0
 13
1168.980705955504
 23
-843.25
 33
0
  0
SOLID
  5
14F
100
AcDbEntity
  8
0
  6
ByBlock
 62
    0
370
   -2
100
AcDbTrace
 10
1170.645844586595
 20
-1175.25
 30
0
 11
1168.980705955504
 21
-1165.25
 31
0
 12
1172.310983217686
 22
-1165.25
 32
0
 13
1172.310983217686
 23
-1165.25
 33
0
  0
MTEXT
  5
150
100
AcDbEntity
  8
0
  6
CONTINUOUS
 62
    0
370
   -2
100
AcDbMText
 10
1163.645844586595
 20
-1004.25
 30
0
 40
10
 41
21.11111111111173
 71
    5
 72
    1
  1
342
  7
standard
210
0
220
0
230
1
 50
90
 73
    2
 44
1
  0
LINE
  5
151
100
AcDbEntity
  8
0
  6
ByBlock
 62
    0
370
   -2
100
AcDbLine
 10
1168.477965733832
 20
-833.25
 11
1170.770844586595
 21
-833.25
  0
LINE
  5
152
100
AcDbEntity
  8
0
  6
ByBlock
 62
    0
370
   -2
100
AcDbLine
 10
1179.805127812997
 20
-1175.25
 11
1170.520844586595
 21
-1175.25
  0
ENDBLK
  5
8C
330
8A
100
AcDbEntity
  8
0
100
AcDbBlockEnd
  0
BLOCK
  5
8E
330
8D
100
AcDbEntity
  8
0
100
AcDbBlockBegin
  2
*D43
 70
    1
 10
0
 20
0
  3
*D43
  1

  0
LINE
  5
153
100
AcDbEntity
  8
0
  6
ByBlock
 62
    0
370
   -2
100
AcDbLine
 10
770
 20
-1175.25
 11
770
 21
-977.67
  0
SOLID
  5
154
100
AcDbEntity
  8
0
  6
ByBlock
 62
    0
370
   -2
100
AcDbTrace
 10
770
 20
-1175.25
 30
0
 11
768.3348613689086
 21
-1165.25
 31
0
 12
771.6651386310914
 22
-1165.25
 32
0
 13
771.6651386310914
 23
-1165.25
 33
0
  0
SOLID
  5
155
100
AcDbEntity
  8
0
  6
ByBlock
 62
    0
370
   -2
100
AcDbTrace
 10
770
 20
-977.67
 30
0
 11
771.6651386310914
 21
-987.67
 31
0
 12
768.3348613689086
 22
-987.67
 32
0
 13
768.3348613689086
 23
-987.67
 33
0
  0
MTEXT
  5
156
100
AcDbEntity
  8
0
  6
CONTINUOUS
 62
    0
370
   -2
100
AcDbMText
 10
763
 20
-1076.46
 30
0
 40
10
 41
36.66666666666729
 71
    5
 72
    1
  1
197.58
  7
standard
210
0
220
0
230
1
 50
90
 73
    2
 44
1
  0
LINE
  5
157
100
AcDbEntity
  8
0
  6
ByBlock
 62
    0
370
   -2
100
AcDbLine
 10
900.6875
 20
-1175.25
 11
769.875
 21
-1175.25
  0
LINE
  5
158
100
AcDbEntity
  8
0
  6
ByBlock
 62
    0
370
   -2
100
AcDbLine
 10
935.6875
 20
-977.67
 11
769.875
 21
-977.67
  0
ENDBLK
  5
8F
330
8D
100
AcDbEntity
  8
0
100
AcDbBlockEnd
  0
BLOCK
  5
91
330
90
100
AcDbEntity
  8
0
100
AcDbBlockBegin
  2
*D45
 70
    1
 10
0
 20
0
  3
*D45
  1

  0
LINE
  5
159
100
AcDbEntity
  8
0
  6
ByBlock
 62
    0
370
   -2
100
AcDbLine
 10
700
 20
-1175.25
 11
700
 21
-871.35
  0
SOLID
  5
15A
100
AcDbEntity
  8
0
  6
ByBlock
 62
    0
370
   -2
100
AcDbTrace
 10
700
 20
-1175.25
 30
0
 11
698.3348613689086
 21
-1165.25
 31
0
 12
701.6651386310914
 22
-1165.25
 32
0
 13
701.6651386310914
 23
-1165.25
 33
0
  0
SOLID
  5
15B
100
AcDbEntity
  8
0
  6
ByBlock
 62
    0
370
   -2
100
AcDbTrace
 10
700
 20
-871.35
 30
0
 11
701.6651386310914
 21
-881.35
 31
0
 12
698.3348613689086
 22
-881.35
 32
0
 13
698.3348613689086
 23
-881.35
 33
0
  0
MTEXT
  5
15C
100
AcDbEntity
  8
0
  6
CONTINUOUS
 62
    0
370
   -2
100
AcDbMText
 10
693
 20
-1023.3
 30
0
 40
10
 41
31.11111111111235
 71
    5
 72
    1
  1
303.9
  7
standard
210
0
220
0
230
1
 50
90
 73
    2
 44
1
  0
LINE
  5
15D
100
AcDbEntity
  8
0
  6
ByBlock
 62
    0
370
   -2
100
AcDbLine
 10
900.6875
 20
-1175.25
 11
699.875
 21
-1175.25
  0
LINE
  5
15E
100
AcDbEntity
  8
0
  6
ByBlock
 62
    0
370
   -2
100
AcDbLine
 10
935.6875
 20
-871.35
 11
699.875
 21
-871.35
  0
ENDBLK
  5
92
330
90
100
AcDbEntity
  8
0
100
AcDbBlockEnd
  0
BLOCK
  5
94
330
93
100
AcDbEntity
  8
0
100
AcDbBlockBegin
  2
*D17
 70
    1
 10
0
 20
0
  3
*D17
  1

  0
LINE
  5
15F
100
AcDbEntity
  8
0
  6
ByBlock
 62
    0
370
   -2
100
AcDbLine
 10
1170.645844586595
 20
-435.25
 11
1170.645844586595
 21
-815.25
  0
SOLID
  5
160
100
AcDbEntity
  8
0
  6
ByBlock
 62
    0
370
   -2
100
AcDbTrace
 10
1170.645844586595
 20
-435.25
 30
0
 11
1172.310983217686
 21
-445.25
 31
0
 12
1168.980705955504
 22
-445.25
 32
0
 13
1168.980705955504
 23
-445.25
 33
0
  0
SOLID
  5
161
100
AcDbEntity
  8
0
  6
ByBlock
 62
    0
370
   -2
100
AcDbTrace
 10
1170.645844586595
 20
-815.25
 30
0
 11
1168.980705955504
 21
-805.25
 31
0
 12
1172.310983217686
 22
-805.25
 32
0
 13
1172.310983217686
 23
-805.25
 33
0
  0
MTEXT
  5
162
100
AcDbEntity
  8
0
  6
CONTINUOUS
 62
    0
370
   -2
100
AcDbMText
 10
1163.645844586595
 20
-625.25
 30
0
 40
10
 41
20.00000000000062
 71
    5
 72
    1
  1
380
  7
standard
210
0
220
0
230
1
 50
90
 73
    2
 44
1
  0
LINE
  5
163
100
AcDbEntity
  8
0
  6
ByBlock
 62
    0
370
   -2
100
AcDbLine
 10
1171.216006253624
 20
-435.25
 11
1170.520844586595
 21
-435.25
  0
LINE
  5
164
100
AcDbEntity
  8
0
  6
ByBlock
 62
    0
370
   -2
100
AcDbLine
 10
1171.216006253624
 20
-815.25
 11
1170.520844586595
 21
-815.25
  0
ENDBLK
  5
95
330
93
100
AcDbEntity
  8
0
100
AcDbBlockEnd
  0
BLOCK
  5
97
330
96
100
AcDbEntity
  8
0
100
AcDbBlockBegin
  2
*D30
 70
    1
 10
0
 20
0
  3
*D30
  1

  0
LINE
  5
165
100
AcDbEntity
  8
0
  6
ByBlock
 62
    0
370
   -2
100
AcDbLine
 10
850.0139016143476
 20
-220.25
 11
850.0139016143476
 21
-296.0000000000066
  0
SOLID
  5
166
100
AcDbEntity
  8
0
  6
ByBlock
 62
    0
370
   -2
100
AcDbTrace
 10
850.0139016143476
 20
-220.25
 30
0
 11
851.679040245439
 21
-230.25
 31
0
 12
848.3487629832562
 22
-230.25
 32
0
 13
848.3487629832562
 23
-230.25
 33
0
  0
SOLID
  5
167
100
AcDbEntity
  8
0
  6
ByBlock
 62
    0
370
   -2
100
AcDbTrace
 10
850.0139016143476
 20
-296.0000000000066
 30
0
 11
848.3487629832562
 21
-286.0000000000066
 31
0
 12
851.679040245439
 22
-286.0000000000066
 32
0
 13
851.679040245439
 23
-286.0000000000066
 33
0
  0
MTEXT
  5
168
100
AcDbEntity
  8
0
  6
CONTINUOUS
 62
    0
370
   -2
100
AcDbMText
 10
843.0139016143476
 20
-258.1250000000033
 30
0
 40
10
 41
31.11111111111236
 71
    5
 72
    1
  1
75.75
  7
standard
210
0
220
0
230
1
 50
90
 73
    2
 44
1
  0
LINE
  5
169
100
AcDbEntity
  8
0
  6
ByBlock
 62
    0
370
   -2
100
AcDbLine
 10
882.6875
 20
-220.25
 11
849.8889016143476
 21
-220.25
  0
LINE
  5
16A
100
AcDbEntity
  8
0
  6
ByBlock
 62
    0
370
   -2
100
AcDbLine
 10
882.6875
 20
-296.0000000000066
 11
849.8889016143476
 21
-296.0000000000066
  0
ENDBLK
  5
98
330
96
100
AcDbEntity
  8
0
100
AcDbBlockEnd
  0
BLOCK
  5
9A
330
99
100
AcDbEntity
  8
0
100
AcDbBlockBegin
  2
*D32
 70
    1
 10
0
 20
0
  3
*D32
  1

  0
LINE
  5
16B
100
AcDbEntity
  8
0
  6
ByBlock
 62
    0
370
   -2
100
AcDbLine
 10
2072.958803541957
 20
-609.25
 11
2072.958803541957
 21
186.75
  0
SOLID
  5
16C
100
AcDbEntity
  8
0
  6
ByBlock
 62
    0
370
   -2
100
AcDbTrace
 10
2072.958803541957
 20
-609.25
 30
0
 11
2071.293664910866
 21
-599.25
 31
0
 12
2074.623942173048
 22
-599.25
 32
0
 13
2074.623942173048
 23
-599.25
 33
0
  0
SOLID
  5
16D
100
AcDbEntity
  8
0
  6
ByBlock
 62
    0
370
   -2
100
AcDbTrace
 10
2072.958803541957
 20
186.75
 30
0
 11
2074.623942173048
 21
176.75
 31
0
 12
2071.293664910866
 22
176.75
 32
0
 13
2071.293664910866
 23
176.75
 33
0
  0
MTEXT
  5
16E
100
AcDbEntity
  8
0
  6
CONTINUOUS
 62
    0
370
   -2
100
AcDbMText
 10
2065.958803541957
 20
-211.25
 30
0
 40
10
 41
20.00000000000063
 71
    5
 72
    1
  1
796
  7
standard
210
0
220
0
230
1
 50
90
 73
    2
 44
1
  0
LINE
  5
16F
100
AcDbEntity
  8
0
  6
ByBlock
 62
    0
370
   -2
100
AcDbLine
 10
1876.8125
 20
-609.25
 11
2073.083803541957
 21
-609.25
  0
LINE
  5
170
100
AcDbEntity
  8
0
  6
ByBlock
 62
    0
370
   -2
100
AcDbLine
 10
1876.8125
 20
186.75
 11
2073.083803541957
 21
186.75
  0
ENDBLK
  5
9B
330
99
100
AcDbEntity
  8
0
100
AcDbBlockEnd
  0
BLOCK
  5
9D
330
9C
100
AcDbEntity
  8
0
100
AcDbBlockBegin
  2
*D25
 70
    1
 10
0
 20
0
  3
*D25
  1

  0
LINE
  5
171
100
AcDbEntity
  8
0
  6
ByBlock
 62
    0
370
   -2
100
AcDbLine
 10
790
 20
186.75
 11
790
 21
-824.25
  0
SOLID
  5
172
100
AcDbEntity
  8
0
  6
ByBlock
 62
    0
370
   -2
100
AcDbTrace
 10
790
 20
186.75
 30
0
 11
791.6651386310914
 21
176.75
 31
0
 12
788.3348613689086
 22
176.75
 32
0
 13
788.3348613689086
 23
176.75
 33
0
  0
SOLID
  5
173
100
AcDbEntity
  8
0
  6
ByBlock
 62
    0
370
   -2
100
AcDbTrace
 10
790
 20
-824.25
 30
0
 11
788.3348613689086
 21
-814.25
 31
0
 12
791.6651386310914
 22
-814.25
 32
0
 13
791.6651386310914
 23
-814.25
 33
0
  0
MTEXT
  5
174
100
AcDbEntity
  8
0
  6
CONTINUOUS
 62
    0
370
   -2
100
AcDbMText
 10
783
 20
-318.75
 30
0
 40
10
 41
21.11111111111111
 71
    5
 72
    1
  1
1011
  7
standard
210
0
220
0
230
1
 50
90
 73
    2
 44
1
  0
LINE
  5
175
100
AcDbEntity
  8
0
  6
ByBlock
 62
    0
370
   -2
100
AcDbLine
 10
882.6875
 20
186.75
 11
789.875
 21
186.75
  0
LINE
  5
176
100
AcDbEntity
  8
0
  6
ByBlock
 62
    0
370
   -2
100
AcDbLine
 10
882.6875
 20
-824.25
 11
789.875
 21
-824.25
  0
ENDBLK
  5
9E
330
9C
100
AcDbEntity
  8
0
100
AcDbBlockEnd
  0
BLOCK
  5
A0
330
9F
100
AcDbEntity
  8
0
100
AcDbBlockBegin
  2
*D15
 70
    1
 10
0
 20
0
  3
*D15
  1

  0
LINE
  5
177
100
AcDbEntity
  8
0
  6
ByBlock
 62
    0
370
   -2
100
AcDbLine
 10
1170.645844586595
 20
168.75
 11
1170.645844586595
 21
-211.25
  0
SOLID
  5
178
100
AcDbEntity
  8
0
  6
ByBlock
 62
    0
370
   -2
100
AcDbTrace
 10
1170.645844586595
 20
168.75
 30
0
 11
1172.310983217686
 21
158.75
 31
0
 12
1168.980705955504
 22
158.75
 32
0
 13
1168.980705955504
 23
158.75
 33
0
  0
SOLID
  5
179
100
AcDbEntity
  8
0
  6
ByBlock
 62
    0
370
   -2
100
AcDbTrace
 10
1170.645844586595
 20
-211.25
 30
0
 11
1168.980705955504
 21
-201.25
 31
0
 12
1172.310983217686
 22
-201.25
 32
0
 13
1172.310983217686
 23
-201.25
 33
0
  0
MTEXT
  5
17A
100
AcDbEntity
  8
0
  6
CONTINUOUS
 62
    0
370
   -2
100
AcDbMText
 10
1163.645844586595
 20
-21.25
 30
0
 40
10
 41
20.00000000000062
 71
    5
 72
    1
  1
380
  7
standard
210
0
220
0
230
1
 50
90
 73
    2
 44
1
  0
LINE
  5
17B
100
AcDbEntity
  8
0
  6
ByBlock
 62
    0
370
   -2
100
AcDbLine
 10
1135.897996138865
 20
168.75
 11
1170.770844586595
 21
168.75
  0
LINE
  5
17C
100
AcDbEntity
  8
0
  6
ByBlock
 62
    0
370
   -2
100
AcDbLine
 10
1135.897996138865
 20
-211.25
 11
1170.770844586595
 21
-211.25
  0
ENDBLK
  5
A1
330
9F
100
AcDbEntity
  8
0
100
AcDbBlockEnd
  0
BLOCK
  5
A3
330
A2
100
AcDbEntity
  8
0
100
AcDbBlockBegin
  2
*D9
 70
    1
 10
0
 20
0
  3
*D9
  1

  0
LINE
  5
17D
100
AcDbEntity
  8
0
  6
ByBlock
 62
    0
370
   -2
100
AcDbLine
 10
1673.8125
 20
-39.25
 11
1673.875
 21
-39.25
  0
LINE
  5
17E
100
AcDbEntity
  8
0
  6
ByBlock
 62
    0
370
   -2
100
AcDbLine
 10
1550.634126738365
 20
-150.5293258454479
 11
1550.696626738365
 21
-150.5293258454479
  0
LINE
  5
17F
100
AcDbEntity
  8
0
  6
ByBlock
 62
    0
370
   -2
100
AcDbLine
 10
1673.75
 20
-39.25
 11
1550.571626738365
 21
-150.5293258454479
  0
SOLID
  5
180
100
AcDbEntity
  8
0
  6
ByBlock
 62
    0
370
   -2
100
AcDbTrace
 10
1673.75
 20
-39.25
 30
0
 11
1667.445854046329
 21
-47.18917064028565
 31
0
 12
1665.213378090823
 22
-44.71797705193698
 32
0
 13
1665.213378090823
 23
-44.71797705193698
 33
0
  0
SOLID
  5
181
100
AcDbEntity
  8
0
  6
ByBlock
 62
    0
370
   -2
100
AcDbTrace
 10
1550.571626738365
 20
-150.5293258454479
 30
0
 11
1556.875772692036
 21
-142.5901552051622
 31
0
 12
1559.108248647542
 22
-145.0613487935109
 32
0
 13
1559.108248647542
 23
-145.0613487935109
 33
0
  0
MTEXT
  5
182
100
AcDbEntity
  8
0
  6
CONTINUOUS
 62
    0
370
   -2
100
AcDbMText
 10
1607.468311676904
 20
-89.69539417072733
 30
0
 40
10
 41
17.77777777777902
 71
    5
 72
    1
  1
166
  7
standard
210
0
220
0
230
1
 50
42.09465391122992
 73
    2
 44
1
  0
ENDBLK
  5
A4
330
A2
100
AcDbEntity
  8
0
100
AcDbBlockEnd
  0
BLOCK
  5
A6
330
A5
100
AcDbEntity
  8
0
100
AcDbBlockBegin
  2
*D5
 70
    1
 10
0
 20
0
  3
*D5
  1

  0
LINE
  5
183
100
AcDbEntity
  8
0
  6
ByBlock
 62
    0
370
   -2
100
AcDbLine
 10
1470.75
 20
234.7693226228826
 11
1876.75
 21
234.7693226228826
  0
SOLID
  5
184
100
AcDbEntity
  8
0
  6
ByBlock
 62
    0
370
   -2
100
AcDbTrace
 10
1470.75
 20
234.7693226228826
 30
0
 11
1480.75
 21
236.434461253974
 31
0
 12
1480.75
 22
233.1041839917912
 32
0
 13
1480.75
 23
233.1041839917912
 33
0
  0
SOLID
  5
185
100
AcDbEntity
  8
0
  6
ByBlock
 62
    0
370
   -2
100
AcDbTrace
 10
1876.75
 20
234.7693226228826
 30
0
 11
1866.75
 21
233.1041839917912
 31
0
 12
1866.75
 22
236.434461253974
 32
0
 13
1866.75
 23
236.434461253974
 33
0
  0
MTEXT
  5
186
100
AcDbEntity
  8
0
  6
CONTINUOUS
 62
    0
370
   -2
100
AcDbMText
 10
1673.75
 20
241.7693226228826
 30
0
 40
10
 41
21.11111111111173
 71
    5
 72
    1
  1
406
  7
standard
210
0
220
0
230
1
 50
0
 73
    2
 44
1
  0
LINE
  5
187
100
AcDbEntity
  8
0
  6
ByBlock
 62
    0
370
   -2
100
AcDbLine
 10
1470.75
 20
186.8125
 11
1470.75
 21
234.8943226228826
  0
LINE
  5
188
100
AcDbEntity
  8
0
  6
ByBlock
 62
    0
370
   -2
100
AcDbLine
 10
1876.75
 20
186.8125
 11
1876.75
 21
234.8943226228826
  0
ENDBLK
  5
A7
330
A5
100
AcDbEntity
  8
0
100
AcDbBlockEnd
  0
BLOCK
  5
A9
330
A8
100
AcDbEntity
  8
0
100
AcDbBlockBegin
  2
*D8
 70
    1
 10
0
 20
0
  3
*D8
  1

  0
LINE
  5
189
100
AcDbEntity
  8
0
  6
ByBlock
 62
    0
370
   -2
100
AcDbLine
 10
1547.75
 20
-417.75
 11
1547.75
 21
-228.75
  0
SOLID
  5
18A
100
AcDbEntity
  8
0
  6
ByBlock
 62
    0
370
   -2
100
AcDbTrace
 10
1547.75
 20
-417.75
 30
0
 11
1546.084861368909
 21
-407.75
 31
0
 12
1549.415138631091
 22
-407.75
 32
0
 13
1549.415138631091
 23
-407.75
 33
0
  0
SOLID
  5
18B
100
AcDbEntity
  8
0
  6
ByBlock
 62
    0
370
   -2
100
AcDbTrace
 10
1547.75
 20
-228.75
 30
0
 11
1549.415138631091
 21
-238.75
 31
0
 12
1546.084861368909
 22
-238.75
 32
0
 13
1546.084861368909
 23
-238.75
 33
0
  0
MTEXT
  5
18C
100
AcDbEntity
  8
0
  6
CONTINUOUS
 62
    0
370
   -2
100
AcDbMText
 10
1540.75
 20
-323.25
 30
0
 40
10
 41
17.77777777777778
 71
    5
 72
    1
  1
189
  7
standard
210
0
220
0
230
1
 50
90
 73
    2
 44
1
  0
LINE
  5
18D
100
AcDbEntity
  8
0
  6
ByBlock
 62
    0
370
   -2
100
AcDbLine
 10
1673.6875
 20
-417.75
 11
1547.625
 21
-417.75
  0
LINE
  5
18E
100
AcDbEntity
  8
0
  6
ByBlock
 62
    0
370
   -2
100
AcDbLine
 10
1673.6875
 20
-228.75
 11
1547.625
 21
-228.75
  0
ENDBLK
  5
AA
330
A8
100
AcDbEntity
  8
0
100
AcDbBlockEnd
  0
BLOCK
  5
AC
330
AB
100
AcDbEntity
  8
0
100
AcDbBlockBegin
  2
*D22
 70
    1
 10
0
 20
0
  3
*D22
  1

  0
LINE
  5
18F
100
AcDbEntity
  8
0
  6
ByBlock
 62
    0
370
   -2
100
AcDbLine
 10
2182
 20
60
 11
2385
 21
60
  0
SOLID
  5
190
100
AcDbEntity
  8
0
  6
ByBlock
 62
    0
370
   -2
100
AcDbTrace
 10
2182
 20
60
 30
0
 11
2192
 21
61.66513863109136
 31
0
 12
2192
 22
58.33486136890863
 32
0
 13
2192
 23
58.33486136890863
 33
0
  0
SOLID
  5
191
100
AcDbEntity
  8
0
  6
ByBlock
 62
    0
370
   -2
100
AcDbTrace
 10
2385
 20
60
 30
0
 11
2375
 21
58.33486136890864
 31
0
 12
2375
 22
61.66513863109136
 32
0
 13
2375
 23
61.66513863109136
 33
0
  0
MTEXT
  5
192
100
AcDbEntity
  8
0
  6
CONTINUOUS
 62
    0
370
   -2
100
AcDbMText
 10
2283.5
 20
67
 30
0
 40
10
 41
20.00000000000063
 71
    5
 72
    1
  1
203
  7
standard
210
0
220
0
230
1
 50
0
 73
    2
 44
1
  0
LINE
  5
193
100
AcDbEntity
  8
0
  6
ByBlock
 62
    0
370
   -2
100
AcDbLine
 10
2182
 20
18.0625
 11
2182
 21
60.125
  0
LINE
  5
194
100
AcDbEntity
  8
0
  6
ByBlock
 62
    0
370
   -2
100
AcDbLine
 10
2385
 20
18.0625
 11
2385
 21
60.125
  0
ENDBLK
  5
AD
330
AB
100
AcDbEntity
  8
0
100
AcDbBlockEnd
  0
BLOCK
  5
AF
330
AE
100
AcDbEntity
  8
0
100
AcDbBlockBegin
  2
*D27
 70
    1
 10
0
 20
0
  3
*D27
  1

  0
LINE
  5
195
100
AcDbEntity
  8
0
  6
ByBlock
 62
    0
370
   -2
100
AcDbLine
 10
849.3107591080422
 20
-426.25
 11
849.3107591080422
 21
-566.5000000000036
  0
SOLID
  5
196
100
AcDbEntity
  8
0
  6
ByBlock
 62
    0
370
   -2
100
AcDbTrace
 10
849.3107591080422
 20
-426.25
 30
0
 11
850.9758977391336
 21
-436.25
 31
0
 12
847.6456204769509
 22
-436.25
 32
0
 13
847.6456204769509
 23
-436.25
 33
0
  0
SOLID
  5
197
100
AcDbEntity
  8
0
  6
ByBlock
 62
    0
370
   -2
100
AcDbTrace
 10
849.3107591080422
 20
-566.5000000000036
 30
0
 11
847.6456204769509
 21
-556.5000000000036
 31
0
 12
850.9758977391336
 22
-556.5000000000036
 32
0
 13
850.9758977391336
 23
-556.5000000000036
 33
0
  0
MTEXT
  5
198
100
AcDbEntity
  8
0
  6
CONTINUOUS
 62
    0
370
   -2
100
AcDbMText
 10
842.3107591080422
 20
-496.3750000000018
 30
0
 40
10
 41
37.7777777777784
 71
    5
 72
    1
  1
140.25
  7
standard
210
0
220
0
230
1
 50
90
 73
    2
 44
1
  0
LINE
  5
199
100
AcDbEntity
  8
0
  6
ByBlock
 62
    0
370
   -2
100
AcDbLine
 10
882.6875
 20
-426.25
 11
849.1857591080422
 21
-426.25
  0
LINE
  5
19A
100
AcDbEntity
  8
0
  6
ByBlock
 62
    0
370
   -2
100
AcDbLine
 10
882.6875
 20
-566.5000000000036
 11
849.1857591080422
 21
-566.5000000000036
  0
ENDBLK
  5
B0
330
AE
100
AcDbEntity
  8
0
100
AcDbBlockEnd
  0
BLOCK
  5
B2
330
B1
100
AcDbEntity
  8
0
100
AcDbBlockBegin
  2
*D38
 70
    1
 10
0
 20
0
  3
*D38
  1

  0
LINE
  5
19B
100
AcDbEntity
  8
0
  6
ByBlock
 62
    0
370
   -2
100
AcDbLine
 10
970.75
 20
-1218.726692067154
 11
1130.75
 21
-1218.726692067154
  0
SOLID
  5
19C
100
AcDbEntity
  8
0
  6
ByBlock
 62
    0
370
   -2
100
AcDbTrace
 10
970.75
 20
-1218.726692067154
 30
0
 11
980.75
 21
-1217.061553436063
 31
0
 12
980.75
 22
-1220.391830698245
 32
0
 13
980.75
 23
-1220.391830698245
 33
0
  0
SOLID
  5
19D
100
AcDbEntity
  8
0
  6
ByBlock
 62
    0
370
   -2
100
AcDbTrace
 10
1130.75
 20
-1218.726692067154
 30
0
 11
1120.75
 21
-1220.391830698245
 31
0
 12
1120.75
 22
-1217.061553436063
 32
0
 13
1120.75
 23
-1217.061553436063
 33
0
  0
MTEXT
  5
19E
100
AcDbEntity
  8
0
  6
CONTINUOUS
 62
    0
370
   -2
100
AcDbMText
 10
1050.75
 20
-1211.726692067154
 30
0
 40
10
 41
17.7777777777784
 71
    5
 72
    1
  1
160
  7
standard
210
0
220
0
230
1
 50
0
 73
    2
 44
1
  0
LINE
  5
19F
100
AcDbEntity
  8
0
  6
ByBlock
 62
    0
370
   -2
100
AcDbLine
 10
970.75
 20
-1193.3125
 11
970.75
 21
-1218.851692067154
  0
LINE
  5
1A0
100
AcDbEntity
  8
0
  6
ByBlock
 62
    0
370
   -2
100
AcDbLine
 10
1130.75
 20
-1193.3125
 11
1130.75
 21
-1218.851692067154
  0
ENDBLK
  5
B3
330
B1
100
AcDbEntity
  8
0
100
AcDbBlockEnd
  0
BLOCK
  5
B5
330
B4
100
AcDbEntity
  8
0
100
AcDbBlockBegin
  2
*D1
 70
    1
 10
0
 20
0
  3
*D1
  1

  0
LINE
  5
1A1
100
AcDbEntity
  8
0
  6
ByBlock
 62
    0
370
   -2
100
AcDbLine
 10
1673.75
 20
-39.3125
 11
1673.75
 21
-39.37500000000001
  0
LINE
  5
1A2
100
AcDbEntity
  8
0
  6
ByBlock
 62
    0
370
   -2
100
AcDbLine
 10
1592.732300441148
 20
77.3071053765899
 11
1592.732300441148
 21
77.24460537658989
  0
LINE
  5
1A3
100
AcDbEntity
  8
0
  6
ByBlock
 62
    0
370
   -2
100
AcDbLine
 10
1673.75
 20
-39.25000000000001
 11
1592.732300441148
 21
77.36960537658989
  0
SOLID
  5
1A4
100
AcDbEntity
  8
0
  6
ByBlock
 62
    0
370
   -2
100
AcDbTrace
 10
1673.75
 20
-39.25000000000001
 30
0
 11
1666.67700841096
 21
-31.98739188430774
 31
0
 12
1669.412047989202
 22
-30.0873115837782
 32
0
 13
1669.412047989202
 23
-30.0873115837782
 33
0
  0
SOLID
  5
1A5
100
AcDbEntity
  8
0
  6
ByBlock
 62
    0
370
   -2
100
AcDbTrace
 10
1592.732300441148
 20
77.36960537658989
 30
0
 11
1599.805292030188
 21
70.10699726089763
 31
0
 12
1597.070252451946
 22
68.20691696036806
 32
0
 13
1597.070252451946
 23
68.20691696036806
 33
0
  0
MTEXT
  5
1A6
100
AcDbEntity
  8
0
  6
CONTINUOUS
 62
    0
370
   -2
100
AcDbMText
 10
1638.990004006744
 20
23.05363294823841
 30
0
 40
10
 41
18.88888888888889
 71
    5
 72
    1
  1
142
  7
standard
210
0
220
0
230
1
 50
304.7883910971241
 73
    2
 44
1
  0
ENDBLK
  5
B6
330
B4
100
AcDbEntity
  8
0
100
AcDbBlockEnd
  0
BLOCK
  5
B8
330
B7
100
AcDbEntity
  8
0
100
AcDbBlockBegin
  2
*D33
 70
    1
 10
0
 20
0
  3
*D33
  1

  0
LINE
  5
1A7
100
AcDbEntity
  8
0
  6
ByBlock
 62
    0
370
   -2
100
AcDbLine
 10
2610
 20
0
 11
2610
 21
-102.9999999999876
  0
SOLID
  5
1A8
100
AcDbEntity
  8
0
  6
ByBlock
 62
    0
370
   -2
100
AcDbTrace
 10
2610
 20
0
 30
0
 11
2611.665138631091
 21
-10
 31
0
 12
2608.334861368909
 22
-10
 32
0
 13
2608.334861368909
 23
-10
 33
0
  0
SOLID
  5
1A9
100
AcDbEntity
  8
0
  6
ByBlock
 62
    0
370
   -2
100
AcDbTrace
 10
2610
 20
-102.9999999999876
 30
0
 11
2608.334861368909
 21
-92.99999999998759
 31
0
 12
2611.665138631091
 22
-92.99999999998759
 32
0
 13
2611.665138631091
 23
-92.99999999998759
 33
0
  0
MTEXT
  5
1AA
100
AcDbEntity
  8
0
  6
CONTINUOUS
 62
    0
370
   -2
100
AcDbMText
 10
2603
 20
-51.4999999999938
 30
0
 40
10
 41
17.7777777777784
 71
    5
 72
    1
  1
103
  7
standard
210
0
220
0
230
1
 50
90
 73
    2
 44
1
  0
LINE
  5
1AB
100
AcDbEntity
  8
0
  6
ByBlock
 62
    0
370
   -2
100
AcDbLine
 10
2588.0625
 20
0
 11
2610.125
 21
0
  0
LINE
  5
1AC
100
AcDbEntity
  8
0
  6
ByBlock
 62
    0
370
   -2
100
AcDbLine
 10
2588.0625
 20
-102.9999999999876
 11
2610.125
 21
-102.9999999999876
  0
ENDBLK
  5
B9
330
B7
100
AcDbEntity
  8
0
100
AcDbBlockEnd
  0
BLOCK
  5
BB
330
BA
100
AcDbEntity
  8
0
100
AcDbBlockBegin
  2
*D29
 70
    1
 10
0
 20
0
  3
*D29
  1

  0
LINE
  5
1AD
100
AcDbEntity
  8
0
  6
ByBlock
 62
    0
370
   -2
100
AcDbLine
 10
809.0808606304169
 20
-426.25
 11
809.0808606304169
 21
-799.25
  0
SOLID
  5
1AE
100
AcDbEntity
  8
0
  6
ByBlock
 62
    0
370
   -2
100
AcDbTrace
 10
809.0808606304169
 20
-426.25
 30
0
 11
810.7459992615082
 21
-436.25
 31
0
 12
807.4157219993255
 22
-436.25
 32
0
 13
807.4157219993255
 23
-436.25
 33
0
  0
SOLID
  5
1AF
100
AcDbEntity
  8
0
  6
ByBlock
 62
    0
370
   -2
100
AcDbTrace
 10
809.0808606304169
 20
-799.25
 30
0
 11
807.4157219993255
 21
-789.25
 31
0
 12
810.7459992615082
 22
-789.25
 32
0
 13
810.7459992615082
 23
-789.25
 33
0
  0
MTEXT
  5
1B0
100
AcDbEntity
  8
0
  6
CONTINUOUS
 62
    0
370
   -2
100
AcDbMText
 10
802.0808606304169
 20
-612.75
 30
0
 40
10
 41
20.00000000000124
 71
    5
 72
    1
  1
373
  7
standard
210
0
220
0
230
1
 50
90
 73
    2
 44
1
  0
LINE
  5
1B1
100
AcDbEntity
  8
0
  6
ByBlock
 62
    0
370
   -2
100
AcDbLine
 10
882.6875
 20
-426.25
 11
808.9558606304169
 21
-426.25
  0
LINE
  5
1B2
100
AcDbEntity
  8
0
  6
ByBlock
 62
    0
370
   -2
100
AcDbLine
 10
882.6875
 20
-799.25
 11
808.9558606304169
 21
-799.25
  0
ENDBLK
  5
BC
330
BA
100
AcDbEntity
  8
0
100
AcDbBlockEnd
  0
BLOCK
  5
BE
330
BD
100
AcDbEntity
  8
0
100
AcDbBlockBegin
  2
*D14
 70
    1
 10
0
 20
0
  3
*D14
  1

  0
LINE
  5
1B3
100
AcDbEntity
  8
0
  6
ByBlock
 62
    0
370
   -2
100
AcDbLine
 10
1130.75
 20
-1056.936446774746
 11
1200.75
 21
-1056.936446774746
  0
SOLID
  5
1B4
100
AcDbEntity
  8
0
  6
ByBlock
 62
    0
370
   -2
100
AcDbTrace
 10
1130.75
 20
-1056.936446774746
 30
0
 11
1140.75
 21
-1055.271308143655
 31
0
 12
1140.75
 22
-1058.601585405837
 32
0
 13
1140.75
 23
-1058.601585405837
 33
0
  0
SOLID
  5
1B5
100
AcDbEntity
  8
0
  6
ByBlock
 62
    0
370
   -2
100
AcDbTrace
 10
1200.75
 20
-1056.936446774746
 30
0
 11
1190.75
 21
-1058.601585405837
 31
0
 12
1190.75
 22
-1055.271308143655
 32
0
 13
1190.75
 23
-1055.271308143655
 33
0
  0
MTEXT
  5
1B6
100
AcDbEntity
  8
0
  6
CONTINUOUS
 62
    0
370
   -2
100
AcDbMText
 10
1165.75
 20
-1049.936446774746
 30
0
 40
10
 41
12.22222222222222
 71
    5
 72
    1
  1
70
  7
standard
210
0
220
0
230
1
 50
0
 73
    2
 44
1
  0
LINE
  5
1B7
100
AcDbEntity
  8
0
  6
ByBlock
 62
    0
370
   -2
100
AcDbLine
 10
1130.75
 20
-1056.873946774746
 11
1130.75
 21
-1056.811446774746
  0
LINE
  5
1B8
100
AcDbEntity
  8
0
  6
ByBlock
 62
    0
370
   -2
100
AcDbLine
 10
1200.75
 20
-1056.873946774746
 11
1200.75
 21
-1056.811446774746
  0
ENDBLK
  5
BF
330
BD
100
AcDbEntity
  8
0
100
AcDbBlockEnd
  0
BLOCK
  5
C1
330
C0
100
AcDbEntity
  8
0
100
AcDbBlockBegin
  2
*D41
 70
    1
 10
0
 20
0
  3
*D41
  1

  0
LINE
  5
1B9
100
AcDbEntity
  8
0
  6
ByBlock
 62
    0
370
   -2
100
AcDbLine
 10
840
 20
-1175.25
 11
840
 21
-1083.99
  0
SOLID
  5
1BA
100
AcDbEntity
  8
0
  6
ByBlock
 62
    0
370
   -2
100
AcDbTrace
 10
840
 20
-1175.25
 30
0
 11
838.3348613689086
 21
-1165.25
 31
0
 12
841.6651386310914
 22
-1165.25
 32
0
 13
841.6651386310914
 23
-1165.25
 33
0
  0
SOLID
  5
1BB
100
AcDbEntity
  8
0
  6
ByBlock
 62
    0
370
   -2
100
AcDbTrace
 10
840
 20
-1083.99
 30
0
 11
841.6651386310914
 21
-1093.99
 31
0
 12
838.3348613689086
 22
-1093.99
 32
0
 13
838.3348613689086
 23
-1093.99
 33
0
  0
MTEXT
  5
1BC
100
AcDbEntity
  8
0
  6
CONTINUOUS
 62
    0
370
   -2
100
AcDbMText
 10
833
 20
-1129.62
 30
0
 40
10
 41
28.88888888889013
 71
    5
 72
    1
  1
91.26
  7
standard
210
0
220
0
230
1
 50
90
 73
    2
 44
1
  0
LINE
  5
1BD
100
AcDbEntity
  8
0
  6
ByBlock
 62
    0
370
   -2
100
AcDbLine
 10
882.6875
 20
-1175.25
 11
839.875
 21
-1175.25
  0
LINE
  5
1BE
100
AcDbEntity
  8
0
  6
ByBlock
 62
    0
370
   -2
100
AcDbLine
 10
935.6875
 20
-1083.99
 11
839.875
 21
-1083.99
  0
ENDBLK
  5
C2
330
C0
100
AcDbEntity
  8
0
100
AcDbBlockEnd
  0
BLOCK
  5
C4
330
C3
100
AcDbEntity
  8
0
100
AcDbBlockBegin
  2
*D19
 70
    1
 10
0
 20
0
  3
*D19
  1

  0
LINE
  5
1BF
100
AcDbEntity
  8
0
  6
ByBlock
 62
    0
370
   -2
100
AcDbLine
 10
1050.75
 20
-1175.25
 11
1050.75
 21
-915.25
  0
SOLID
  5
1C0
100
AcDbEntity
  8
0
  6
ByBlock
 62
    0
370
   -2
100
AcDbTrace
 10
1050.75
 20
-1175.25
 30
0
 11
1049.084861368909
 21
-1165.25
 31
0
 12
1052.415138631091
 22
-1165.25
 32
0
 13
1052.415138631091
 23
-1165.25
 33
0
  0
SOLID
  5
1C1
100
AcDbEntity
  8
0
  6
ByBlock
 62
    0
370
   -2
100
AcDbTrace
 10
1050.75
 20
-915.25
 30
0
 11
1052.415138631091
 21
-925.25
 31
0
 12
1049.084861368909
 22
-925.25
 32
0
 13
1049.084861368909
 23
-925.25
 33
0
  0
MTEXT
  5
1C2
100
AcDbEntity
  8
0
  6
CONTINUOUS
 62
    0
370
   -2
100
AcDbMText
 10
1043.75
 20
-1045.25
 30
0
 40
10
 41
20.00000000000062
 71
    5
 72
    1
  1
260
  7
standard
210
0
220
0
230
1
 50
90
 73
    2
 44
1
  0
LINE
  5
1C3
100
AcDbEntity
  8
0
  6
ByBlock
 62
    0
370
   -2
100
AcDbLine
 10
1050.6875
 20
-1175.25
 11
1050.625
 21
-1175.25
  0
LINE
  5
1C4
100
AcDbEntity
  8
0
  6
ByBlock
 62
    0
370
   -2
100
AcDbLine
 10
1050.6875
 20
-915.25
 11
1050.625
 21
-915.25
  0
ENDBLK
  5
C5
330
C3
100
AcDbEntity
  8
0
100
AcDbBlockEnd
  0
BLOCK
  5
C7
330
C6
100
AcDbEntity
  8
0
100
AcDbBlockBegin
  2
*D24
 70
    1
 10
0
 20
0
  3
*D24
  1

  0
LINE
  5
1C5
100
AcDbEntity
  8
0
  6
ByBlock
 62
    0
370
   -2
100
AcDbLine
 10
820
 20
186.75
 11
820
 21
-426.25
  0
SOLID
  5
1C6
100
AcDbEntity
  8
0
  6
ByBlock
 62
    0
370
   -2
100
AcDbTrace
 10
820
 20
186.75
 30
0
 11
821.6651386310914
 21
176.75
 31
0
 12
818.3348613689086
 22
176.75
 32
0
 13
818.3348613689086
 23
176.75
 33
0
  0
SOLID
  5
1C7
100
AcDbEntity
  8
0
  6
ByBlock
 62
    0
370
   -2
100
AcDbTrace
 10
820
 20
-426.25
 30
0
 11
818.3348613689086
 21
-416.25
 31
0
 12
821.6651386310914
 22
-416.25
 32
0
 13
821.6651386310914
 23
-416.25
 33
0
  0
MTEXT
  5
1C8
100
AcDbEntity
  8
0
  6
CONTINUOUS
 62
    0
370
   -2
100
AcDbMText
 10
813
 20
-119.75
 30
0
 40
10
 41
17.77777777777902
 71
    5
 72
    1
  1
613
  7
standard
210
0
220
0
230
1
 50
90
 73
    2
 44
1
  0
LINE
  5
1C9
100
AcDbEntity
  8
0
  6
ByBlock
 62
    0
370
   -2
100
AcDbLine
 10
882.6875
 20
186.75
 11
819.875
 21
186.75
  0
LINE
  5
1CA
100
AcDbEntity
  8
0
  6
ByBlock
 62
    0
370
   -2
100
AcDbLine
 10
882.6875
 20
-426.25
 11
819.875
 21
-426.25
  0
ENDBLK
  5
C8
330
C6
100
AcDbEntity
  8
0
100
AcDbBlockEnd
  0
BLOCK
  5
CA
330
C9
100
AcDbEntity
  8
0
100
AcDbBlockBegin
  2
*D36
 70
    1
 10
0
 20
0
  3
*D36
  1

  0
LINE
  5
1CB
100
AcDbEntity
  8
0
  6
ByBlock
 62
    0
370
   -2
100
AcDbLine
 10
1030
 20
-229.25
 11
1030
 21
-323.25
  0
SOLID
  5
1CC
100
AcDbEntity
  8
0
  6
ByBlock
 62
    0
370
   -2
100
AcDbTrace
 10
1030
 20
-229.25
 30
0
 11
1031.665138631091
 21
-239.25
 31
0
 12
1028.334861368909
 22
-239.25
 32
0
 13
1028.334861368909
 23
-239.25
 33
0
  0
SOLID
  5
1CD
100
AcDbEntity
  8
0
  6
ByBlock
 62
    0
370
   -2
100
AcDbTrace
 10
1030
 20
-323.25
 30
0
 11
1028.334861368909
 21
-313.25
 31
0
 12
1031.665138631091
 22
-313.25
 32
0
 13
1031.665138631091
 23
-313.25
 33
0
  0
MTEXT
  5
1CE
100
AcDbEntity
  8
0
  6
CONTINUOUS
 62
    0
370
   -2
100
AcDbMText
 10
1023
 20
-276.25
 30
0
 40
10
 41
13.33333333333395
 71
    5
 72
    1
  1
94
  7
standard
210
0
220
0
230
1
 50
90
 73
    2
 44
1
  0
LINE
  5
1CF
100
AcDbEntity
  8
0
  6
ByBlock
 62
    0
370
   -2
100
AcDbLine
 10
970.8125
 20
-229.25
 11
1030.125
 21
-229.25
  0
LINE
  5
1D0
100
AcDbEntity
  8
0
  6
ByBlock
 62
    0
370
   -2
100
AcDbLine
 10
935.8125
 20
-323.25
 11
1030.125
 21
-323.25
  0
ENDBLK
  5
CB
330
C9
100
AcDbEntity
  8
0
100
AcDbBlockEnd
  0
BLOCK
  5
CD
330
CC
100
AcDbEntity
  8
0
100
AcDbBlockBegin
  2
*D28
 70
    1
 10
0
 20
0
  3
*D28
  1

  0
LINE
  5
1D1
100
AcDbEntity
  8
0
  6
ByBlock
 62
    0
370
   -2
100
AcDbLine
 10
828.5197980527659
 20
-426.2500000000001
 11
828.5197980527659
 21
-684.0000000000023
  0
SOLID
  5
1D2
100
AcDbEntity
  8
0
  6
ByBlock
 62
    0
370
   -2
100
AcDbTrace
 10
828.5197980527659
 20
-426.2500000000001
 30
0
 11
830.1849366838572
 21
-436.2500000000001
 31
0
 12
826.8546594216745
 22
-436.2500000000001
 32
0
 13
826.8546594216745
 23
-436.2500000000001
 33
0
  0
SOLID
  5
1D3
100
AcDbEntity
  8
0
  6
ByBlock
 62
    0
370
   -2
100
AcDbTrace
 10
828.5197980527659
 20
-684.0000000000023
 30
0
 11
826.8546594216745
 21
-674.0000000000023
 31
0
 12
830.1849366838572
 22
-674.0000000000023
 32
0
 13
830.1849366838572
 23
-674.0000000000023
 33
0
  0
MTEXT
  5
1D4
100
AcDbEntity
  8
0
  6
CONTINUOUS
 62
    0
370
   -2
100
AcDbMText
 10
821.5197980527659
 20
-555.1250000000011
 30
0
 40
10
 41
38.88888888889014
 71
    5
 72
    1
  1
257.75
  7
standard
210
0
220
0
230
1
 50
90
 73
    2
 44
1
  0
LINE
  5
1D5
100
AcDbEntity
  8
0
  6
ByBlock
 62
    0
370
   -2
100
AcDbLine
 10
882.6875
 20
-426.25
 11
828.3947980527659
 21
-426.2500000000001
  0
LINE
  5
1D6
100
AcDbEntity
  8
0
  6
ByBlock
 62
    0
370
   -2
100
AcDbLine
 10
882.6875
 20
-684.0000000000023
 11
828.3947980527659
 21
-684.0000000000023
  0
ENDBLK
  5
CE
330
CC
100
AcDbEntity
  8
0
100
AcDbBlockEnd
  0
BLOCK
  5
D0
330
CF
100
AcDbEntity
  8
0
100
AcDbBlockBegin
  2
*D42
 70
    1
 10
0
 20
0
  3
*D42
  1

  0
LINE
  5
1D7
100
AcDbEntity
  8
0
  6
ByBlock
 62
    0
370
   -2
100
AcDbLine
 10
820
 20
-1175.25
 11
820
 21
-1030.83
  0
SOLID
  5
1D8
100
AcDbEntity
  8
0
  6
ByBlock
 62
    0
370
   -2
100
AcDbTrace
 10
820
 20
-1175.25
 30
0
 11
818.3348613689086
 21
-1165.25
 31
0
 12
821.6651386310914
 22
-1165.25
 32
0
 13
821.6651386310914
 23
-1165.25
 33
0
  0
SOLID
  5
1D9
100
AcDbEntity
  8
0
  6
ByBlock
 62
    0
370
   -2
100
AcDbTrace
 10
820
 20
-1030.83
 30
0
 11
821.6651386310914
 21
-1040.83
 31
0
 12
818.3348613689086
 22
-1040.83
 32
0
 13
818.3348613689086
 23
-1040.83
 33
0
  0
MTEXT
  5
1DA
100
AcDbEntity
  8
0
  6
CONTINUOUS
 62
    0
370
   -2
100
AcDbMText
 10
813
 20
-1103.04
 30
0
 40
10
 41
40
 71
    5
 72
    1
  1
144.42
  7
standard
210
0
220
0
230
1
 50
90
 73
    2
 44
1
  0
LINE
  5
1DB
100
AcDbEntity
  8
0
  6
ByBlock
 62
    0
370
   -2
100
AcDbLine
 10
882.6875
 20
-1175.25
 11
819.875
 21
-1175.25
  0
LINE
  5
1DC
100
AcDbEntity
  8
0
  6
ByBlock
 62
    0
370
   -2
100
AcDbLine
 10
935.6875
 20
-1030.83
 11
819.875
 21
-1030.83
  0
ENDBLK
  5
D1
330
CF
100
AcDbEntity
  8
0
100
AcDbBlockEnd
  0
BLOCK
  5
D3
330
D2
100
AcDbEntity
  8
0
100
AcDbBlockBegin
  2
*D37
 70
    1
 10
0
 20
0
  3
*D37
  1

  0
LINE
  5
1DD
100
AcDbEntity
  8
0
  6
ByBlock
 62
    0
370
   -2
100
AcDbLine
 10
1050
 20
-229.25
 11
1050
 21
-377.75
  0
SOLID
  5
1DE
100
AcDbEntity
  8
0
  6
ByBlock
 62
    0
370
   -2
100
AcDbTrace
 10
1050
 20
-229.25
 30
0
 11
1051.665138631091
 21
-239.25
 31
0
 12
1048.334861368909
 22
-239.25
 32
0
 13
1048.334861368909
 23
-239.25
 33
0
  0
SOLID
  5
1DF
100
AcDbEntity
  8
0
  6
ByBlock
 62
    0
370
   -2
100
AcDbTrace
 10
1050
 20
-377.75
 30
0
 11
1048.334861368909
 21
-367.75
 31
0
 12
1051.665138631091
 22
-367.75
 32
0
 13
1051.665138631091
 23
-367.75
 33
0
  0
MTEXT
  5
1E0
100
AcDbEntity
  8
0
  6
CONTINUOUS
 62
    0
370
   -2
100
AcDbMText
 10
1043
 20
-303.5
 30
0
 40
10
 41
30.00000000000062
 71
    5
 72
    1
  1
148.5
  7
standard
210
0
220
0
230
1
 50
90
 73
    2
 44
1
  0
LINE
  5
1E1
100
AcDbEntity
  8
0
  6
ByBlock
 62
    0
370
   -2
100
AcDbLine
 10
970.8125
 20
-229.25
 11
1050.125
 21
-229.25
  0
LINE
  5
1E2
100
AcDbEntity
  8
0
  6
ByBlock
 62
    0
370
   -2
100
AcDbLine
 10
935.8125
 20
-377.75
 11
1050.125
 21
-377.75
  0
ENDBLK
  5
D4
330
D2
100
AcDbEntity
  8
0
100
AcDbBlockEnd
  0
ENDSEC
  0
SECTION
  2
ENTITIES
  0
LINE
  5
1E3
100
AcDbEntity
  8
0
  6
ByLayer
 62
  256
370
   -1
100
AcDbLine
 10
1218.75
 20
-1193.25
 11
1218.75
 21
186.75
  0
LINE
  5
1E4
100
AcDbEntity
  8
0
  6
ByLayer
 62
  256
370
   -1
100
AcDbLine
 10
1200.75
 20
-1193.25
 11
1200.75
 21
186.75
  0
LINE
  5
1E5
100
AcDbEntity
  8
0
  6
ByLayer
 62
  256
370
   -1
100
AcDbLine
 10
900.75
 20
-1193.25
 11
900.75
 21
186.75
  0
LINE
  5
1E6
100
AcDbEntity
  8
0
  6
ByLayer
 62
  256
370
   -1
100
AcDbLine
 10
900.75
 20
-1175.25
 11
1200.75
 21
-1175.25
  0
LINE
  5
1E7
100
AcDbEntity
  8
0
  6
ByLayer
 62
  256
370
   -1
100
AcDbLine
 10
900.75
 20
-211.25
 11
1200.75
 21
-211.25
  0
LINE
  5
1E8
100
AcDbEntity
  8
0
  6
ByLayer
 62
  256
370
   -1
100
AcDbLine
 10
900.75
 20
-229.25
 11
1200.75
 21
-229.25
  0
LINE
  5
1E9
100
AcDbEntity
  8
0
  6
ByLayer
 62
  256
370
   -1
100
AcDbLine
 10
900.75
 20
168.75
 11
1200.75
 21
168.75
  0
LINE
  5
1EA
100
AcDbEntity
  8
0
  6
ByLayer
 62
  256
370
   -1
100
AcDbLine
 10
882.75
 20
-1193.25
 11
882.75
 21
186.75
  0
LINE
  5
1EB
100
AcDbEntity
  8
0
  6
ByLayer
 62
  256
370
   -1
100
AcDbLine
 10
882.75
 20
186.75
 11
1218.75
 21
186.75
  0
LINE
  5
1EC
100
AcDbEntity
  8
0
  6
ByLayer
 62
  256
370
   -1
100
AcDbLine
 10
882.75
 20
-1193.25
 11
1218.75
 21
-1193.25
  0
LINE
  5
1ED
100
AcDbEntity
  8
0
  6
ByLayer
 62
  256
370
   -1
100
AcDbLine
 10
70.75
 20
-1193.25
 11
70.75
 21
186.75
  0
LINE
  5
1EE
100
AcDbEntity
  8
0
  6
ByLayer
 62
  256
370
   -1
100
AcDbLine
 10
70.75
 20
-1193.25
 11
476.75
 21
-1193.25
  0
LINE
  5
1EF
100
AcDbEntity
  8
0
  6
ByLayer
 62
  256
370
   -1
100
AcDbLine
 10
476.75
 20
-1193.25
 11
476.75
 21
186.75
  0
LINE
  5
1F0
100
AcDbEntity
  8
0
  6
ByLayer
 62
  256
370
   -1
100
AcDbLine
 10
70.75
 20
186.75
 11
476.75
 21
186.75
  0
MTEXT
  5
1F1
100
AcDbEntity
  8
0
  6
ByLayer
 62
  256
370
   -1
100
AcDbMText
 10
-900
 20
-1000
 30
0
 40
30
 41
356.6666666666759
 71
    1
 72
    1
  1
1380 x 406 x 336\P\P128 dm3
  7
standard
210
0
220
0
230
1
 50
0
 73
    2
 44
1
  0
CIRCLE
  5
1F2
100
AcDbEntity
  8
0
  6
ByLayer
 62
  256
370
   -1
100
AcDbCircle
 10
273.75
 20
-41.75
 40
166
  0
CIRCLE
  5
1F3
100
AcDbEntity
  8
0
  6
ByLayer
 62
  256
370
   -1
100
AcDbCircle
 10
273.75
 20
-41.75
 40
142
  0
CIRCLE
  5
1F4
100
AcDbEntity
  8
0
  6
ByLayer
 62
  256
370
   -1
100
AcDbCircle
 10
273.75
 20
-41.75
 40
50
  0
ARC
  5
1F5
100
AcDbEntity
  8
0
  6
ByLayer
 62
  256
370
   -1
100
AcDbCircle
 10
180.25
 20
-235.75
 40
4
100
AcDbArc
 50
90
 51
180
  0
LINE
  5
1F6
100
AcDbEntity
  8
0
  6
ByLayer
 62
  256
370
   -1
100
AcDbLine
 10
180.25
 20
-231.75
 11
367.25
 21
-231.75
  0
ARC
  5
1F7
100
AcDbEntity
  8
0
  6
ByLayer
 62
  256
370
   -1
100
AcDbCircle
 10
367.25
 20
-235.75
 40
4
100
AcDbArc
 50
0
 51
90
  0
LINE
  5
1F8
100
AcDbEntity
  8
0
  6
ByLayer
 62
  256
370
   -1
100
AcDbLine
 10
371.25
 20
-382.75
 11
371.25
 21
-235.75
  0
ARC
  5
1F9
100
AcDbEntity
  8
0
  6
ByLayer
 62
  256
370
   -1
100
AcDbCircle
 10
367.25
 20
-382.75
 40
4
100
AcDbArc
 50
270
 51
0
  0
LINE
  5
1FA
100
AcDbEntity
  8
0
  6
ByLayer
 62
  256
370
   -1
100
AcDbLine
 10
180.25
 20
-386.75
 11
367.25
 21
-386.75
  0
LINE
  5
1FB
100
AcDbEntity
  8
0
  6
ByLayer
 62
  256
370
   -1
100
AcDbLine
 10
176.25
 20
-382.75
 11
176.25
 21
-235.75
  0
ARC
  5
1FC
100
AcDbEntity
  8
0
  6
ByLayer
 62
  256
370
   -1
100
AcDbCircle
 10
180.25
 20
-382.75
 40
4
100
AcDbArc
 50
180
 51
270
  0
LINE
  5
1FD
100
AcDbEntity
  8
0
  6
ByLayer
 62
  256
370
   -1
100
AcDbLine
 10
192.25
 20
-247.75
 11
355.25
 21
-247.75
  0
LINE
  5
1FE
100
AcDbEntity
  8
0
  6
ByLayer
 62
  256
370
   -1
100
AcDbLine
 10
192.25
 20
-370.75
 11
192.25
 21
-247.75
  0
LINE
  5
1FF
100
AcDbEntity
  8
0
  6
ByLayer
 62
  256
370
   -1
100
AcDbLine
 10
192.25
 20
-370.75
 11
355.25
 21
-370.75
  0
LINE
  5
200
100
AcDbEntity
  8
0
  6
ByLayer
 62
  256
370
   -1
100
AcDbLine
 10
355.25
 20
-370.75
 11
355.25
 21
-247.75
  0
LINE
  5
201
100
AcDbEntity
  8
0
  6
ByLayer
 62
  256
370
   -1
100
AcDbLine
 10
222.25
 20
-266.75
 11
325.25
 21
-266.75
  0
LINE
  5
202
100
AcDbEntity
  8
0
  6
ByLayer
 62
  256
370
   -1
100
AcDbLine
 10
222.25
 20
-351.75
 11
222.25
 21
-266.75
  0
LINE
  5
203
100
AcDbEntity
  8
0
  6
ByLayer
 62
  256
370
   -1
100
AcDbLine
 10
325.25
 20
-351.75
 11
325.25
 21
-266.75
  0
LINE
  5
204
100
AcDbEntity
  8
0
  6
ByLayer
 62
  256
370
   -1
100
AcDbLine
 10
222.25
 20
-351.75
 11
325.25
 21
-351.75
  0
LINE
  5
205
100
AcDbEntity
  8
0
  6
ByLayer
 62
  256
370
   -1
100
AcDbLine
 10
227.25
 20
-351.75
 11
227.25
 21
-266.75
  0
LINE
  5
206
100
AcDbEntity
  8
0
  6
ByLayer
 62
  256
370
   -1
100
AcDbLine
 10
320.25
 20
-351.75
 11
320.25
 21
-266.75
  0
LINE
  5
207
100
AcDbEntity
  8
0
  6
ByLayer
 62
  256
370
   -1
100
AcDbLine
 10
222.25
 20
-266.75
 11
192.25
 21
-247.75
  0
LINE
  5
208
100
AcDbEntity
  8
0
  6
ByLayer
 62
  256
370
   -1
100
AcDbLine
 10
325.25
 20
-266.75
 11
355.25
 21
-247.75
  0
LINE
  5
209
100
AcDbEntity
  8
0
  6
ByLayer
 62
  256
370
   -1
100
AcDbLine
 10
325.25
 20
-351.75
 11
355.25
 21
-370.75
  0
LINE
  5
20A
100
AcDbEntity
  8
0
  6
ByLayer
 62
  256
370
   -1
100
AcDbLine
 10
222.25
 20
-351.75
 11
192.25
 21
-370.75
  0
CIRCLE
  5
20B
100
AcDbEntity
  8
0
  6
ByLayer
 62
  256
370
   -1
100
AcDbCircle
 10
273.75
 20
-309.25
 40
12.7
  0
CIRCLE
  5
20C
100
AcDbEntity
  8
0
  6
ByLayer
 62
  256
370
   -1
100
AcDbCircle
 10
273.75
 20
-309.25
 40
16
  0
CIRCLE
  5
20D
100
AcDbEntity
  8
0
  6
ByLayer
 62
  256
370
   -1
100
AcDbCircle
 10
273.75
 20
-576.75
 40
166
  0
CIRCLE
  5
20E
100
AcDbEntity
  8
0
  6
ByLayer
 62
  256
370
   -1
100
AcDbCircle
 10
273.75
 20
-576.75
 40
142
  0
CIRCLE
  5
20F
100
AcDbEntity
  8
0
  6
ByLayer
 62
  256
370
   -1
100
AcDbCircle
 10
273.75
 20
-576.75
 40
50
  0
CIRCLE
  5
210
100
AcDbEntity
  8
0
  6
ByLayer
 62
  256
370
   -1
100
AcDbCircle
 10
273.75
 20
-914.65
 40
52.5
  0
CIRCLE
  5
211
100
AcDbEntity
  8
0
  6
ByLayer
 62
  256
370
   -1
100
AcDbCircle
 10
273.75
 20
-914.65
 40
62.5
  0
LINE
  5
212
100
AcDbEntity
  8
0
  6
ByLayer
 62
  256
370
   -1
100
AcDbLine
 10
-529.25
 20
-1193.25
 11
-529.25
 21
186.75
  0
LINE
  5
213
100
AcDbEntity
  8
0
  6
ByLayer
 62
  256
370
   -1
100
AcDbLine
 10
-529.25
 20
-1193.25
 11
-123.25
 21
-1193.25
  0
LINE
  5
214
100
AcDbEntity
  8
0
  6
ByLayer
 62
  256
370
   -1
100
AcDbLine
 10
-123.25
 20
-1193.25
 11
-123.25
 21
186.75
  0
LINE
  5
215
100
AcDbEntity
  8
0
  6
ByLayer
 62
  256
370
   -1
100
AcDbLine
 10
-529.25
 20
186.75
 11
-123.25
 21
186.75
  0
CIRCLE
  5
216
100
AcDbEntity
  8
0
  6
ByLayer
 62
  256
370
   -1
100
AcDbCircle
 10
-326.25
 20
-41.75
 40
166
  0
CIRCLE
  5
217
100
AcDbEntity
  8
0
  6
ByLayer
 62
  256
370
   -1
100
AcDbCircle
 10
-326.25
 20
-41.75
 40
142
  0
CIRCLE
  5
218
100
AcDbEntity
  8
0
  6
ByLayer
 62
  256
370
   -1
100
AcDbCircle
 10
-326.25
 20
-41.75
 40
50
  0
CIRCLE
  5
219
100
AcDbEntity
  8
0
  6
ByLayer
 62
  256
370
   -1
100
AcDbCircle
 10
-326.25
 20
-914.65
 40
52.5
  0
CIRCLE
  5
21A
100
AcDbEntity
  8
0
  6
ByLayer
 62
  256
370
   -1
100
AcDbCircle
 10
-326.25
 20
-914.65
 40
62.5
  0
CIRCLE
  5
21B
100
AcDbEntity
  8
0
  6
ByLayer
 62
  256
370
   -1
100
AcDbCircle
 10
-326.25
 20
-596.75
 40
166
  0
CIRCLE
  5
21C
100
AcDbEntity
  8
0
  6
ByLayer
 62
  256
370
   -1
100
AcDbCircle
 10
-326.25
 20
-596.75
 40
142
  0
CIRCLE
  5
21D
100
AcDbEntity
  8
0
  6
ByLayer
 62
  256
370
   -1
100
AcDbCircle
 10
-326.25
 20
-596.75
 40
50
  0
CIRCLE
  5
21E
100
AcDbEntity
  8
0
  6
ByLayer
 62
  256
370
   -1
100
AcDbCircle
 10
-326.25
 20
-319.25
 40
12.7
  0
CIRCLE
  5
21F
100
AcDbEntity
  8
0
  6
ByLayer
 62
  256
370
   -1
100
AcDbCircle
 10
-326.25
 20
-319.25
 40
16
  0
ARC
  5
220
100
AcDbEntity
  8
0
  6
ByLayer
 62
  256
370
   -1
100
AcDbCircle
 10
-442.25
 20
-225.25
 40
5
100
AcDbArc
 50
90
 51
180
  0
LINE
  5
221
100
AcDbEntity
  8
0
  6
ByLayer
 62
  256
370
   -1
100
AcDbLine
 10
-442.25
 20
-220.25
 11
-210.25
 21
-220.25
  0
ARC
  5
222
100
AcDbEntity
  8
0
  6
ByLayer
 62
  256
370
   -1
100
AcDbCircle
 10
-210.25
 20
-225.25
 40
5
100
AcDbArc
 50
0
 51
90
  0
LINE
  5
223
100
AcDbEntity
  8
0
  6
ByLayer
 62
  256
370
   -1
100
AcDbLine
 10
-205.25
 20
-413.25
 11
-205.25
 21
-225.25
  0
ARC
  5
224
100
AcDbEntity
  8
0
  6
ByLayer
 62
  256
370
   -1
100
AcDbCircle
 10
-210.25
 20
-413.25
 40
5
100
AcDbArc
 50
270
 51
0
  0
LINE
  5
225
100
AcDbEntity
  8
0
  6
ByLayer
 62
  256
370
   -1
100
AcDbLine
 10
-442.25
 20
-418.25
 11
-210.25
 21
-418.25
  0
LINE
  5
226
100
AcDbEntity
  8
0
  6
ByLayer
 62
  256
370
   -1
100
AcDbLine
 10
-447.25
 20
-413.25
 11
-447.25
 21
-225.25
  0
ARC
  5
227
100
AcDbEntity
  8
0
  6
ByLayer
 62
  256
370
   -1
100
AcDbCircle
 10
-442.25
 20
-413.25
 40
5
100
AcDbArc
 50
180
 51
270
  0
LINE
  5
228
100
AcDbEntity
  8
0
  6
ByLayer
 62
  256
370
   -1
100
AcDbLine
 10
-428.75
 20
-401.75
 11
-428.75
 21
-236.75
  0
LINE
  5
229
100
AcDbEntity
  8
0
  6
ByLayer
 62
  256
370
   -1
100
AcDbLine
 10
-428.75
 20
-401.75
 11
-223.75
 21
-401.75
  0
LINE
  5
22A
100
AcDbEntity
  8
0
  6
ByLayer
 62
  256
370
   -1
100
AcDbLine
 10
-223.75
 20
-401.75
 11
-223.75
 21
-236.75
  0
LINE
  5
22B
100
AcDbEntity
  8
0
  6
ByLayer
 62
  256
370
   -1
100
AcDbLine
 10
-412.75
 20
-385.75
 11
-412.75
 21
-252.75
  0
LINE
  5
22C
100
AcDbEntity
  8
0
  6
ByLayer
 62
  256
370
   -1
100
AcDbLine
 10
-412.75
 20
-385.75
 11
-239.75
 21
-385.75
  0
LINE
  5
22D
100
AcDbEntity
  8
0
  6
ByLayer
 62
  256
370
   -1
100
AcDbLine
 10
-428.75
 20
-236.75
 11
-223.75
 21
-236.75
  0
LINE
  5
22E
100
AcDbEntity
  8
0
  6
ByLayer
 62
  256
370
   -1
100
AcDbLine
 10
-412.75
 20
-252.75
 11
-239.75
 21
-252.75
  0
LINE
  5
22F
100
AcDbEntity
  8
0
  6
ByLayer
 62
  256
370
   -1
100
AcDbLine
 10
-239.75
 20
-385.75
 11
-239.75
 21
-252.75
  0
LINE
  5
230
100
AcDbEntity
  8
0
  6
ByLayer
 62
  256
370
   -1
100
AcDbLine
 10
-428.75
 20
-236.75
 11
-412.75
 21
-252.75
  0
LINE
  5
231
100
AcDbEntity
  8
0
  6
ByLayer
 62
  256
370
   -1
100
AcDbLine
 10
-239.75
 20
-252.75
 11
-223.75
 21
-236.75
  0
LINE
  5
232
100
AcDbEntity
  8
0
  6
ByLayer
 62
  256
370
   -1
100
AcDbLine
 10
-239.75
 20
-385.75
 11
-223.75
 21
-401.75
  0
LINE
  5
233
100
AcDbEntity
  8
0
  6
ByLayer
 62
  256
370
   -1
100
AcDbLine
 10
-412.75
 20
-385.75
 11
-428.75
 21
-401.75
  0
LINE
  5
234
100
AcDbEntity
  8
0
  6
ByLayer
 62
  256
370
   -1
100
AcDbLine
 10
-412.75
 20
-252.75
 11
-338.9347090562047
 21
-309.4981716504322
  0
LINE
  5
235
100
AcDbEntity
  8
0
  6
ByLayer
 62
  256
370
   -1
100
AcDbLine
 10
-313.5652909437953
 20
-309.4981716504322
 11
-239.75
 21
-252.75
  0
LINE
  5
236
100
AcDbEntity
  8
0
  6
ByLayer
 62
  256
370
   -1
100
AcDbLine
 10
-313.5652909437953
 20
-329.0018283495678
 11
-239.75
 21
-385.75
  0
LINE
  5
237
100
AcDbEntity
  8
0
  6
ByLayer
 62
  256
370
   -1
100
AcDbLine
 10
-338.9347090562047
 20
-329.0018283495678
 11
-412.75
 21
-385.75
  0
LINE
  5
238
100
AcDbEntity
  8
0
  6
ByLayer
 62
  256
370
   -1
100
AcDbLine
 10
3970.75
 20
-1193.25
 11
3970.75
 21
186.75
  0
LINE
  5
239
100
AcDbEntity
  8
0
  6
ByLayer
 62
  256
370
   -1
100
AcDbLine
 10
3970.75
 20
-1193.25
 11
4376.75
 21
-1193.25
  0
LINE
  5
23A
100
AcDbEntity
  8
0
  6
ByLayer
 62
  256
370
   -1
100
AcDbLine
 10
4376.75
 20
-1193.25
 11
4376.75
 21
186.75
  0
LINE
  5
23B
100
AcDbEntity
  8
0
  6
ByLayer
 62
  256
370
   -1
100
AcDbLine
 10
3970.75
 20
186.75
 11
4376.75
 21
186.75
  0
CIRCLE
  5
23C
100
AcDbEntity
  8
0
  6
ByLayer
 62
  256
370
   -1
100
AcDbCircle
 10
4173.75
 20
-605.25
 40
166
  0
CIRCLE
  5
23D
100
AcDbEntity
  8
0
  6
ByLayer
 62
  256
370
   -1
100
AcDbCircle
 10
4173.75
 20
-605.25
 40
142
  0
CIRCLE
  5
23E
100
AcDbEntity
  8
0
  6
ByLayer
 62
  256
370
   -1
100
AcDbCircle
 10
4173.75
 20
-605.25
 40
50
  0
CIRCLE
  5
23F
100
AcDbEntity
  8
0
  6
ByLayer
 62
  256
370
   -1
100
AcDbCircle
 10
4173.75
 20
-250.75
 40
166
  0
CIRCLE
  5
240
100
AcDbEntity
  8
0
  6
ByLayer
 62
  256
370
   -1
100
AcDbCircle
 10
4173.75
 20
-250.75
 40
142
  0
CIRCLE
  5
241
100
AcDbEntity
  8
0
  6
ByLayer
 62
  256
370
   -1
100
AcDbCircle
 10
4173.75
 20
-250.75
 40
50
  0
CIRCLE
  5
242
100
AcDbEntity
  8
0
  6
ByLayer
 62
  256
370
   -1
100
AcDbCircle
 10
4173.75
 20
32.25
 40
12.7
  0
CIRCLE
  5
243
100
AcDbEntity
  8
0
  6
ByLayer
 62
  256
370
   -1
100
AcDbCircle
 10
4270
 20
106.25
 40
3.25
  0
CIRCLE
  5
244
100
AcDbEntity
  8
0
  6
ByLayer
 62
  256
370
   -1
100
AcDbCircle
 10
4270
 20
-41.75
 40
3.25
  0
CIRCLE
  5
245
100
AcDbEntity
  8
0
  6
ByLayer
 62
  256
370
   -1
100
AcDbCircle
 10
4077.5
 20
-41.75
 40
3.25
  0
CIRCLE
  5
246
100
AcDbEntity
  8
0
  6
ByLayer
 62
  256
370
   -1
100
AcDbCircle
 10
4077.5
 20
106.25
 40
3.25
  0
CIRCLE
  5
247
100
AcDbEntity
  8
0
  6
ByLayer
 62
  256
370
   -1
100
AcDbCircle
 10
4077.5
 20
106.25
 40
5.5
  0
CIRCLE
  5
248
100
AcDbEntity
  8
0
  6
ByLayer
 62
  256
370
   -1
100
AcDbCircle
 10
4077.5
 20
-41.75
 40
5.5
  0
CIRCLE
  5
249
100
AcDbEntity
  8
0
  6
ByLayer
 62
  256
370
   -1
100
AcDbCircle
 10
4270
 20
106.25
 40
5.5
  0
CIRCLE
  5
24A
100
AcDbEntity
  8
0
  6
ByLayer
 62
  256
370
   -1
100
AcDbCircle
 10
4270
 20
-41.75
 40
5.5
  0
ARC
  5
24B
100
AcDbEntity
  8
0
  6
ByLayer
 62
  256
370
   -1
100
AcDbCircle
 10
4101.25
 20
81.75
 40
45
100
AcDbArc
 50
90
 51
180
  0
LINE
  5
24C
100
AcDbEntity
  8
0
  6
ByLayer
 62
  256
370
   -1
100
AcDbLine
 10
4056.25
 20
-17.25
 11
4056.25
 21
81.75
  0
ARC
  5
24D
100
AcDbEntity
  8
0
  6
ByLayer
 62
  256
370
   -1
100
AcDbCircle
 10
4101.25
 20
-17.25
 40
45
100
AcDbArc
 50
180
 51
270
  0
LINE
  5
24E
100
AcDbEntity
  8
0
  6
ByLayer
 62
  256
370
   -1
100
AcDbLine
 10
4101.25
 20
-62.25
 11
4246.25
 21
-62.25
  0
ARC
  5
24F
100
AcDbEntity
  8
0
  6
ByLayer
 62
  256
370
   -1
100
AcDbCircle
 10
4246.25
 20
-17.25
 40
45
100
AcDbArc
 50
270
 51
0
  0
LINE
  5
250
100
AcDbEntity
  8
0
  6
ByLayer
 62
  256
370
   -1
100
AcDbLine
 10
4291.25
 20
-17.25
 11
4291.25
 21
81.75
  0
LINE
  5
251
100
AcDbEntity
  8
0
  6
ByLayer
 62
  256
370
   -1
100
AcDbLine
 10
4101.25
 20
126.75
 11
4246.25
 21
126.75
  0
ARC
  5
252
100
AcDbEntity
  8
0
  6
ByLayer
 62
  256
370
   -1
100
AcDbCircle
 10
4246.25
 20
81.75
 40
45
100
AcDbArc
 50
0
 51
90
  0
ELLIPSE
  5
253
100
AcDbEntity
  8
0
  6
ByLayer
 62
  256
370
   -1
100
AcDbEllipse
 10
4173.75
 20
32.25
 30
0
 11
107.5
 21
0
 31
0
 40
0.786046511627907
 41
0
 42
6.283185307179586
  0
LINE
  5
254
100
AcDbEntity
  8
0
  6
ByLayer
 62
  256
370
   -1
100
AcDbLine
 10
1470.75
 20
-1193.25
 11
1470.75
 21
186.75
  0
LINE
  5
255
100
AcDbEntity
  8
0
  6
ByLayer
 62
  256
370
   -1
100
AcDbLine
 10
1470.75
 20
-1193.25
 11
1876.75
 21
-1193.25
  0
LINE
  5
256
100
AcDbEntity
  8
0
  6
ByLayer
 62
  256
370
   -1
100
AcDbLine
 10
1876.75
 20
-1193.25
 11
1876.75
 21
186.75
  0
LINE
  5
257
100
AcDbEntity
  8
0
  6
ByLayer
 62
  256
370
   -1
100
AcDbLine
 10
1470.75
 20
186.75
 11
1876.75
 21
186.75
  0
CIRCLE
  5
258
100
AcDbEntity
  8
0
  6
ByLayer
 62
  256
370
   -1
100
AcDbCircle
 10
1673.75
 20
-39.25
 40
166
  0
CIRCLE
  5
259
100
AcDbEntity
  8
0
  6
ByLayer
 62
  256
370
   -1
100
AcDbCircle
 10
1673.75
 20
-39.25
 40
142
  0
CIRCLE
  5
25A
100
AcDbEntity
  8
0
  6
ByLayer
 62
  256
370
   -1
100
AcDbCircle
 10
1673.75
 20
-39.25
 40
50
  0
LINE
  5
25B
100
AcDbEntity
  8
0
  6
DASHDOTTINY
 62
  256
370
    0
100
AcDbLine
 10
1218.75
 20
-211.25
 11
1876.75
 21
-211.25
  0
LINE
  5
25C
100
AcDbEntity
  8
0
  6
DASHDOTTINY
 62
  256
370
    0
100
AcDbLine
 10
1218.75
 20
-229.25
 11
1876.75
 21
-229.25
  0
LINE
  5
25D
100
AcDbEntity
  8
0
  6
ByLayer
 62
  256
370
   -1
100
AcDbLine
 10
-529.25
 20
-1233.25
 11
4376.75
 21
-1233.25
  0
CIRCLE
  5
25E
100
AcDbEntity
  8
0
  6
ByLayer
 62
  256
370
   -1
100
AcDbCircle
 10
1673.75
 20
-323.25
 40
12.7
  0
ARC
  5
25F
100
AcDbEntity
  8
0
  6
ByLayer
 62
  256
370
   -1
100
AcDbCircle
 10
1601.25
 20
-273.75
 40
45
100
AcDbArc
 50
90
 51
180
  0
LINE
  5
260
100
AcDbEntity
  8
0
  6
ByLayer
 62
  256
370
   -1
100
AcDbLine
 10
1556.25
 20
-372.75
 11
1556.25
 21
-273.75
  0
ARC
  5
261
100
AcDbEntity
  8
0
  6
ByLayer
 62
  256
370
   -1
100
AcDbCircle
 10
1601.25
 20
-372.75
 40
45
100
AcDbArc
 50
180
 51
270
  0
LINE
  5
262
100
AcDbEntity
  8
0
  6
ByLayer
 62
  256
370
   -1
100
AcDbLine
 10
1601.25
 20
-417.75
 11
1746.25
 21
-417.75
  0
ARC
  5
263
100
AcDbEntity
  8
0
  6
ByLayer
 62
  256
370
   -1
100
AcDbCircle
 10
1746.25
 20
-372.75
 40
45
100
AcDbArc
 50
270
 51
0
  0
LINE
  5
264
100
AcDbEntity
  8
0
  6
ByLayer
 62
  256
370
   -1
100
AcDbLine
 10
1791.25
 20
-372.75
 11
1791.25
 21
-273.75
  0
LINE
  5
265
100
AcDbEntity
  8
0
  6
ByLayer
 62
  256
370
   -1
100
AcDbLine
 10
1601.25
 20
-228.75
 11
1746.25
 21
-228.75
  0
ARC
  5
266
100
AcDbEntity
  8
0
  6
ByLayer
 62
  256
370
   -1
100
AcDbCircle
 10
1746.25
 20
-273.75
 40
45
100
AcDbArc
 50
0
 51
90
  0
ELLIPSE
  5
267
100
AcDbEntity
  8
0
  6
ByLayer
 62
  256
370
   -1
100
AcDbEllipse
 10
1673.75
 20
-323.25
 30
0
 11
107.5
 21
0
 31
0
 40
0.786046511627907
 41
0
 42
6.283185307179586
  0
CIRCLE
  5
268
100
AcDbEntity
  8
0
  6
ByLayer
 62
  256
370
   -1
100
AcDbCircle
 10
1769.25
 20
-250.75
 40
3
  0
CIRCLE
  5
269
100
AcDbEntity
  8
0
  6
ByLayer
 62
  256
370
   -1
100
AcDbCircle
 10
1578.25
 20
-250.75
 40
3
  0
CIRCLE
  5
26A
100
AcDbEntity
  8
0
  6
ByLayer
 62
  256
370
   -1
100
AcDbCircle
 10
1578.25
 20
-395.75
 40
3
  0
CIRCLE
  5
26B
100
AcDbEntity
  8
0
  6
ByLayer
 62
  256
370
   -1
100
AcDbCircle
 10
1769.25
 20
-395.75
 40
3
  0
CIRCLE
  5
26C
100
AcDbEntity
  8
0
  6
ByLayer
 62
  256
370
   -1
100
AcDbCircle
 10
1769.25
 20
-250.75
 40
7
  0
CIRCLE
  5
26D
100
AcDbEntity
  8
0
  6
ByLayer
 62
  256
370
   -1
100
AcDbCircle
 10
1578.25
 20
-250.75
 40
7
  0
CIRCLE
  5
26E
100
AcDbEntity
  8
0
  6
ByLayer
 62
  256
370
   -1
100
AcDbCircle
 10
1578.25
 20
-395.75
 40
7
  0
CIRCLE
  5
26F
100
AcDbEntity
  8
0
  6
ByLayer
 62
  256
370
   -1
100
AcDbCircle
 10
1769.25
 20
-395.75
 40
7
  0
ELLIPSE
  5
270
100
AcDbEntity
  8
0
  6
DASHEDTINY
 62
  256
370
    0
100
AcDbEllipse
 10
1673.75
 20
-323.25
 30
0
 11
101.5
 21
0
 31
0
 40
0.7733990147783252
 41
0
 42
6.283185307179586
  0
CIRCLE
  5
271
100
AcDbEntity
  8
0
  6
ByLayer
 62
  256
370
   -1
100
AcDbCircle
 10
1673.75
 20
-607.25
 40
166
  0
CIRCLE
  5
272
100
AcDbEntity
  8
0
  6
ByLayer
 62
  256
370
   -1
100
AcDbCircle
 10
1673.75
 20
-607.25
 40
142
  0
CIRCLE
  5
273
100
AcDbEntity
  8
0
  6
ByLayer
 62
  256
370
   -1
100
AcDbCircle
 10
1673.75
 20
-607.25
 40
50
  0
LINE
  5
274
100
AcDbEntity
  8
0
  6
ByLayer
 62
  256
370
   -1
100
AcDbLine
 10
900.75
 20
-815.25
 11
1200.75
 21
-815.25
  0
LINE
  5
275
100
AcDbEntity
  8
0
  6
ByLayer
 62
  256
370
   -1
100
AcDbLine
 10
900.75
 20
-833.25
 11
1200.75
 21
-833.25
  0
LINE
  5
276
100
AcDbEntity
  8
0
  6
ByLayer
 62
  256
370
   -1
100
AcDbLine
 10
900.75
 20
-417.25
 11
1200.75
 21
-417.25
  0
LINE
  5
277
100
AcDbEntity
  8
0
  6
ByLayer
 62
  256
370
   -1
100
AcDbLine
 10
900.75
 20
-435.25
 11
1200.75
 21
-435.25
  0
LINE
  5
278
100
AcDbEntity
  8
0
  6
DASHDOTTINY
 62
  256
370
    0
100
AcDbLine
 10
1218.75
 20
-435.25
 11
1876.75
 21
-435.25
  0
LINE
  5
279
100
AcDbEntity
  8
0
  6
DASHDOTTINY
 62
  256
370
    0
100
AcDbLine
 10
1218.75
 20
-417.25
 11
1876.75
 21
-417.25
  0
LINE
  5
27A
100
AcDbEntity
  8
0
  6
DASHDOTTINY
 62
  256
370
    0
100
AcDbLine
 10
1218.75
 20
-815.25
 11
1876.75
 21
-815.25
  0
LINE
  5
27B
100
AcDbEntity
  8
0
  6
DASHDOTTINY
 62
  256
370
    0
100
AcDbLine
 10
1218.75
 20
-833.25
 11
1876.75
 21
-833.25
  0
DIMENSION
  5
27C
100
AcDbEntity
  8
0
  6
CONTINUOUS
 62
  256
370
    0
100
AcDbDimension
  2
*D1
 10
1592.732300441148
 20
77.36960537658989
 30
0
 11
1638.990004006744
 21
23.05363294823841
 31
0
 70
   33
 71
    5
  3
Standard
 53
0
210
0
220
0
230
1
100
AcDbAlignedDimension
 13
1673.75
 23
-39.25
 33
0
 14
1592.732300441148
 24
77.3696053765899
 34
0
  0
DIMENSION
  5
27D
100
AcDbEntity
  8
0
  6
CONTINUOUS
 62
  256
370
    0
100
AcDbDimension
  2
*D2
 10
1923.802073105099
 20
-39.25000000000004
 30
0
 11
1916.802073105099
 21
73.75000000000001
 31
0
 70
   32
 71
    5
  3
Standard
 53
0
210
0
220
0
230
1
100
AcDbAlignedDimension
 13
1876.75
 23
186.75
 33
0
 14
1673.75
 24
-39.25
 34
0
 50
90
100
AcDbRotatedDimension
  0
DIMENSION
  5
27E
100
AcDbEntity
  8
0
  6
CONTINUOUS
 62
  256
370
    0
100
AcDbDimension
  2
*D3
 10
1962.614276316888
 20
-323.25
 30
0
 11
1955.614276316888
 21
-68.25
 31
0
 70
   32
 71
    5
  3
Standard
 53
0
210
0
220
0
230
1
100
AcDbAlignedDimension
 13
1876.75
 23
186.75
 33
0
 14
1673.75
 24
-323.25
 34
0
 50
90
100
AcDbRotatedDimension
  0
DIMENSION
  5
27F
100
AcDbEntity
  8
0
  6
CONTINUOUS
 62
  256
370
    0
100
AcDbDimension
  2
*D4
 10
1999.833803074174
 20
-607.25
 30
0
 11
1992.833803074174
 21
-210.25
 31
0
 70
   32
 71
    5
  3
Standard
 53
0
210
0
220
0
230
1
100
AcDbAlignedDimension
 13
1876.75
 23
186.75
 33
0
 14
1673.75
 24
-607.25
 34
0
 50
90
100
AcDbRotatedDimension
  0
DIMENSION
  5
280
100
AcDbEntity
  8
0
  6
CONTINUOUS
 62
  256
370
    0
100
AcDbDimension
  2
*D5
 10
1876.75
 20
234.7693226228826
 30
0
 11
1673.75
 21
241.7693226228826
 31
0
 70
   32
 71
    5
  3
Standard
 53
0
210
0
220
0
230
1
100
AcDbAlignedDimension
 13
1470.75
 23
186.75
 33
0
 14
1876.75
 24
186.75
 34
0
100
AcDbRotatedDimension
  0
DIMENSION
  5
281
100
AcDbEntity
  8
0
  6
CONTINUOUS
 62
  256
370
    0
100
AcDbDimension
  2
*D6
 10
1572.250000000003
 20
-323.2499999999999
 30
0
 11
1623.000000000001
 21
-316.2499999999999
 31
0
 70
   32
 71
    5
  3
Standard
 53
0
210
0
220
0
230
1
100
AcDbAlignedDimension
 13
1673.75
 23
-323.25
 33
0
 14
1572.250000000003
 24
-323.2499999999999
 34
0
100
AcDbRotatedDimension
  0
DIMENSION
  5
282
100
AcDbEntity
  8
0
  6
CONTINUOUS
 62
  256
370
    0
100
AcDbDimension
  2
*D7
 10
1673.75
 20
-244.749999999999
 30
0
 11
1666.75
 21
-283.9999999999995
 31
0
 70
   32
 71
    5
  3
Standard
 53
0
210
0
220
0
230
1
100
AcDbAlignedDimension
 13
1673.75
 23
-323.25
 33
0
 14
1673.75
 24
-244.749999999999
 34
0
 50
90
100
AcDbRotatedDimension
  0
DIMENSION
  5
283
100
AcDbEntity
  8
0
  6
CONTINUOUS
 62
  256
370
    0
100
AcDbDimension
  2
*D8
 10
1547.75
 20
-228.75
 30
0
 11
1540.75
 21
-323.25
 31
0
 70
   32
 71
    5
  3
Standard
 53
0
210
0
220
0
230
1
100
AcDbAlignedDimension
 13
1673.75
 23
-417.75
 33
0
 14
1673.75
 24
-228.75
 34
0
 50
90
100
AcDbRotatedDimension
  0
DIMENSION
  5
284
100
AcDbEntity
  8
0
  6
CONTINUOUS
 62
  256
370
    0
100
AcDbDimension
  2
*D9
 10
1550.571626738365
 20
-150.5293258454479
 30
0
 11
1607.468311676904
 21
-89.69539417072733
 31
0
 70
   33
 71
    5
  3
Standard
 53
0
210
0
220
0
230
1
100
AcDbAlignedDimension
 13
1673.75
 23
-39.25
 33
0
 14
1550.571626738365
 24
-150.5293258454479
 34
0
  0
CIRCLE
  5
285
100
AcDbEntity
  8
0
  6
ByLayer
 62
  256
370
   -1
100
AcDbCircle
 10
2247
 20
-56
 40
38
  0
CIRCLE
  5
286
100
AcDbEntity
  8
0
  6
ByLayer
 62
  256
370
   -1
100
AcDbCircle
 10
2338
 20
-56
 40
38
  0
CIRCLE
  5
287
100
AcDbEntity
  8
0
  6
ByLayer
 62
  256
370
   -1
100
AcDbCircle
 10
2432
 20
-56
 40
38
  0
CIRCLE
  5
288
100
AcDbEntity
  8
0
  6
ByLayer
 62
  256
370
   -1
100
AcDbCircle
 10
2523
 20
-56
 40
38
  0
CIRCLE
  5
289
100
AcDbEntity
  8
0
  6
ByLayer
 62
  256
370
   -1
100
AcDbCircle
 10
2247
 20
-150
 40
38
  0
CIRCLE
  5
28A
100
AcDbEntity
  8
0
  6
ByLayer
 62
  256
370
   -1
100
AcDbCircle
 10
2338
 20
-150
 40
38
  0
CIRCLE
  5
28B
100
AcDbEntity
  8
0
  6
ByLayer
 62
  256
370
   -1
100
AcDbCircle
 10
2432
 20
-150
 40
38
  0
CIRCLE
  5
28C
100
AcDbEntity
  8
0
  6
ByLayer
 62
  256
370
   -1
100
AcDbCircle
 10
2523
 20
-150
 40
38
  0
CIRCLE
  5
28D
100
AcDbEntity
  8
0
  6
ByLayer
 62
  256
370
   -1
100
AcDbCircle
 10
2247
 20
-244
 40
38
  0
CIRCLE
  5
28E
100
AcDbEntity
  8
0
  6
ByLayer
 62
  256
370
   -1
100
AcDbCircle
 10
2338
 20
-244
 40
38
  0
CIRCLE
  5
28F
100
AcDbEntity
  8
0
  6
ByLayer
 62
  256
370
   -1
100
AcDbCircle
 10
2432
 20
-244
 40
38
  0
CIRCLE
  5
290
100
AcDbEntity
  8
0
  6
ByLayer
 62
  256
370
   -1
100
AcDbCircle
 10
2523
 20
-244
 40
38
  0
LINE
  5
291
100
AcDbEntity
  8
0
  6
ByLayer
 62
  256
370
   -1
100
AcDbLine
 10
2200
 20
-400
 11
2348
 21
-400
  0
LINE
  5
292
100
AcDbEntity
  8
0
  6
ByLayer
 62
  256
370
   -1
100
AcDbLine
 10
2348
 20
-400
 11
2348
 21
-780
  0
LINE
  5
293
100
AcDbEntity
  8
0
  6
ByLayer
 62
  256
370
   -1
100
AcDbLine
 10
2348
 20
-780
 11
2200
 21
-780
  0
LINE
  5
294
100
AcDbEntity
  8
0
  6
ByLayer
 62
  256
370
   -1
100
AcDbLine
 10
2200
 20
-780
 11
2200
 21
-400
  0
LINE
  5
295
100
AcDbEntity
  8
0
  6
ByLayer
 62
  256
370
   -1
100
AcDbLine
 10
2200
 20
-590
 11
2348
 21
-590
  0
LINE
  5
296
100
AcDbEntity
  8
0
  6
ByLayer
 62
  256
370
   -1
100
AcDbLine
 10
2274
 20
-780
 11
2274
 21
-400
  0
CIRCLE
  5
297
100
AcDbEntity
  8
0
  6
ByLayer
 62
  256
370
   -1
100
AcDbCircle
 10
2274
 20
-590
 40
45
  0
LINE
  5
298
100
AcDbEntity
  8
0
  6
ByLayer
 62
  256
370
   -1
100
AcDbLine
 10
2348
 20
-707.5
 11
2200
 21
-707.5
  0
LINE
  5
299
100
AcDbEntity
  8
0
  6
ByLayer
 62
  256
370
   -1
100
AcDbLine
 10
2200
 20
-472.5
 11
2348
 21
-472.5
  0
CIRCLE
  5
29A
100
AcDbEntity
  8
0
  6
ByLayer
 62
  256
370
   -1
100
AcDbCircle
 10
2274
 20
-707.5
 40
45
  0
CIRCLE
  5
29B
100
AcDbEntity
  8
0
  6
ByLayer
 62
  256
370
   -1
100
AcDbCircle
 10
2274
 20
-472.5
 40
45
  0
LINE
  5
29C
100
AcDbEntity
  8
0
  6
ByLayer
 62
  256
370
   -1
100
AcDbLine
 10
2570
 20
-300
 11
2570
 21
0
  0
LINE
  5
29D
100
AcDbEntity
  8
0
  6
ByLayer
 62
  256
370
   -1
100
AcDbLine
 10
2200
 20
0
 11
2200
 21
-300
  0
DIMENSION
  5
29E
100
AcDbEntity
  8
0
  6
ByLayer
 62
  256
370
   -1
100
AcDbDimension
  2
*D10
 10
2170
 20
-400
 30
0
 11
2163
 21
-436.25
 31
0
 70
   32
 71
    5
 72
    0
  3
Standard
 53
0
210
0
220
0
230
1
100
AcDbAlignedDimension
 13
2200
 23
-472.5
 33
0
 14
2200
 24
-400
 34
0
 50
90
100
AcDbRotatedDimension
  0
DIMENSION
  5
29F
100
AcDbEntity
  8
0
  6
ByLayer
 62
  256
370
   -1
100
AcDbDimension
  2
*D11
 10
2140
 20
-400
 30
0
 11
2133
 21
-495
 31
0
 70
   32
 71
    5
 72
    0
  3
Standard
 53
0
210
0
220
0
230
1
100
AcDbAlignedDimension
 13
2200
 23
-590
 33
0
 14
2200
 24
-400
 34
0
 50
90
100
AcDbRotatedDimension
  0
DIMENSION
  5
2A0
100
AcDbEntity
  8
0
  6
ByLayer
 62
  256
370
   -1
100
AcDbDimension
  2
*D12
 10
2380
 20
-400
 30
0
 11
2373
 21
-590
 31
0
 70
   32
 71
    5
 72
    0
  3
Standard
 53
0
210
0
220
0
230
1
100
AcDbAlignedDimension
 13
2348
 23
-780
 33
0
 14
2348
 24
-400
 34
0
 50
90
100
AcDbRotatedDimension
  0
DIMENSION
  5
2A1
100
AcDbEntity
  8
0
  6
ByLayer
 62
  256
370
   -1
100
AcDbDimension
  2
*D13
 10
2348
 20
-370
 30
0
 11
2274
 21
-363
 31
0
 70
   32
 71
    5
 72
    0
  3
Standard
 53
0
210
0
220
0
230
1
100
AcDbAlignedDimension
 13
2200
 23
-400
 33
0
 14
2348
 24
-400
 34
0
100
AcDbRotatedDimension
  0
LINE
  5
2A2
100
AcDbEntity
  8
0
  6
ByLayer
 62
  256
370
   -1
100
AcDbLine
 10
974.75
 20
-1193.25
 11
974.75
 21
-915.25
  0
LINE
  5
2A3
100
AcDbEntity
  8
0
  6
ByLayer
 62
  256
370
   -1
100
AcDbLine
 10
1126.75
 20
-1193.25
 11
1126.75
 21
-915.25
  0
LINE
  5
2A4
100
AcDbEntity
  8
0
  6
ByLayer
 62
  256
370
   -1
100
AcDbLine
 10
1130.75
 20
-1193.25
 11
1130.75
 21
-915.25
  0
LINE
  5
2A5
100
AcDbEntity
  8
0
  6
ByLayer
 62
  256
370
   -1
100
AcDbLine
 10
970.75
 20
-915.25
 11
1130.75
 21
-915.25
  0
DIMENSION
  5
2A6
100
AcDbEntity
  8
0
  6
ByLayer
 62
  256
370
   -1
100
AcDbDimension
  2
*D14
 10
1200.75
 20
-1056.936446774746
 30
0
 11
1165.75
 21
-1049.936446774746
 31
0
 70
   32
 71
    5
  3
Standard
 53
0
210
0
220
0
230
1
100
AcDbAlignedDimension
 13
1130.75
 23
-1056.936446774746
 33
0
 14
1200.75
 24
-1056.936446774746
 34
0
100
AcDbRotatedDimension
  0
LINE
  5
2A7
100
AcDbEntity
  8
0
  6
ByLayer
 62
  256
370
   -1
100
AcDbLine
 10
1218.75
 20
400
 11
1218.75
 21
806
  0
LINE
  5
2A8
100
AcDbEntity
  8
0
  6
ByLayer
 62
  256
370
   -1
100
AcDbLine
 10
882.75
 20
806
 11
1218.75
 21
806
  0
LINE
  5
2A9
100
AcDbEntity
  8
0
  6
ByLayer
 62
  256
370
   -1
100
AcDbLine
 10
882.75
 20
400
 11
882.75
 21
806
  0
LINE
  5
2AA
100
AcDbEntity
  8
0
  6
ByLayer
 62
  256
370
   -1
100
AcDbLine
 10
882.75
 20
400
 11
1218.75
 21
400
  0
LINE
  5
2AB
100
AcDbEntity
  8
0
  6
ByLayer
 62
  256
370
   -1
100
AcDbLine
 10
900.75
 20
400
 11
900.75
 21
806
  0
LINE
  5
2AC
100
AcDbEntity
  8
0
  6
ByLayer
 62
  256
370
   -1
100
AcDbLine
 10
1200.75
 20
400
 11
1200.75
 21
806
  0
LINE
  5
2AD
100
AcDbEntity
  8
0
  6
ByLayer
 62
  256
370
   -1
100
AcDbLine
 10
900.75
 20
788
 11
1200.75
 21
788
  0
LINE
  5
2AE
100
AcDbEntity
  8
0
  6
ByLayer
 62
  256
370
   -1
100
AcDbLine
 10
900.75
 20
418
 11
1200.75
 21
418
  0
LINE
  5
2AF
100
AcDbEntity
  8
0
  6
ByLayer
 62
  256
370
   -1
100
AcDbLine
 10
1048.75
 20
-211.25
 11
1048.75
 21
168.75
  0
LINE
  5
2B0
100
AcDbEntity
  8
0
  6
ByLayer
 62
  256
370
   -1
100
AcDbLine
 10
1048.75
 20
-815.25
 11
1048.75
 21
-435.25
  0
LINE
  5
2B1
100
AcDbEntity
  8
0
  6
ByLayer
 62
  256
370
   -1
100
AcDbLine
 10
1048.75
 20
594
 11
1048.75
 21
612
  0
LINE
  5
2B2
100
AcDbEntity
  8
0
  6
ByLayer
 62
  256
370
   -1
100
AcDbLine
 10
900.75
 20
612
 11
1048.75
 21
612
  0
LINE
  5
2B3
100
AcDbEntity
  8
0
  6
ByLayer
 62
  256
370
   -1
100
AcDbLine
 10
900.75
 20
594
 11
1048.75
 21
594
  0
DIMENSION
  5
2B4
100
AcDbEntity
  8
0
  6
CONTINUOUS
 62
  256
370
    0
100
AcDbDimension
  2
*D15
 10
1170.645844586595
 20
-211.25
 30
0
 11
1163.645844586595
 21
-21.25
 31
0
 70
   32
 71
    5
  3
Standard
 53
0
210
0
220
0
230
1
100
AcDbAlignedDimension
 13
1135.835496138865
 23
168.75
 33
0
 14
1135.835496138865
 24
-211.25
 34
0
 50
90
100
AcDbRotatedDimension
  0
DIMENSION
  5
2B5
100
AcDbEntity
  8
0
  6
CONTINUOUS
 62
  256
370
    0
100
AcDbDimension
  2
*D16
 10
1170.645844586595
 20
-417.25
 30
0
 11
1163.645844586595
 21
-323.25
 31
0
 70
   32
 71
    5
  3
Standard
 53
0
210
0
220
0
230
1
100
AcDbAlignedDimension
 13
1188.280950969918
 23
-229.25
 33
0
 14
1194.924923372856
 24
-417.25
 34
0
 50
90
100
AcDbRotatedDimension
  0
DIMENSION
  5
2B6
100
AcDbEntity
  8
0
  6
CONTINUOUS
 62
  256
370
    0
100
AcDbDimension
  2
*D17
 10
1170.645844586595
 20
-815.25
 30
0
 11
1163.645844586595
 21
-625.25
 31
0
 70
   32
 71
    5
  3
Standard
 53
0
210
0
220
0
230
1
100
AcDbAlignedDimension
 13
1171.278506253624
 23
-435.25
 33
0
 14
1171.278506253624
 24
-815.25
 34
0
 50
90
100
AcDbRotatedDimension
  0
DIMENSION
  5
2B7
100
AcDbEntity
  8
0
  6
CONTINUOUS
 62
  256
370
    0
100
AcDbDimension
  2
*D18
 10
1170.645844586595
 20
-1175.25
 30
0
 11
1163.645844586595
 21
-1004.25
 31
0
 70
   32
 71
    5
  3
Standard
 53
0
210
0
220
0
230
1
100
AcDbAlignedDimension
 13
1168.415465733832
 23
-833.25
 33
0
 14
1179.867627812997
 24
-1175.25
 34
0
 50
90
100
AcDbRotatedDimension
  0
CIRCLE
  5
2B8
100
AcDbEntity
  8
0
  6
ByLayer
 62
  256
370
   -1
100
AcDbCircle
 10
974.75
 20
96.25
 40
45
  0
CIRCLE
  5
2B9
100
AcDbEntity
  8
0
  6
ByLayer
 62
  256
370
   -1
100
AcDbCircle
 10
974.75
 20
-21.25
 40
45
  0
CIRCLE
  5
2BA
100
AcDbEntity
  8
0
  6
ByLayer
 62
  256
370
   -1
100
AcDbCircle
 10
974.75
 20
-138.75
 40
45
  0
CIRCLE
  5
2BB
100
AcDbEntity
  8
0
  6
ByLayer
 62
  256
370
   -1
100
AcDbCircle
 10
974.75
 20
-507.75
 40
45
  0
CIRCLE
  5
2BC
100
AcDbEntity
  8
0
  6
ByLayer
 62
  256
370
   -1
100
AcDbCircle
 10
974.75
 20
-625.25
 40
45
  0
CIRCLE
  5
2BD
100
AcDbEntity
  8
0
  6
ByLayer
 62
  256
370
   -1
100
AcDbCircle
 10
974.75
 20
-742.75
 40
45
  0
LINE
  5
2BE
100
AcDbEntity
  8
0
  6
ByLayer
 62
  256
370
   -1
100
AcDbLine
 10
882.75
 20
-451.25
 11
952.75
 21
-451.25
  0
LINE
  5
2BF
100
AcDbEntity
  8
0
  6
ByLayer
 62
  256
370
   -1
100
AcDbLine
 10
882.75
 20
-195.25
 11
952.75
 21
-195.25
  0
LINE
  5
2C0
100
AcDbEntity
  8
0
  6
ByLayer
 62
  256
370
   -1
100
AcDbLine
 10
882.75
 20
152.75
 11
952.75
 21
152.75
  0
LINE
  5
2C1
100
AcDbEntity
  8
0
  6
ByLayer
 62
  256
370
   -1
100
AcDbLine
 10
882.75
 20
-799.25
 11
952.75
 21
-799.25
  0
LINE
  5
2C2
100
AcDbEntity
  8
0
  6
ByLayer
 62
  256
370
   -1
100
AcDbLine
 10
882.75
 20
-684.0000000000023
 11
952.75
 21
-684.0000000000023
  0
LINE
  5
2C3
100
AcDbEntity
  8
0
  6
ByLayer
 62
  256
370
   -1
100
AcDbLine
 10
882.75
 20
-566.5000000000036
 11
952.75
 21
-566.5000000000036
  0
LINE
  5
2C4
100
AcDbEntity
  8
0
  6
ByLayer
 62
  256
370
   -1
100
AcDbLine
 10
882.75
 20
-79.99999999999983
 11
952.75
 21
-79.99999999999983
  0
LINE
  5
2C5
100
AcDbEntity
  8
0
  6
ByLayer
 62
  256
370
   -1
100
AcDbLine
 10
882.75
 20
37.50000000000165
 11
952.75
 21
37.50000000000165
  0
LINE
  5
2C6
100
AcDbEntity
  8
0
  6
ByLayer
 62
  256
370
   -1
100
AcDbLine
 10
1031.75
 20
-229.25
 11
1031.75
 21
-159.2499999999999
  0
LINE
  5
2C7
100
AcDbEntity
  8
0
  6
ByLayer
 62
  256
370
   -1
100
AcDbLine
 10
1031.75
 20
116.75
 11
1031.75
 21
186.75
  0
LINE
  5
2C8
100
AcDbEntity
  8
0
  6
ByLayer
 62
  256
370
   -1
100
AcDbLine
 10
1031.75
 20
-487.25
 11
1031.75
 21
-417.25
  0
LINE
  5
2C9
100
AcDbEntity
  8
0
  6
ByLayer
 62
  256
370
   -1
100
AcDbLine
 10
1031.75
 20
-833.25
 11
1031.75
 21
-763.25
  0
LINE
  5
2CA
100
AcDbEntity
  8
0
  6
ByLayer
 62
  256
370
   -1
100
AcDbLine
 10
882.75
 20
177.75
 11
952.75
 21
177.75
  0
LINE
  5
2CB
100
AcDbEntity
  8
0
  6
ByLayer
 62
  256
370
   -1
100
AcDbLine
 10
882.75
 20
-426.25
 11
952.75
 21
-426.25
  0
LINE
  5
2CC
100
AcDbEntity
  8
0
  6
ByLayer
 62
  256
370
   -1
100
AcDbLine
 10
882.75
 20
-824.25
 11
952.75
 21
-824.25
  0
LINE
  5
2CD
100
AcDbEntity
  8
0
  6
ByLayer
 62
  256
370
   -1
100
AcDbLine
 10
882.75
 20
-1184.25
 11
952.75
 21
-1184.25
  0
LINE
  5
2CE
100
AcDbEntity
  8
0
  6
DASHEDTINY
 62
  256
370
    0
100
AcDbLine
 10
988.75
 20
-417.25
 11
988.75
 21
-229.25
  0
LINE
  5
2CF
100
AcDbEntity
  8
0
  6
ByLayer
 62
  256
370
   -1
100
AcDbLine
 10
1148.75
 20
-426.25
 11
1218.75
 21
-426.25
  0
LINE
  5
2D0
100
AcDbEntity
  8
0
  6
ByLayer
 62
  256
370
   -1
100
AcDbLine
 10
1148.75
 20
-220.25
 11
1218.75
 21
-220.25
  0
LINE
  5
2D1
100
AcDbEntity
  8
0
  6
ByLayer
 62
  256
370
   -1
100
AcDbLine
 10
1148.75
 20
177.75
 11
1218.75
 21
177.75
  0
LINE
  5
2D2
100
AcDbEntity
  8
0
  6
ByLayer
 62
  256
370
   -1
100
AcDbLine
 10
1148.75
 20
-1184.25
 11
1218.75
 21
-1184.25
  0
LINE
  5
2D3
100
AcDbEntity
  8
0
  6
ByLayer
 62
  256
370
   -1
100
AcDbLine
 10
1148.75
 20
-824.25
 11
1218.75
 21
-824.25
  0
LINE
  5
2D4
100
AcDbEntity
  8
0
  6
ByLayer
 62
  256
370
   -1
100
AcDbLine
 10
882.75
 20
409
 11
952.75
 21
409
  0
LINE
  5
2D5
100
AcDbEntity
  8
0
  6
ByLayer
 62
  256
370
   -1
100
AcDbLine
 10
882.75
 20
797
 11
952.75
 21
797
  0
LINE
  5
2D6
100
AcDbEntity
  8
0
  6
ByLayer
 62
  256
370
   -1
100
AcDbLine
 10
1148.75
 20
797
 11
1218.75
 21
797
  0
LINE
  5
2D7
100
AcDbEntity
  8
0
  6
ByLayer
 62
  256
370
   -1
100
AcDbLine
 10
1148.75
 20
409
 11
1218.75
 21
409
  0
LINE
  5
2D8
100
AcDbEntity
  8
0
  6
ByLayer
 62
  256
370
   -1
100
AcDbLine
 10
882.75
 20
603
 11
952.75
 21
603
  0
LINE
  5
2D9
100
AcDbEntity
  8
0
  6
ByLayer
 62
  256
370
   -1
100
AcDbLine
 10
2588
 20
18
 11
2182
 21
18
  0
LINE
  5
2DA
100
AcDbEntity
  8
0
  6
ByLayer
 62
  256
370
   -1
100
AcDbLine
 10
2588
 20
-0
 11
2182
 21
-0
  0
LINE
  5
2DB
100
AcDbEntity
  8
0
  6
ByLayer
 62
  256
370
   -1
100
AcDbLine
 10
2182
 20
-300
 11
2588
 21
-300
  0
LINE
  5
2DC
100
AcDbEntity
  8
0
  6
ByLayer
 62
  256
370
   -1
100
AcDbLine
 10
2182
 20
-318
 11
2588
 21
-318
  0
LINE
  5
2DD
100
AcDbEntity
  8
0
  6
ByLayer
 62
  256
370
   -1
100
AcDbLine
 10
2588
 20
-318
 11
2588
 21
18
  0
LINE
  5
2DE
100
AcDbEntity
  8
0
  6
ByLayer
 62
  256
370
   -1
100
AcDbLine
 10
2182
 20
18
 11
2182
 21
-318
  0
LINE
  5
2DF
100
AcDbEntity
  8
0
  6
ByLayer
 62
  256
370
   -1
100
AcDbLine
 10
2579
 20
-52
 11
2579
 21
18
  0
LINE
  5
2E0
100
AcDbEntity
  8
0
  6
ByLayer
 62
  256
370
   -1
100
AcDbLine
 10
2191
 20
18
 11
2191
 21
-52
  0
LINE
  5
2E1
100
AcDbEntity
  8
0
  6
ByLayer
 62
  256
370
   -1
100
AcDbLine
 10
2191
 20
-248
 11
2191
 21
-318
  0
LINE
  5
2E2
100
AcDbEntity
  8
0
  6
ByLayer
 62
  256
370
   -1
100
AcDbLine
 10
2579
 20
-318
 11
2579
 21
-248
  0
LINE
  5
2E3
100
AcDbEntity
  8
0
  6
ByLayer
 62
  256
370
   -1
100
AcDbLine
 10
2292.500000000009
 20
-37
 11
2292.500000000009
 21
18
  0
LINE
  5
2E4
100
AcDbEntity
  8
0
  6
ByLayer
 62
  256
370
   -1
100
AcDbLine
 10
2385
 20
-37
 11
2385
 21
18
  0
LINE
  5
2E5
100
AcDbEntity
  8
0
  6
ByLayer
 62
  256
370
   -1
100
AcDbLine
 10
2292.500000000009
 20
-263
 11
2292.500000000009
 21
-318
  0
LINE
  5
2E6
100
AcDbEntity
  8
0
  6
ByLayer
 62
  256
370
   -1
100
AcDbLine
 10
2385
 20
-263
 11
2385
 21
-318
  0
LINE
  5
2E7
100
AcDbEntity
  8
0
  6
ByLayer
 62
  256
370
   -1
100
AcDbLine
 10
2477.499999999991
 20
-37
 11
2477.499999999991
 21
18
  0
LINE
  5
2E8
100
AcDbEntity
  8
0
  6
ByLayer
 62
  256
370
   -1
100
AcDbLine
 10
2477.499999999991
 20
-263
 11
2477.499999999991
 21
-318
  0
LINE
  5
2E9
100
AcDbEntity
  8
0
  6
ByLayer
 62
  256
370
   -1
100
AcDbLine
 10
2182
 20
-102.9999999999876
 11
2237
 21
-102.9999999999876
  0
LINE
  5
2EA
100
AcDbEntity
  8
0
  6
ByLayer
 62
  256
370
   -1
100
AcDbLine
 10
2588
 20
-102.9999999999876
 11
2533
 21
-102.9999999999876
  0
LINE
  5
2EB
100
AcDbEntity
  8
0
  6
ByLayer
 62
  256
370
   -1
100
AcDbLine
 10
2182
 20
-197.0000000000124
 11
2237
 21
-197.0000000000124
  0
LINE
  5
2EC
100
AcDbEntity
  8
0
  6
ByLayer
 62
  256
370
   -1
100
AcDbLine
 10
2588
 20
-197.0000000000124
 11
2533
 21
-197.0000000000124
  0
DIMENSION
  5
2ED
100
AcDbEntity
  8
0
  6
ByLayer
 62
  256
370
   -1
100
AcDbDimension
  2
*D19
 10
1050.75
 20
-915.25
 30
0
 11
1043.75
 21
-1045.25
 31
0
 70
   32
 71
    5
  3
Standard
 53
0
210
0
220
0
230
1
100
AcDbAlignedDimension
 13
1050.75
 23
-1175.25
 33
0
 14
1050.75
 24
-915.25
 34
0
 50
90
100
AcDbRotatedDimension
  0
LINE
  5
2EE
100
AcDbEntity
  8
0
  6
ByLayer
 62
  256
370
   -1
100
AcDbLine
 10
882.75
 20
-220.25
 11
952.75
 21
-220.25
  0
LINE
  5
2EF
100
AcDbEntity
  8
wymniary
  6
ByLayer
 62
  256
370
   -1
100
AcDbLine
 10
1470.75
 20
177.75
 11
1876.75
 21
177.75
  0
LINE
  5
2F0
100
AcDbEntity
  8
wymniary
  6
ByLayer
 62
  256
370
   -1
100
AcDbLine
 10
1867.75
 20
-1193.25
 11
1867.75
 21
186.75
  0
LINE
  5
2F1
100
AcDbEntity
  8
wymniary
  6
ByLayer
 62
  256
370
   -1
100
AcDbLine
 10
1479.75
 20
-1193.25
 11
1479.75
 21
186.75
  0
LINE
  5
2F2
100
AcDbEntity
  8
wymniary
  6
ByLayer
 62
  256
370
   -1
100
AcDbLine
 10
1218.75
 20
-220.25
 11
1876.75
 21
-220.25
  0
LINE
  5
2F3
100
AcDbEntity
  8
wymniary
  6
ByLayer
 62
  256
370
   -1
100
AcDbLine
 10
1218.75
 20
-426.25
 11
1876.75
 21
-426.25
  0
LINE
  5
2F4
100
AcDbEntity
  8
wymniary
  6
ByLayer
 62
  256
370
   -1
100
AcDbLine
 10
1218.75
 20
-824.25
 11
1876.75
 21
-824.25
  0
LINE
  5
2F5
100
AcDbEntity
  8
wymniary
  6
ByLayer
 62
  256
370
   -1
100
AcDbLine
 10
1470.75
 20
-1184.25
 11
1876.75
 21
-1184.25
  0
LINE
  5
2F6
100
AcDbEntity
  8
wymniary
  6
ByLayer
 62
  256
370
   -1
100
AcDbLine
 10
1470.75
 20
73
 11
1876.75
 21
73
  0
LINE
  5
2F7
100
AcDbEntity
  8
wymniary
  6
ByLayer
 62
  256
370
   -1
100
AcDbLine
 10
1470.75
 20
-31.75
 11
1876.75
 21
-31.75
  0
LINE
  5
2F8
100
AcDbEntity
  8
wymniary
  6
ByLayer
 62
  256
370
   -1
100
AcDbLine
 10
1470.75
 20
-136.5
 11
1876.75
 21
-136.5
  0
LINE
  5
2F9
100
AcDbEntity
  8
wymniary
  6
ByLayer
 62
  256
370
   -1
100
AcDbLine
 10
1470.75
 20
-241.25
 11
1876.75
 21
-241.25
  0
LINE
  5
2FA
100
AcDbEntity
  8
wymniary
  6
ByLayer
 62
  256
370
   -1
100
AcDbLine
 10
1470.75
 20
-346
 11
1876.75
 21
-346
  0
LINE
  5
2FB
100
AcDbEntity
  8
wymniary
  6
ByLayer
 62
  256
370
   -1
100
AcDbLine
 10
1470.75
 20
-450.75
 11
1876.75
 21
-450.75
  0
LINE
  5
2FC
100
AcDbEntity
  8
wymniary
  6
ByLayer
 62
  256
370
   -1
100
AcDbLine
 10
1470.75
 20
-555.5
 11
1876.75
 21
-555.5
  0
LINE
  5
2FD
100
AcDbEntity
  8
wymniary
  6
ByLayer
 62
  256
370
   -1
100
AcDbLine
 10
1470.75
 20
-660.25
 11
1876.75
 21
-660.25
  0
LINE
  5
2FE
100
AcDbEntity
  8
wymniary
  6
ByLayer
 62
  256
370
   -1
100
AcDbLine
 10
1470.75
 20
-765
 11
1876.75
 21
-765
  0
LINE
  5
2FF
100
AcDbEntity
  8
wymniary
  6
ByLayer
 62
  256
370
   -1
100
AcDbLine
 10
1470.75
 20
-869.75
 11
1876.75
 21
-869.75
  0
LINE
  5
300
100
AcDbEntity
  8
wymniary
  6
ByLayer
 62
  256
370
   -1
100
AcDbLine
 10
1470.75
 20
-974.5
 11
1876.75
 21
-974.5
  0
LINE
  5
301
100
AcDbEntity
  8
wymniary
  6
ByLayer
 62
  256
370
   -1
100
AcDbLine
 10
1470.75
 20
-1079.25
 11
1876.75
 21
-1079.25
  0
LINE
  5
302
100
AcDbEntity
  8
0
  6
ByLayer
 62
  256
370
   -1
100
AcDbLine
 10
882.75
 20
-915.25
 11
900.75
 21
-915.25
  0
LINE
  5
303
100
AcDbEntity
  8
0
  6
ByLayer
 62
  256
370
   -1
100
AcDbLine
 10
882.75
 20
-949.25
 11
900.75
 21
-949.25
  0
LINE
  5
304
100
AcDbEntity
  8
0
  6
ByLayer
 62
  256
370
   -1
100
AcDbLine
 10
882.75
 20
-983.25
 11
900.75
 21
-983.25
  0
DIMENSION
  5
305
100
AcDbEntity
  8
0
  6
ByLayer
 62
  256
370
   -1
100
AcDbDimension
  2
*D20
 10
800
 20
-949.25
 30
0
 11
793
 21
-1071.25
 31
0
 70
   32
 71
    5
  3
Standard
 53
0
210
0
220
0
230
1
100
AcDbAlignedDimension
 13
882.75
 23
-1193.25
 33
0
 14
882.75
 24
-949.25
 34
0
 50
90
100
AcDbRotatedDimension
  0
DIMENSION
  5
306
100
AcDbEntity
  8
0
  6
ByLayer
 62
  256
370
   -1
100
AcDbDimension
  2
*D21
 10
2292.500000000009
 20
40
 30
0
 11
2237.250000000005
 21
47
 31
0
 70
   32
 71
    5
  3
Standard
 53
0
210
0
220
0
230
1
100
AcDbAlignedDimension
 13
2182
 23
18
 33
0
 14
2292.500000000009
 24
18
 34
0
100
AcDbRotatedDimension
  0
DIMENSION
  5
307
100
AcDbEntity
  8
0
  6
ByLayer
 62
  256
370
   -1
100
AcDbDimension
  2
*D22
 10
2385
 20
60
 30
0
 11
2283.5
 21
67
 31
0
 70
   32
 71
    5
  3
Standard
 53
0
210
0
220
0
230
1
100
AcDbAlignedDimension
 13
2182
 23
18
 33
0
 14
2385
 24
18
 34
0
100
AcDbRotatedDimension
  0
DIMENSION
  5
308
100
AcDbEntity
  8
0
  6
ByLayer
 62
  256
370
   -1
100
AcDbDimension
  2
*D23
 10
850
 20
-220.25
 30
0
 11
843
 21
-16.75
 31
0
 70
   32
 71
    5
 72
    0
  3
Standard
 53
0
210
0
220
0
230
1
100
AcDbAlignedDimension
 13
882.75
 23
186.75
 33
0
 14
882.75
 24
-220.25
 34
0
 50
90
100
AcDbRotatedDimension
  0
DIMENSION
  5
309
100
AcDbEntity
  8
0
  6
ByLayer
 62
  256
370
   -1
100
AcDbDimension
  2
*D24
 10
820
 20
-426.25
 30
0
 11
813
 21
-119.75
 31
0
 70
   32
 71
    5
 72
    0
  3
Standard
 53
0
210
0
220
0
230
1
100
AcDbAlignedDimension
 13
882.75
 23
186.75
 33
0
 14
882.75
 24
-426.25
 34
0
 50
90
100
AcDbRotatedDimension
  0
DIMENSION
  5
30A
100
AcDbEntity
  8
0
  6
ByLayer
 62
  256
370
   -1
100
AcDbDimension
  2
*D25
 10
790
 20
-824.25
 30
0
 11
783
 21
-318.75
 31
0
 70
   32
 71
    5
 72
    0
  3
Standard
 53
0
210
0
220
0
230
1
100
AcDbAlignedDimension
 13
882.75
 23
186.75
 33
0
 14
882.75
 24
-824.25
 34
0
 50
90
100
AcDbRotatedDimension
  0
DIMENSION
  5
30B
100
AcDbEntity
  8
0
  6
ByLayer
 62
  256
370
   -1
100
AcDbDimension
  2
*D26
 10
866.4633019786453
 20
-451.25
 30
0
 11
859.4633019786453
 21
-438.75
 31
0
 70
   32
 71
    5
  3
Standard
 53
0
210
0
220
0
230
1
100
AcDbAlignedDimension
 13
882.75
 23
-426.25
 33
0
 14
882.75
 24
-451.25
 34
0
 50
90
100
AcDbRotatedDimension
  0
DIMENSION
  5
30C
100
AcDbEntity
  8
0
  6
ByLayer
 62
  256
370
   -1
100
AcDbDimension
  2
*D27
 10
849.3107591080422
 20
-566.5000000000036
 30
0
 11
842.3107591080422
 21
-496.3750000000018
 31
0
 70
   32
 71
    5
  3
Standard
 53
0
210
0
220
0
230
1
100
AcDbAlignedDimension
 13
882.75
 23
-426.25
 33
0
 14
882.75
 24
-566.5000000000036
 34
0
 50
90
100
AcDbRotatedDimension
  0
DIMENSION
  5
30D
100
AcDbEntity
  8
0
  6
ByLayer
 62
  256
370
   -1
100
AcDbDimension
  2
*D28
 10
828.5197980527659
 20
-684.0000000000023
 30
0
 11
821.5197980527659
 21
-555.1250000000011
 31
0
 70
   32
 71
    5
  3
Standard
 53
0
210
0
220
0
230
1
100
AcDbAlignedDimension
 13
882.75
 23
-426.25
 33
0
 14
882.75
 24
-684.0000000000023
 34
0
 50
90
100
AcDbRotatedDimension
  0
DIMENSION
  5
30E
100
AcDbEntity
  8
0
  6
ByLayer
 62
  256
370
   -1
100
AcDbDimension
  2
*D29
 10
809.0808606304169
 20
-799.25
 30
0
 11
802.0808606304169
 21
-612.75
 31
0
 70
   32
 71
    5
  3
Standard
 53
0
210
0
220
0
230
1
100
AcDbAlignedDimension
 13
882.75
 23
-426.25
 33
0
 14
882.75
 24
-799.25
 34
0
 50
90
100
AcDbRotatedDimension
  0
LINE
  5
30F
100
AcDbEntity
  8
0
  6
ByLayer
 62
  256
370
   -1
100
AcDbLine
 10
970.75
 20
-417.25
 11
970.75
 21
-229.25
  0
CIRCLE
  5
310
100
AcDbEntity
  8
0
  6
ByLayer
 62
  256
370
   -1
100
AcDbCircle
 10
935.75
 20
-268.75
 40
15
  0
CIRCLE
  5
311
100
AcDbEntity
  8
0
  6
ByLayer
 62
  256
370
   -1
100
AcDbCircle
 10
935.75
 20
-323.25
 40
15
  0
CIRCLE
  5
312
100
AcDbEntity
  8
0
  6
ByLayer
 62
  256
370
   -1
100
AcDbCircle
 10
935.75
 20
-377.75
 40
15
  0
LINE
  5
313
100
AcDbEntity
  8
0
  6
ByLayer
 62
  256
370
   -1
100
AcDbLine
 10
882.75
 20
-296.0000000000066
 11
937.75
 21
-296.0000000000066
  0
LINE
  5
314
100
AcDbEntity
  8
0
  6
ByLayer
 62
  256
370
   -1
100
AcDbLine
 10
882.75
 20
-350.4999999999934
 11
937.75
 21
-350.4999999999934
  0
DIMENSION
  5
315
100
AcDbEntity
  8
0
  6
ByLayer
 62
  256
370
   -1
100
AcDbDimension
  2
*D30
 10
850.0139016143476
 20
-296.0000000000066
 30
0
 11
843.0139016143476
 21
-258.1250000000033
 31
0
 70
   32
 71
    5
  3
Standard
 53
0
210
0
220
0
230
1
100
AcDbAlignedDimension
 13
882.75
 23
-220.25
 33
0
 14
882.75
 24
-296.0000000000066
 34
0
 50
90
100
AcDbRotatedDimension
  0
CIRCLE
  5
316
100
AcDbEntity
  8
0
  6
ByLayer
 62
  256
370
   -1
100
AcDbCircle
 10
935.75
 20
-1137.15
 40
15
  0
CIRCLE
  5
317
100
AcDbEntity
  8
0
  6
ByLayer
 62
  256
370
   -1
100
AcDbCircle
 10
935.75
 20
-1083.99
 40
15
  0
CIRCLE
  5
318
100
AcDbEntity
  8
0
  6
ByLayer
 62
  256
370
   -1
100
AcDbCircle
 10
935.75
 20
-1030.83
 40
15
  0
CIRCLE
  5
319
100
AcDbEntity
  8
0
  6
ByLayer
 62
  256
370
   -1
100
AcDbCircle
 10
935.75
 20
-977.67
 40
15
  0
CIRCLE
  5
31A
100
AcDbEntity
  8
0
  6
ByLayer
 62
  256
370
   -1
100
AcDbCircle
 10
935.75
 20
-924.51
 40
15
  0
CIRCLE
  5
31B
100
AcDbEntity
  8
0
  6
ByLayer
 62
  256
370
   -1
100
AcDbCircle
 10
935.75
 20
-871.35
 40
15
  0
LINE
  5
31C
100
AcDbEntity
  8
0
  6
ByLayer
 62
  256
370
   -1
100
AcDbLine
 10
882.75
 20
-897.9300000000027
 11
937.75
 21
-897.9300000000027
  0
LINE
  5
31D
100
AcDbEntity
  8
0
  6
ByLayer
 62
  256
370
   -1
100
AcDbLine
 10
882.75
 20
-1004.249999999979
 11
937.75
 21
-1004.249999999979
  0
LINE
  5
31E
100
AcDbEntity
  8
0
  6
ByLayer
 62
  256
370
   -1
100
AcDbLine
 10
882.75
 20
-1110.570000000004
 11
937.75
 21
-1110.570000000004
  0
LINE
  5
31F
100
AcDbEntity
  8
0
  6
ByLayer
 62
  256
370
   -1
100
AcDbLine
 10
960.7499999999835
 20
-1193.25
 11
960.7499999999835
 21
-1137.15
  0
LINE
  5
320
100
AcDbEntity
  8
0
  6
ByLayer
 62
  256
370
   -1
100
AcDbLine
 10
2137
 20
-150
 11
2227
 21
-150
  0
DIMENSION
  5
321
100
AcDbEntity
  8
0
  6
ByLayer
 62
  256
370
   -1
100
AcDbDimension
  2
*D31
 10
2036.17002448587
 20
-437.25
 30
0
 11
2029.17002448587
 21
-125.25
 31
0
 70
   32
 71
    5
 72
    0
  3
Standard
 53
0
210
0
220
0
230
1
100
AcDbAlignedDimension
 13
1876.75
 23
186.75
 33
0
 14
1876.75
 24
-437.25
 34
0
 50
90
100
AcDbRotatedDimension
  0
DIMENSION
  5
322
100
AcDbEntity
  8
0
  6
ByLayer
 62
  256
370
   -1
100
AcDbDimension
  2
*D32
 10
2072.958803541957
 20
186.75
 30
0
 11
2065.958803541957
 21
-211.25
 31
0
 70
   32
 71
    5
 72
    0
  3
Standard
 53
0
210
0
220
0
230
1
100
AcDbAlignedDimension
 13
1876.75
 23
-609.25
 33
0
 14
1876.75
 24
186.75
 34
0
 50
90
100
AcDbRotatedDimension
  0
DIMENSION
  5
323
100
AcDbEntity
  8
0
  6
ByLayer
 62
  256
370
   -1
100
AcDbDimension
  2
*D33
 10
2610
 20
-102.9999999999876
 30
0
 11
2603
 21
-51.4999999999938
 31
0
 70
   32
 71
    5
  3
Standard
 53
0
210
0
220
0
230
1
100
AcDbAlignedDimension
 13
2588
 23
-0
 33
0
 14
2588
 24
-102.9999999999876
 34
0
 50
90
100
AcDbRotatedDimension
  0
DIMENSION
  5
324
100
AcDbEntity
  8
0
  6
ByLayer
 62
  256
370
   -1
100
AcDbDimension
  2
*D34
 10
1031.75
 20
210
 30
0
 11
966.25
 21
217
 31
0
 70
   32
 71
    5
 72
    0
  3
Standard
 53
0
210
0
220
0
230
1
100
AcDbAlignedDimension
 13
900.75
 23
186.75
 33
0
 14
1031.75
 24
186.75
 34
0
100
AcDbRotatedDimension
  0
DIMENSION
  5
325
100
AcDbEntity
  8
0
  6
ByLayer
 62
  256
370
   -1
100
AcDbDimension
  2
*D35
 10
1010
 20
-268.75
 30
0
 11
1003
 21
-249
 31
0
 70
   32
 71
    5
 72
    0
  3
Standard
 53
0
210
0
220
0
230
1
100
AcDbAlignedDimension
 13
970.75
 23
-229.25
 33
0
 14
935.75
 24
-268.75
 34
0
 50
90
100
AcDbRotatedDimension
  0
DIMENSION
  5
326
100
AcDbEntity
  8
0
  6
ByLayer
 62
  256
370
   -1
100
AcDbDimension
  2
*D36
 10
1030
 20
-323.25
 30
0
 11
1023
 21
-276.25
 31
0
 70
   32
 71
    5
 72
    0
  3
Standard
 53
0
210
0
220
0
230
1
100
AcDbAlignedDimension
 13
970.75
 23
-229.25
 33
0
 14
935.75
 24
-323.25
 34
0
 50
90
100
AcDbRotatedDimension
  0
DIMENSION
  5
327
100
AcDbEntity
  8
0
  6
ByLayer
 62
  256
370
   -1
100
AcDbDimension
  2
*D37
 10
1050
 20
-377.75
 30
0
 11
1043
 21
-303.5
 31
0
 70
   32
 71
    5
 72
    0
  3
Standard
 53
0
210
0
220
0
230
1
100
AcDbAlignedDimension
 13
970.75
 23
-229.25
 33
0
 14
935.75
 24
-377.75
 34
0
 50
90
100
AcDbRotatedDimension
  0
DIMENSION
  5
328
100
AcDbEntity
  8
0
  6
ByLayer
 62
  256
370
   -1
100
AcDbDimension
  2
*D38
 10
1130.75
 20
-1218.726692067154
 30
0
 11
1050.75
 21
-1211.726692067154
 31
0
 70
   32
 71
    5
  3
Standard
 53
0
210
0
220
0
230
1
100
AcDbAlignedDimension
 13
970.75
 23
-1193.25
 33
0
 14
1130.75
 24
-1193.25
 34
0
100
AcDbRotatedDimension
  0
LINE
  5
329
100
AcDbEntity
  8
0
  6
ByLayer
 62
  256
370
   -1
100
AcDbLine
 10
966.75
 20
-1193.25
 11
966.75
 21
-833.25
  0
LINE
  5
32A
100
AcDbEntity
  8
0
  6
ByLayer
 62
  256
370
   -1
100
AcDbLine
 10
970.75
 20
-1193.25
 11
970.75
 21
-915.25
  0
DIMENSION
  5
32B
100
AcDbEntity
  8
0
  6
ByLayer
 62
  256
370
   -1
100
AcDbDimension
  2
*D39
 10
966.75
 20
-844.3454538973073
 30
0
 11
933.75
 21
-837.3454538973073
 31
0
 70
   32
 71
    5
  3
Standard
 53
0
210
0
220
0
230
1
100
AcDbAlignedDimension
 13
900.75
 23
-844.3951304201801
 33
0
 14
966.75
 24
-844.3454538973073
 34
0
100
AcDbRotatedDimension
  0
DIMENSION
  5
32C
100
AcDbEntity
  8
0
  6
ByLayer
 62
  256
370
   -1
100
AcDbDimension
  2
*D40
 10
860
 20
-1137.15
 30
0
 11
853
 21
-1156.2
 31
0
 70
   32
 71
    5
 72
    0
  3
Standard
 53
0
210
0
220
0
230
1
100
AcDbAlignedDimension
 13
900.75
 23
-1175.25
 33
0
 14
935.75
 24
-1137.15
 34
0
 50
90
100
AcDbRotatedDimension
  0
DIMENSION
  5
32D
100
AcDbEntity
  8
0
  6
ByLayer
 62
  256
370
   -1
100
AcDbDimension
  2
*D41
 10
840
 20
-1083.99
 30
0
 11
833
 21
-1129.62
 31
0
 70
   32
 71
    5
 72
    0
  3
Standard
 53
0
210
0
220
0
230
1
100
AcDbAlignedDimension
 13
882.75
 23
-1175.25
 33
0
 14
935.75
 24
-1083.99
 34
0
 50
90
100
AcDbRotatedDimension
  0
DIMENSION
  5
32E
100
AcDbEntity
  8
0
  6
ByLayer
 62
  256
370
   -1
100
AcDbDimension
  2
*D42
 10
820
 20
-1030.83
 30
0
 11
813
 21
-1103.04
 31
0
 70
   32
 71
    5
 72
    0
  3
Standard
 53
0
210
0
220
0
230
1
100
AcDbAlignedDimension
 13
882.75
 23
-1175.25
 33
0
 14
935.75
 24
-1030.83
 34
0
 50
90
100
AcDbRotatedDimension
  0
DIMENSION
  5
32F
100
AcDbEntity
  8
0
  6
ByLayer
 62
  256
370
   -1
100
AcDbDimension
  2
*D43
 10
770
 20
-977.67
 30
0
 11
763
 21
-1076.46
 31
0
 70
   32
 71
    5
 72
    0
  3
Standard
 53
0
210
0
220
0
230
1
100
AcDbAlignedDimension
 13
900.75
 23
-1175.25
 33
0
 14
935.75
 24
-977.67
 34
0
 50
90
100
AcDbRotatedDimension
  0
DIMENSION
  5
330
100
AcDbEntity
  8
0
  6
ByLayer
 62
  256
370
   -1
100
AcDbDimension
  2
*D44
 10
740
 20
-924.51
 30
0
 11
733
 21
-1049.88
 31
0
 70
   32
 71
    5
 72
    0
  3
Standard
 53
0
210
0
220
0
230
1
100
AcDbAlignedDimension
 13
900.75
 23
-1175.25
 33
0
 14
935.75
 24
-924.51
 34
0
 50
90
100
AcDbRotatedDimension
  0
DIMENSION
  5
331
100
AcDbEntity
  8
0
  6
ByLayer
 62
  256
370
   -1
100
AcDbDimension
  2
*D45
 10
700
 20
-871.35
 30
0
 11
693
 21
-1023.3
 31
0
 70
   32
 71
    5
 72
    0
  3
Standard
 53
0
210
0
220
0
230
1
100
AcDbAlignedDimension
 13
900.75
 23
-1175.25
 33
0
 14
935.75
 24
-871.35
 34
0
 50
90
100
AcDbRotatedDimension
  0
ENDSEC
  0
SECTION
  2
OBJECTS
  0
DICTIONARY
  5
C
330
0
100
AcDbDictionary
281
    1
  3
ACAD_GROUP
350
D
  0
DICTIONARY
  5
D
330
C
100
AcDbDictionary
281
    1
  0
ENDSEC
  0
EOF
